SplineFontDB: 3.0
FontName: Midway-BoldItalic
FullName: Midway Bold Italic
FamilyName: Midway
Weight: Bold
Copyright: Copyright 2011 Canonical Ltd.\nCopyright 2015 Yuta Taniguchi\nLicensed under the Ubuntu Font Licence 1.0
Version: 0.1
ItalicAngle: -13
UnderlinePosition: -156
UnderlineWidth: 23
Ascent: 800
Descent: 200
InvalidEm: 0
sfntRevision: 0x0000199a
LayerCount: 2
Layer: 0 1 "Back" 1
Layer: 1 1 "Fore" 0
XUID: [1021 935 -1301570125 9264418]
StyleMap: 0x0001
FSType: 0
OS2Version: 3
OS2_WeightWidthSlopeOnly: 0
OS2_UseTypoMetrics: 0
CreationTime: 1304432203
ModificationTime: 1558229932
PfmFamily: 49
TTFWeight: 700
TTFWidth: 5
LineGap: 0
VLineGap: 0
Panose: 2 11 8 9 3 6 2 10 2 4
OS2TypoAscent: 993
OS2TypoAOffset: 0
OS2TypoDescent: -214
OS2TypoDOffset: 0
OS2TypoLinegap: 0
OS2WinAscent: 993
OS2WinAOffset: 0
OS2WinDescent: 214
OS2WinDOffset: 0
HheadAscent: 993
HheadAOffset: 0
HheadDescent: -214
HheadDOffset: 0
OS2SubXSize: 824
OS2SubYSize: 766
OS2SubXOff: 0
OS2SubYOff: 165
OS2SupXSize: 824
OS2SupYSize: 766
OS2SupXOff: 0
OS2SupYOff: 562
OS2StrikeYSize: 59
OS2StrikeYPos: 294
OS2CapHeight: 729
OS2XHeight: 554
OS2Vendor: 'DAMA'
OS2CodePages: 2000009f.00000000
OS2UnicodeRanges: e00002ff.5000385b.00000000.00000000
Lookup: 1 0 0 "'locl' Localized Forms in Latin lookup 0" { "'locl' Localized Forms in Latin lookup 0 subtable"  } ['locl' ('latn' <'AZE ' > ) ]
Lookup: 1 0 0 "'locl' Localized Forms in Latin lookup 1" { "'locl' Localized Forms in Latin lookup 1 subtable"  } ['locl' ('latn' <'TRK ' > ) ]
Lookup: 1 0 0 "'locl' Localized Forms in Latin lookup 2" { "'locl' Localized Forms in Latin lookup 2 subtable"  } ['locl' ('latn' <'CRT ' > ) ]
Lookup: 1 0 0 "'locl' Localized Forms in Cyrillic lookup 3" { "'locl' Localized Forms in Cyrillic lookup 3 subtable"  } ['locl' ('cyrl' <'SRB ' > ) ]
Lookup: 1 0 0 "'locl' Localized Forms in Cyrillic lookup 4" { "'locl' Localized Forms in Cyrillic lookup 4 subtable"  } ['locl' ('cyrl' <'BGR ' > ) ]

StartChar: SF030000.001
Encoding: 65536 -1 0
Width: 550
VWidth: 1177
Flags: W
LayerCount: 2
Fore
SplineSet
-3.8349609375 0 m 1,0,-1
 -3.8349609375 883 l 1,1,-1
 -3.8349609375 893 l 1,2,-1
 6.1650390625 893 l 1,3,-1
 477.165039062 893 l 1,4,-1
 487.165039062 893 l 1,5,-1
 487.165039062 883 l 1,6,-1
 487.165039062 0 l 1,7,-1
 487.165039062 -10 l 1,8,-1
 477.165039062 -10 l 1,9,-1
 6.1650390625 -10 l 1,10,-1
 -3.8349609375 -10 l 1,11,-1
 -3.8349609375 0 l 1,0,-1
408.165039062 69 m 1,12,-1
 408.165039062 814 l 1,13,-1
 75.1650390625 814 l 1,14,-1
 75.1650390625 69 l 1,15,-1
 408.165039062 69 l 1,12,-1
EndSplineSet
EndChar

StartChar: exclam
Encoding: 33 33 4
Width: 550
VWidth: 1177
Flags: W
LayerCount: 2
Fore
SplineSet
469.33203125 529.572265625 m 2,0,1
 458.30078125 487.454101562 458.30078125 487.454101562 449.296875 453.44140625 c 0,2,3
 447.022460938 444.846679688 447.022460938 444.846679688 444.620117188 436.439453125 c 256,4,5
 442.217773438 428.033203125 442.217773438 428.033203125 439.688476562 419.809570312 c 256,6,7
 437.158203125 411.5859375 437.158203125 411.5859375 434.499023438 403.546875 c 256,8,9
 431.840820312 395.5078125 431.840820312 395.5078125 429.053710938 387.65625 c 0,10,11
 418.012695312 356.540039062 418.012695312 356.540039062 406.467773438 326.420898438 c 256,12,13
 394.9375 296.341796875 394.9375 296.341796875 380.9140625 261.286132812 c 2,14,-1
 378.400390625 255 l 1,15,-1
 371.629882812 255 l 1,16,-1
 251.629882812 255 l 1,17,-1
 240.580078125 255 l 1,18,-1
 241.6796875 265.995117188 l 1,19,-1
 249.1796875 340.995117188 l 2,20,21
 252.703125 376.234375 252.703125 376.234375 257.743164062 409.498046875 c 256,22,23
 262.779296875 442.740234375 262.779296875 442.740234375 269.330078125 474.990234375 c 0,24,25
 271.509765625 485.720703125 271.509765625 485.720703125 273.974609375 496.923828125 c 256,26,27
 276.439453125 508.126953125 276.439453125 508.126953125 279.17578125 519.7421875 c 256,28,29
 281.912109375 531.358398438 281.912109375 531.358398438 284.916015625 543.376953125 c 2,30,-1
 329.905273438 731.328125 l 1,31,-1
 331.741210938 739 l 1,32,-1
 339.629882812 739 l 1,33,-1
 506.629882812 739 l 1,34,-1
 519.295898438 739 l 1,35,-1
 516.357421875 726.6796875 l 1,36,-1
 469.33203125 529.572265625 l 2,0,1
282.629882812 193 m 0,37,38
 324.403320312 193 324.403320312 193 352.236328125 168.506835938 c 0,39,40
 380.629882812 143.520507812 380.629882812 143.520507812 380.629882812 95 c 0,41,42
 380.629882812 68.8037109375 380.629882812 68.8037109375 370.708984375 47.3095703125 c 0,43,44
 365.84765625 36.77734375 365.84765625 36.77734375 359.333007812 27.412109375 c 256,45,46
 352.817382812 18.0458984375 352.817382812 18.0458984375 344.700195312 9.9287109375 c 0,47,48
 328.3515625 -6.4208984375 328.3515625 -6.4208984375 308.099609375 -15.1787109375 c 256,49,50
 287.69921875 -24 287.69921875 -24 264.629882812 -24 c 0,51,52
 223.848632812 -24 223.848632812 -24 195.513671875 1.001953125 c 0,53,54
 166.629882812 26.4873046875 166.629882812 26.4873046875 166.629882812 74 c 0,55,56
 166.629882812 101.146484375 166.629882812 101.146484375 176.510742188 123.103515625 c 0,57,58
 186.30078125 144.857421875 186.30078125 144.857421875 202.18359375 160.194335938 c 256,59,60
 218.0625 175.524414062 218.0625 175.524414062 239.334960938 184.251953125 c 256,61,62
 260.658203125 193 260.658203125 193 282.629882812 193 c 0,37,38
EndSplineSet
EndChar

StartChar: quotedbl
Encoding: 34 34 5
Width: 550
VWidth: 1177
Flags: W
LayerCount: 2
Fore
SplineSet
415.803710938 797.63671875 m 1,0,-1
 397.827148438 723.733398438 l 2,1,2
 391.747070312 696.372070312 391.747070312 696.372070312 381.102539062 663.42578125 c 0,3,4
 377.577148438 652.512695312 377.577148438 652.512695312 373.772460938 641.377929688 c 256,5,6
 369.966796875 630.243164062 369.966796875 630.243164062 365.885742188 618.893554688 c 256,7,8
 361.8046875 607.544921875 361.8046875 607.544921875 357.4453125 595.973632812 c 0,9,10
 344.3828125 561.310546875 344.3828125 561.310546875 330.313476562 527.64453125 c 256,11,12
 316.263671875 494.026367188 316.263671875 494.026367188 303.211914062 464.909179688 c 2,13,-1
 300.563476562 459 l 1,14,-1
 294.086914062 459 l 1,15,-1
 211.086914062 459 l 1,16,-1
 200.736328125 459 l 1,17,-1
 201.092773438 469.344726562 l 2,18,19
 202.096679688 498.450195312 202.096679688 498.450195312 204.102539062 534.5546875 c 256,20,21
 206.11328125 570.75390625 206.11328125 570.75390625 209.631835938 607.94140625 c 256,22,23
 213.159179688 645.227539062 213.159179688 645.227539062 218.705078125 681.03125 c 0,24,25
 220.547851562 692.930664062 220.547851562 692.930664062 222.579101562 704.206054688 c 256,26,27
 224.609375 715.48046875 224.609375 715.48046875 226.803710938 726.006835938 c 256,28,29
 228.997070312 736.532226562 228.997070312 736.532226562 231.336914062 746.221679688 c 2,30,-1
 243.309570312 802.095703125 l 1,31,-1
 245.002929688 810 l 1,32,-1
 253.086914062 810 l 1,33,-1
 406.086914062 810 l 1,34,-1
 418.810546875 810 l 1,35,-1
 415.803710938 797.63671875 l 1,0,-1
647.833007812 797.760742188 m 1,36,-1
 630.840820312 723.795898438 l 2,37,38
 624.747070312 696.372070312 624.747070312 696.372070312 614.102539062 663.42578125 c 0,39,40
 608.814453125 647.056640625 608.814453125 647.056640625 602.900390625 630.194335938 c 256,41,42
 596.985351562 613.33203125 596.985351562 613.33203125 590.4453125 595.973632812 c 0,43,44
 577.3828125 561.310546875 577.3828125 561.310546875 563.313476562 527.64453125 c 0,45,46
 559.7890625 519.211914062 559.7890625 519.211914062 556.265625 511.061523438 c 256,47,48
 552.741210938 502.911132812 552.741210938 502.911132812 549.212890625 495.037109375 c 256,49,50
 545.685546875 487.163085938 545.685546875 487.163085938 542.155273438 479.56640625 c 256,51,52
 538.625 471.969726562 538.625 471.969726562 535.092773438 464.65234375 c 2,53,-1
 532.364257812 459 l 1,54,-1
 526.086914062 459 l 1,55,-1
 443.086914062 459 l 1,56,-1
 432.736328125 459 l 1,57,-1
 433.092773438 469.344726562 l 2,58,59
 434.098632812 498.518554688 434.098632812 498.518554688 436.610351562 534.692382812 c 256,60,61
 439.119140625 570.821289062 439.119140625 570.821289062 442.631835938 607.94140625 c 256,62,63
 446.15234375 645.161132812 446.15234375 645.161132812 451.184570312 680.89453125 c 0,64,65
 452.869140625 692.853515625 452.869140625 692.853515625 454.784179688 704.1171875 c 256,66,67
 456.69921875 715.381835938 456.69921875 715.381835938 458.844726562 725.942382812 c 256,68,69
 460.990234375 736.501953125 460.990234375 736.501953125 463.35546875 746.303710938 c 2,70,-1
 476.345703125 802.26171875 l 1,71,-1
 478.142578125 810 l 1,72,-1
 486.086914062 810 l 1,73,-1
 638.086914062 810 l 1,74,-1
 650.64453125 810 l 1,75,-1
 647.833007812 797.760742188 l 1,36,-1
EndSplineSet
EndChar

StartChar: numbersign
Encoding: 35 35 6
Width: 550
VWidth: 1177
Flags: W
LayerCount: 2
Fore
SplineSet
272.141601562 560 m 1,0,-1
 341.620117188 732.731445312 l 1,1,-1
 344.141601562 739 l 1,2,-1
 350.8984375 739 l 1,3,-1
 468.8984375 739 l 1,4,-1
 483.69921875 739 l 1,5,-1
 478.17578125 725.268554688 l 1,6,-1
 411.69921875 560 l 1,7,-1
 488.141601562 560 l 1,8,-1
 557.620117188 732.731445312 l 1,9,-1
 560.141601562 739 l 1,10,-1
 566.8984375 739 l 1,11,-1
 683.8984375 739 l 1,12,-1
 698.776367188 739 l 1,13,-1
 693.157226562 725.223632812 l 1,14,-1
 625.776367188 560 l 1,15,-1
 687.8984375 560 l 1,16,-1
 700.548828125 560 l 1,17,-1
 697.627929688 547.69140625 l 1,18,-1
 669.627929688 429.69140625 l 1,19,-1
 667.803710938 422 l 1,20,-1
 659.8984375 422 l 1,21,-1
 571.650390625 422 l 1,22,-1
 525.709960938 308 l 1,23,-1
 626.8984375 308 l 1,24,-1
 639.653320312 308 l 1,25,-1
 636.609375 295.61328125 l 1,26,-1
 607.609375 177.61328125 l 1,27,-1
 605.739257812 170 l 1,28,-1
 597.8984375 170 l 1,29,-1
 470.634765625 170 l 1,30,-1
 400.166015625 -3.7578125 l 1,31,-1
 397.633789062 -10 l 1,32,-1
 390.8984375 -10 l 1,33,-1
 272.8984375 -10 l 1,34,-1
 258.051757812 -10 l 1,35,-1
 263.630859375 3.7578125 l 1,36,-1
 331.052734375 170 l 1,37,-1
 253.668945312 170 l 1,38,-1
 184.18359375 -3.7138671875 l 1,39,-1
 181.668945312 -10 l 1,40,-1
 174.8984375 -10 l 1,41,-1
 57.8984375 -10 l 1,42,-1
 43.1279296875 -10 l 1,43,-1
 48.61328125 3.7138671875 l 1,44,-1
 115.12890625 170 l 1,45,-1
 58.8984375 170 l 1,46,-1
 46.248046875 170 l 1,47,-1
 49.16796875 182.30859375 l 1,48,-1
 77.1689453125 300.30859375 l 1,49,-1
 78.994140625 308 l 1,50,-1
 86.8984375 308 l 1,51,-1
 171.146484375 308 l 1,52,-1
 217.087890625 422 l 1,53,-1
 119.8984375 422 l 1,54,-1
 107.248046875 422 l 1,55,-1
 110.16796875 434.30859375 l 1,56,-1
 138.168945312 552.30859375 l 1,57,-1
 139.993164062 560 l 1,58,-1
 147.8984375 560 l 1,59,-1
 272.141601562 560 l 1,0,-1
310.709960938 308 m 1,60,-1
 386.193359375 308 l 1,61,-1
 432.984375 422 l 1,62,-1
 356.650390625 422 l 1,63,-1
 310.709960938 308 l 1,60,-1
EndSplineSet
EndChar

StartChar: dollar
Encoding: 36 36 7
Width: 550
VWidth: 1177
Flags: W
LayerCount: 2
Fore
SplineSet
174.077148438 163.314453125 m 0,0,1
 218.124023438 147 218.124023438 147 269.947265625 147 c 0,2,3
 282.280273438 147 282.280273438 147 294.615234375 147.708984375 c 128,-1,4
 306.947265625 148.41796875 306.947265625 148.41796875 319.286132812 149.836914062 c 0,5,6
 325.252929688 150.5234375 325.252929688 150.5234375 330.918945312 151.547851562 c 128,-1,7
 336.5859375 152.573242188 336.5859375 152.573242188 341.928710938 153.930664062 c 128,-1,8
 347.272460938 155.288085938 347.272460938 155.288085938 352.298828125 156.970703125 c 128,-1,9
 357.327148438 158.65234375 357.327148438 158.65234375 362.071289062 160.666015625 c 128,-1,10
 366.63671875 162.60546875 366.63671875 162.60546875 370.680664062 164.909179688 c 128,-1,11
 374.72265625 167.213867188 374.72265625 167.213867188 378.264648438 169.897460938 c 128,-1,12
 381.806640625 172.58203125 381.806640625 172.58203125 384.861328125 175.633789062 c 128,-1,13
 387.916992188 178.685546875 387.916992188 178.685546875 390.545898438 182.155273438 c 0,14,15
 395.545898438 188.754882812 395.545898438 188.754882812 398.166015625 197.868164062 c 128,-1,16
 400.78515625 206.982421875 400.78515625 206.982421875 400.78515625 218.828125 c 0,17,18
 400.784179688 234.755859375 400.784179688 234.755859375 394.200195312 245.661132812 c 0,19,20
 387.221679688 257.21484375 387.221679688 257.21484375 374.977539062 266.74609375 c 0,21,22
 362.038085938 276.817382812 362.038085938 276.817382812 344.991210938 285.581054688 c 0,23,24
 336.201171875 290.099609375 336.201171875 290.099609375 326.845703125 294.522460938 c 128,-1,25
 317.489257812 298.9453125 317.489257812 298.9453125 307.6640625 303.227539062 c 0,26,27
 259.176757812 324.041992188 259.176757812 324.041992188 227.146484375 346.517578125 c 0,28,29
 194.813476562 369.203125 194.813476562 369.203125 174.922851562 394.108398438 c 0,30,31
 154.768554688 419.342773438 154.768554688 419.342773438 146.3828125 447.776367188 c 0,32,33
 142.447265625 461.78125 142.447265625 461.78125 140.489257812 476.864257812 c 128,-1,34
 138.530273438 491.946289062 138.530273438 491.946289062 138.530273438 508.083984375 c 0,35,36
 138.530273438 525.9375 138.530273438 525.9375 141.822265625 543.322265625 c 128,-1,37
 145.115234375 560.708007812 145.115234375 560.708007812 151.928710938 577.52734375 c 128,-1,38
 158.922851562 594.513671875 158.922851562 594.513671875 169.838867188 609.834960938 c 128,-1,39
 180.756835938 625.15625 180.756835938 625.15625 195.485351562 638.706054688 c 0,40,41
 224.771484375 665.647460938 224.771484375 665.647460938 269.731445312 684.814453125 c 0,42,43
 311.485351562 702.614257812 311.485351562 702.614257812 368.16796875 709.162109375 c 1,44,-1
 396.918945312 808.571289062 l 1,45,-1
 399.004882812 816 l 1,46,-1
 407.116210938 816 l 1,47,-1
 534.530273438 816 l 1,48,-1
 547.337890625 816 l 1,49,-1
 544.231445312 803.57421875 l 1,50,-1
 518.094726562 701.481445312 l 1,51,52
 554.841796875 692.91015625 554.841796875 692.91015625 585.1015625 681.340820312 c 0,53,54
 619.987304688 668.001953125 619.987304688 668.001953125 641.793945312 654.502929688 c 2,55,-1
 649.857421875 649.510742188 l 1,56,-1
 645.299804688 641.193359375 l 1,57,-1
 588.299804688 537.193359375 l 1,58,-1
 582.974609375 527.477539062 l 1,59,-1
 573.852539062 533.767578125 l 2,60,61
 564.6875 540.088867188 564.6875 540.088867188 554.396484375 545.473632812 c 128,-1,62
 544.10546875 550.859375 544.10546875 550.859375 532.571289062 555.345703125 c 0,63,64
 520.551757812 559.833007812 520.551757812 559.833007812 507.162109375 563.366210938 c 0,65,66
 466.873046875 574 466.873046875 574 429.274414062 574 c 0,67,68
 405.139648438 574 405.139648438 574 384.434570312 569.547851562 c 128,-1,69
 363.729492188 565.096679688 363.729492188 565.096679688 346.249023438 556.256835938 c 0,70,71
 329.779296875 547.927734375 329.779296875 547.927734375 322.021484375 536.145507812 c 128,-1,72
 314.263671875 524.36328125 314.263671875 524.36328125 314.263671875 507.942382812 c 0,73,74
 314.263671875 495.596679688 314.263671875 495.596679688 318.760742188 485.142578125 c 128,-1,75
 323.2578125 474.6875 323.2578125 474.6875 332.541015625 465.500976562 c 0,76,77
 352.31640625 445.928710938 352.31640625 445.928710938 406.588867188 421.416992188 c 0,78,79
 422.249023438 413.958984375 422.249023438 413.958984375 437.55078125 405.874023438 c 128,-1,80
 452.854492188 397.788085938 452.854492188 397.788085938 468.145507812 388.896484375 c 0,81,82
 499.314453125 370.772460938 499.314453125 370.772460938 522.895507812 348.05078125 c 0,83,84
 546.016601562 324.916015625 546.016601562 324.916015625 559.729492188 293.662109375 c 0,85,86
 566.662109375 277.861328125 566.662109375 277.861328125 570.096679688 259.770507812 c 128,-1,87
 573.530273438 241.6796875 573.530273438 241.6796875 573.530273438 221.3671875 c 0,88,89
 573.530273438 172.471679688 573.530273438 172.471679688 557.395507812 134.315429688 c 128,-1,90
 541.260742188 96.1591796875 541.260742188 96.1591796875 507.830078125 69.6845703125 c 0,91,92
 443.533203125 19.7080078125 443.533203125 19.7080078125 339.666992188 9.34375 c 1,93,-1
 309.756835938 -106.31640625 l 1,94,-1
 307.825195312 -114 l 1,95,-1
 299.491210938 -114 l 1,96,-1
 170.763671875 -114 l 1,97,-1
 157.4296875 -114 l 1,98,-1
 160.495117188 -101.701171875 l 1,99,-1
 189.52734375 14.7783203125 l 1,100,101
 137.618164062 23.041015625 137.618164062 23.041015625 99.7001953125 38.7626953125 c 0,102,103
 78.87890625 47.3955078125 78.87890625 47.3955078125 62.880859375 55.013671875 c 128,-1,104
 46.8828125 62.630859375 46.8828125 62.630859375 35.443359375 69.390625 c 2,105,-1
 27.1513671875 74.2900390625 l 1,106,-1
 31.736328125 82.759765625 l 1,107,-1
 90.736328125 191.759765625 l 1,108,-1
 95.7685546875 201.056640625 l 1,109,-1
 104.771484375 195.516601562 l 2,110,111
 117.267578125 187.826171875 117.267578125 187.826171875 134.2890625 179.744140625 c 0,112,113
 151.538085938 171.662109375 151.538085938 171.662109375 174.077148438 163.314453125 c 0,0,1
EndSplineSet
EndChar

StartChar: percent
Encoding: 37 37 8
Width: 550
VWidth: 1177
Flags: W
LayerCount: 2
Fore
SplineSet
224.815429688 -10 m 1,0,-1
 219.958007812 -10 l 1,1,-1
 113.671875 -10 l 1,2,-1
 92.265625 -10 l 1,3,-1
 106.002929688 6.4169921875 l 1,4,-1
 735.459960938 735.416992188 l 1,5,-1
 738.573242188 739 l 1,6,-1
 743.424804688 739 l 1,7,-1
 848.671875 739 l 1,8,-1
 870.056640625 739 l 1,9,-1
 856.346679688 722.588867188 l 1,10,-1
 227.928710938 -6.4111328125 l 1,11,-1
 224.815429688 -10 l 1,0,-1
327.530273438 485.233398438 m 128,-1,13
 333.315429688 480 333.315429688 480 340.438476562 480 c 0,14,15
 344.961914062 480 344.961914062 480 348.827148438 481.17578125 c 128,-1,16
 352.692382812 482.352539062 352.692382812 482.352539062 356.444335938 485.060546875 c 128,-1,17
 360.1953125 487.768554688 360.1953125 487.768554688 363.749023438 492.140625 c 0,18,19
 375.865234375 507.043945312 375.865234375 507.043945312 384.185546875 527.408203125 c 0,20,21
 388.450195312 537.841796875 388.450195312 537.841796875 391.70703125 548.49609375 c 128,-1,22
 394.965820312 559.149414062 394.965820312 559.149414062 397.221679688 570.034179688 c 0,23,24
 398.727539062 577.294921875 398.727539062 577.294921875 399.737304688 583.625976562 c 128,-1,25
 400.748046875 589.958007812 400.748046875 589.958007812 401.233398438 595.012695312 c 128,-1,26
 401.717773438 600.068359375 401.717773438 600.068359375 401.717773438 604 c 0,27,28
 401.717773438 614.577148438 401.717773438 614.577148438 399.748046875 620.995117188 c 128,-1,29
 397.778320312 627.413085938 397.778320312 627.413085938 395.311523438 629.408203125 c 0,30,31
 391.5703125 632.435546875 391.5703125 632.435546875 388.319335938 633.717773438 c 128,-1,32
 385.06640625 635 385.06640625 635 381.983398438 635 c 0,33,34
 368.669921875 635 368.669921875 635 359.309570312 623.006835938 c 0,35,36
 353.475585938 615.53125 353.475585938 615.53125 348.3125 606.634765625 c 128,-1,37
 343.1484375 597.739257812 343.1484375 597.739257812 338.686523438 587.42578125 c 0,38,39
 329.7265625 566.716796875 329.7265625 566.716796875 325.750976562 545.590820312 c 128,-1,40
 321.744140625 524.296875 321.744140625 524.296875 321.743164062 511.939453125 c 0,41,12
 321.743164062 490.466796875 321.743164062 490.466796875 327.530273438 485.233398438 c 128,-1,13
414.759765625 395.831054688 m 0,42,43
 377.177734375 369 377.177734375 369 323.8203125 369 c 0,44,45
 272.430664062 369 272.430664062 369 239.212890625 403.916015625 c 0,46,47
 206.671875 438.34765625 206.671875 438.34765625 206.671875 493.692382812 c 0,48,49
 206.671875 530.788085938 206.671875 530.788085938 216.5625 574.190429688 c 0,50,51
 226.75390625 617.9609375 226.75390625 617.9609375 248.783203125 655.25390625 c 0,52,53
 271.15234375 693.119140625 271.15234375 693.119140625 308.241210938 719.2109375 c 0,54,55
 346.32421875 746 346.32421875 746 399.639648438 746 c 0,56,57
 451.083984375 746 451.083984375 746 483.788085938 711.021484375 c 0,58,59
 515.965820312 676.604492188 515.965820312 676.604492188 515.966796875 621.307617188 c 0,60,61
 515.965820312 602.703125 515.965820312 602.703125 513.434570312 582.700195312 c 128,-1,62
 510.901367188 562.696289062 510.901367188 562.696289062 505.854492188 541.2734375 c 0,63,64
 495.669921875 498.030273438 495.669921875 498.030273438 473.668945312 460.282226562 c 0,65,66
 462.515625 441.146484375 462.515625 441.146484375 447.762695312 425.00390625 c 128,-1,67
 433.01171875 408.861328125 433.01171875 408.861328125 414.759765625 395.831054688 c 0,42,43
635.469726562 243.693359375 m 0,68,69
 628.501953125 249 628.501953125 249 620.8671875 249 c 0,70,71
 607.553710938 249 607.553710938 249 598.194335938 237.006835938 c 0,72,73
 586.45703125 221.96875 586.45703125 221.96875 577.5703125 201.42578125 c 0,74,75
 574.58203125 194.520507812 574.58203125 194.520507812 572.151367188 187.5234375 c 128,-1,76
 569.719726562 180.525390625 569.719726562 180.525390625 567.842773438 173.435546875 c 128,-1,77
 565.966796875 166.345703125 565.966796875 166.345703125 564.640625 159.15234375 c 0,78,79
 560.626953125 137.374023438 560.626953125 137.374023438 560.626953125 125 c 0,80,81
 560.626953125 104.776367188 560.626953125 104.776367188 567.033203125 99.591796875 c 0,82,83
 573.943359375 94 573.943359375 94 579.322265625 94 c 0,84,85
 586.228515625 94 586.228515625 94 592.041015625 96.798828125 c 128,-1,86
 597.854492188 99.5966796875 597.854492188 99.5966796875 603.361328125 105.919921875 c 0,87,88
 615.848632812 120.25390625 615.848632812 120.25390625 624.108398438 140.46875 c 0,89,90
 632.631835938 161.330078125 632.631835938 161.330078125 637.14453125 183.094726562 c 0,91,92
 639.397460938 193.959960938 639.397460938 193.959960938 640.518554688 202.7578125 c 128,-1,93
 641.639648438 211.556640625 641.639648438 211.556640625 641.639648438 218 c 0,94,95
 641.639648438 238.993164062 641.639648438 238.993164062 635.469726562 243.693359375 c 0,68,69
548.163085938 332.213867188 m 0,96,97
 586.247070312 359 586.247070312 359 639.5625 359 c 0,98,99
 664.97265625 359 664.97265625 359 686.134765625 350.168945312 c 128,-1,100
 707.295898438 341.336914062 707.295898438 341.336914062 723.250976562 323.978515625 c 0,101,102
 733.844726562 312.453125 733.844726562 312.453125 740.899414062 298.470703125 c 128,-1,103
 747.955078125 284.489257812 747.955078125 284.489257812 751.352539062 268.502929688 c 128,-1,104
 754.671875 252.516601562 754.671875 252.516601562 754.671875 234.383789062 c 0,105,106
 754.671875 215.791015625 754.671875 215.791015625 752.234375 195.799804688 c 128,-1,107
 749.786132812 175.809570312 749.786132812 175.809570312 744.73828125 154.3984375 c 0,108,109
 734.545898438 111.154296875 734.545898438 111.154296875 712.524414062 73.8955078125 c 0,110,111
 701.360351562 55.0087890625 701.360351562 55.0087890625 686.59375 39.1181640625 c 128,-1,112
 671.828125 23.2265625 671.828125 23.2265625 653.565429688 10.4501953125 c 0,113,114
 634.775390625 -2.693359375 634.775390625 -2.693359375 611.9453125 -9.2578125 c 128,-1,115
 589.116210938 -16 589.116210938 -16 562.704101562 -16 c 0,116,117
 511.30859375 -16 511.30859375 -16 478.610351562 18.4306640625 c 0,118,119
 446.37890625 52.369140625 446.37890625 52.369140625 446.37890625 107.701171875 c 0,120,121
 446.377929688 126.303710938 446.377929688 126.303710938 448.911132812 146.303710938 c 128,-1,122
 451.444335938 166.303710938 451.444335938 166.303710938 456.491210938 187.724609375 c 0,123,124
 466.682617188 230.989257812 466.682617188 230.989257812 488.705078125 268.265625 c 0,125,126
 499.870117188 287.1640625 499.870117188 287.1640625 514.76171875 303.1796875 c 128,-1,127
 529.655273438 319.1953125 529.655273438 319.1953125 548.163085938 332.213867188 c 0,96,97
EndSplineSet
EndChar

StartChar: ampersand
Encoding: 38 38 9
Width: 550
VWidth: 1177
Flags: W
LayerCount: 2
Fore
SplineSet
432.0078125 272.3125 m 1,0,1
 445.390625 294.861328125 445.390625 294.861328125 455.3515625 321.0546875 c 0,2,3
 468.749023438 356.28515625 468.749023438 356.28515625 480.662109375 394.01171875 c 2,4,-1
 483.159179688 401.918945312 l 1,5,-1
 491.393554688 400.928710938 l 1,6,-1
 599.393554688 387.928710938 l 1,7,-1
 610.541992188 386.5859375 l 1,8,-1
 607.921875 375.666015625 l 2,9,10
 589.596679688 299.313476562 589.596679688 299.313476562 559.416015625 245.6015625 c 0,11,12
 531.626953125 196.145507812 531.626953125 196.145507812 505.703125 158.96875 c 1,13,14
 519.791015625 128.274414062 519.791015625 128.274414062 533.546875 92.0498046875 c 0,15,16
 548.731445312 52.0654296875 548.731445312 52.0654296875 561.86328125 2.564453125 c 2,17,-1
 565.197265625 -10 l 1,18,-1
 552.198242188 -10 l 1,19,-1
 419.198242188 -10 l 1,20,-1
 411.390625 -10 l 1,21,-1
 409.497070312 -2.42578125 l 2,22,23
 403.548828125 21.365234375 403.548828125 21.365234375 399.610351562 34.6591796875 c 0,24,25
 397.602539062 41.435546875 397.602539062 41.435546875 394.807617188 49.650390625 c 1,26,27
 373.813476562 31.67578125 373.813476562 31.67578125 352.196289062 18.7724609375 c 256,28,29
 330.578125 5.8681640625 330.578125 5.8681640625 307.584960938 -2.4091796875 c 0,30,31
 294.688476562 -7.0517578125 294.688476562 -7.0517578125 281.580078125 -10.537109375 c 256,32,33
 268.471679688 -14.0234375 268.471679688 -14.0234375 255.168945312 -16.34765625 c 256,34,35
 241.8671875 -18.6728515625 241.8671875 -18.6728515625 228.370117188 -19.8359375 c 256,36,37
 214.872070312 -21 214.872070312 -21 201.198242188 -21 c 0,38,39
 185.979492188 -21 185.979492188 -21 172.16796875 -19.501953125 c 256,40,41
 158.35546875 -18.0048828125 158.35546875 -18.0048828125 145.728515625 -14.939453125 c 256,42,43
 133.1015625 -11.8740234375 133.1015625 -11.8740234375 121.8828125 -7.244140625 c 0,44,45
 88.3681640625 6.587890625 88.3681640625 6.587890625 66.3818359375 30.1826171875 c 256,46,47
 44.4169921875 53.7548828125 44.4169921875 53.7548828125 33.7275390625 85.2900390625 c 0,48,49
 23.19921875 116.3515625 23.19921875 116.3515625 23.1982421875 152 c 0,50,51
 23.1982421875 192.573242188 23.1982421875 192.573242188 33.681640625 225.0703125 c 0,52,53
 37.1748046875 235.900390625 37.1748046875 235.900390625 41.78125 246.27734375 c 256,54,55
 46.388671875 256.655273438 46.388671875 256.655273438 52.091796875 266.549804688 c 256,56,57
 57.794921875 276.444335938 57.794921875 276.444335938 64.591796875 285.854492188 c 0,58,59
 84.775390625 313.801757812 84.775390625 313.801757812 115.159179688 340.065429688 c 0,60,61
 144.970703125 365.834960938 144.970703125 365.834960938 182.201171875 393.002929688 c 2,62,-1
 188.46484375 397.821289062 l 1,63,64
 175.583007812 423.5859375 175.583007812 423.5859375 167.620117188 450.126953125 c 0,65,66
 162.9140625 465.8125 162.9140625 465.8125 160.555664062 481.793945312 c 256,67,68
 158.198242188 497.776367188 158.198242188 497.776367188 158.198242188 514 c 0,69,70
 158.198242188 569 158.198242188 569 176.466796875 612.845703125 c 0,71,72
 185.561523438 634.670898438 185.561523438 634.670898438 197.958007812 653.72265625 c 256,73,74
 210.354492188 672.775390625 210.354492188 672.775390625 226.012695312 688.954101562 c 256,75,76
 241.744140625 705.2109375 241.744140625 705.2109375 260.52734375 717.689453125 c 256,77,78
 279.310546875 730.166992188 279.310546875 730.166992188 301.00390625 738.791992188 c 0,79,80
 344.283203125 756 344.283203125 756 395.198242188 756 c 0,81,82
 435.282226562 756 435.282226562 756 465.806640625 746.00390625 c 256,83,84
 496.33203125 736.008789062 496.33203125 736.008789062 516.76953125 715.571289062 c 256,85,86
 537.036132812 695.303710938 537.036132812 695.303710938 547.118164062 667.481445312 c 256,87,88
 557.198242188 639.658203125 557.198242188 639.658203125 557.198242188 605 c 0,89,90
 557.19921875 599.497070312 557.19921875 599.497070312 556.859375 593.932617188 c 256,91,92
 556.520507812 588.368164062 556.520507812 588.368164062 555.845703125 582.765625 c 256,93,94
 555.171875 577.1640625 555.171875 577.1640625 554.162109375 571.50390625 c 256,95,96
 553.15234375 565.84375 553.15234375 565.84375 551.811523438 560.149414062 c 256,97,98
 550.47265625 554.455078125 550.47265625 554.455078125 548.799804688 548.70703125 c 0,99,100
 540.354492188 519.674804688 540.354492188 519.674804688 518.954101562 488.358398438 c 0,101,102
 497.735351562 457.305664062 497.735351562 457.305664062 461.275390625 425.467773438 c 0,103,104
 443.854492188 410.254882812 443.854492188 410.254882812 421.049804688 394.077148438 c 256,105,106
 398.24609375 377.8984375 398.24609375 377.8984375 372.142578125 362.111328125 c 1,107,-1
 432.0078125 272.3125 l 1,0,1
171.198242188 173 m 0,108,109
 171.198242188 145.793945312 171.198242188 145.793945312 188.181640625 126.6328125 c 0,110,111
 204.697265625 108 204.697265625 108 236.198242188 108 c 0,112,113
 264.771484375 108 264.771484375 108 294.615234375 123.387695312 c 0,114,115
 307.749023438 130.16015625 307.749023438 130.16015625 319.795898438 138.87109375 c 256,116,117
 331.844726562 147.583007812 331.844726562 147.583007812 340.852539062 156.568359375 c 1,118,119
 325.2734375 183.859375 325.2734375 183.859375 299.877929688 221.953125 c 2,120,-1
 248.063476562 299.672851562 l 1,121,122
 225.666015625 286.224609375 225.666015625 286.224609375 211.365234375 271.526367188 c 0,123,124
 202.836914062 262.76171875 202.836914062 262.76171875 196.399414062 254.099609375 c 256,125,126
 189.9609375 245.436523438 189.9609375 245.436523438 185.59375 236.931640625 c 0,127,128
 176.805664062 219.818359375 176.805664062 219.818359375 174.061523438 203.356445312 c 0,129,130
 171.198242188 186.172851562 171.198242188 186.172851562 171.198242188 173 c 0,108,109
311.7265625 456.944335938 m 1,131,132
 375.204101562 488.68359375 375.204101562 488.68359375 397.711914062 524.790039062 c 0,133,134
 409.08203125 543.030273438 409.08203125 543.030273438 414.640625 559.12890625 c 256,135,136
 420.198242188 575.227539062 420.198242188 575.227539062 420.198242188 589 c 0,137,138
 420.198242188 605.635742188 420.198242188 605.635742188 411.231445312 617.456054688 c 0,139,140
 403.232421875 628 403.232421875 628 380.198242188 628 c 0,141,142
 368.54296875 628 368.54296875 628 358.28515625 625.096679688 c 256,143,144
 348.029296875 622.193359375 348.029296875 622.193359375 338.90234375 616.276367188 c 256,145,146
 329.775390625 610.359375 329.775390625 610.359375 321.630859375 601.310546875 c 0,147,148
 309.487304688 587.817382812 309.487304688 587.817382812 303.342773438 569.3828125 c 256,149,150
 297.198242188 550.94921875 297.198242188 550.94921875 297.198242188 527 c 0,151,152
 297.198242188 501.293945312 297.198242188 501.293945312 301.868164062 483.544921875 c 0,153,154
 303.943359375 475.662109375 303.943359375 475.662109375 311.7265625 456.944335938 c 1,131,132
EndSplineSet
EndChar

StartChar: quotesingle
Encoding: 39 39 10
Width: 550
VWidth: 1177
Flags: W
LayerCount: 2
Fore
SplineSet
526.807617188 797.57421875 m 1,0,-1
 503.822265625 705.6328125 l 2,1,2
 489.672851562 646.001953125 489.672851562 646.001953125 461.9140625 575.34375 c 0,3,4
 457.318359375 563.646484375 457.318359375 563.646484375 452.737304688 552.200195312 c 256,5,6
 448.15625 540.754882812 448.15625 540.754882812 443.587890625 529.555664062 c 256,7,8
 439.018554688 518.357421875 439.018554688 518.357421875 434.463867188 507.409179688 c 256,9,10
 429.909179688 496.459960938 429.909179688 496.459960938 425.3671875 485.759765625 c 256,11,12
 420.825195312 475.059570312 420.825195312 475.059570312 416.295898438 464.607421875 c 256,13,14
 411.766601562 454.155273438 411.766601562 454.155273438 407.25 443.952148438 c 2,15,-1
 404.616210938 438 l 1,16,-1
 398.106445312 438 l 1,17,-1
 313.106445312 438 l 1,18,-1
 302.778320312 438 l 1,19,-1
 303.111328125 448.322265625 l 2,20,21
 304.1171875 479.5078125 304.1171875 479.5078125 306.629882812 515.692382812 c 256,22,23
 309.139648438 551.821289062 309.139648438 551.821289062 312.650390625 588.94140625 c 256,24,25
 316.171875 626.154296875 316.171875 626.154296875 321.202148438 662.375976562 c 0,26,27
 326.263671875 698.828125 326.263671875 698.828125 333.381835938 729.333007812 c 2,28,-1
 351.397460938 802.39453125 l 1,29,-1
 353.272460938 810 l 1,30,-1
 361.106445312 810 l 1,31,-1
 517.106445312 810 l 1,32,-1
 529.9140625 810 l 1,33,-1
 526.807617188 797.57421875 l 1,0,-1
EndSplineSet
EndChar

StartChar: parenleft
Encoding: 40 40 11
Width: 550
VWidth: 1177
Flags: W
LayerCount: 2
Fore
SplineSet
619.03125 725.501953125 m 2,0,1
 593.044921875 709.3828125 593.044921875 709.3828125 568.987304688 691.57421875 c 256,2,3
 544.931640625 673.764648438 544.931640625 673.764648438 522.81640625 654.276367188 c 256,4,5
 500.700195312 634.787109375 500.700195312 634.787109375 480.498046875 613.599609375 c 0,6,7
 419.760742188 549.899414062 419.760742188 549.899414062 377.331054688 479.346679688 c 256,8,9
 334.952148438 408.879882812 334.952148438 408.879882812 312.310546875 336.032226562 c 0,10,11
 304.779296875 311.803710938 304.779296875 311.803710938 299.765625 288.1484375 c 256,12,13
 294.752929688 264.493164062 294.752929688 264.493164062 292.255859375 241.477539062 c 256,14,15
 289.760742188 218.4609375 289.760742188 218.4609375 289.760742188 196 c 0,16,17
 289.760742188 173.889648438 289.760742188 173.889648438 291.416015625 152.819335938 c 256,18,19
 293.071289062 131.75 293.071289062 131.75 296.376953125 111.75 c 256,20,21
 299.682617188 91.75 299.682617188 91.75 304.623046875 72.8095703125 c 256,22,23
 309.563476562 53.869140625 309.563476562 53.869140625 316.147460938 35.9482421875 c 0,24,25
 342.438476562 -35.6240234375 342.438476562 -35.6240234375 410.02734375 -107.130859375 c 2,26,-1
 416.745117188 -114.237304688 l 1,27,-1
 409.791015625 -121.112304688 l 1,28,-1
 322.791015625 -207.112304688 l 1,29,-1
 316.299804688 -213.52734375 l 1,30,-1
 309.319335938 -207.649414062 l 2,31,32
 270.40234375 -174.876953125 270.40234375 -174.876953125 238.194335938 -130.909179688 c 256,33,34
 206.120117188 -87.126953125 206.120117188 -87.126953125 182.708007812 -37.2490234375 c 256,35,36
 159.262695312 12.69921875 159.262695312 12.69921875 146.024414062 69.2197265625 c 256,37,38
 132.760742188 125.844726562 132.760742188 125.844726562 132.760742188 185 c 0,39,40
 132.760742188 293.606445312 132.760742188 293.606445312 165.264648438 392.1328125 c 0,41,42
 197.700195312 490.453125 197.700195312 490.453125 254.978515625 575.104492188 c 0,43,44
 266.419921875 592.013671875 266.419921875 592.013671875 278.673828125 608.27734375 c 256,45,46
 290.927734375 624.541015625 290.927734375 624.541015625 303.9921875 640.15625 c 256,47,48
 317.0546875 655.770507812 317.0546875 655.770507812 330.926757812 670.737304688 c 256,49,50
 344.799804688 685.704101562 344.799804688 685.704101562 359.479492188 700.01953125 c 256,51,52
 374.159179688 714.334960938 374.159179688 714.334960938 389.64453125 727.998046875 c 0,53,54
 466.987304688 796.241210938 466.987304688 796.241210938 555.971679688 844.779296875 c 2,55,-1
 564.9296875 849.665039062 l 1,56,-1
 569.634765625 840.610351562 l 1,57,-1
 622.633789062 738.610351562 l 1,58,-1
 626.907226562 730.38671875 l 1,59,-1
 619.03125 725.501953125 l 2,0,1
EndSplineSet
Substitution2: "'case' Case-Sensitive Forms lookup 17 subtable" Parenleft
EndChar

StartChar: parenright
Encoding: 41 41 12
Width: 550
VWidth: 1177
Flags: W
LayerCount: 2
Fore
SplineSet
34.0849609375 -89.501953125 m 2,0,1
 73.060546875 -65.326171875 73.060546875 -65.326171875 107.686523438 -37.35546875 c 256,2,3
 142.3125 -9.3837890625 142.3125 -9.3837890625 172.618164062 22.400390625 c 0,4,5
 233.35546875 86.1005859375 233.35546875 86.1005859375 275.78515625 156.653320312 c 256,6,7
 318.1640625 227.120117188 318.1640625 227.120117188 340.805664062 299.967773438 c 0,8,9
 352.095703125 336.290039062 352.095703125 336.290039062 357.725585938 371.5390625 c 256,10,11
 363.35546875 406.788085938 363.35546875 406.788085938 363.35546875 441 c 0,12,13
 363.356445312 485.169921875 363.356445312 485.169921875 356.631835938 525.022460938 c 256,14,15
 349.908203125 564.875 349.908203125 564.875 336.498046875 600.474609375 c 0,16,17
 309.70703125 671.592773438 309.70703125 671.592773438 242.087890625 743.130859375 c 2,18,-1
 235.333007812 750.278320312 l 1,19,-1
 242.366210938 757.15234375 l 1,20,-1
 330.366210938 843.15234375 l 1,21,-1
 336.85546875 849.494140625 l 1,22,-1
 343.796875 843.649414062 l 2,23,24
 382.713867188 810.876953125 382.713867188 810.876953125 414.921875 766.909179688 c 256,25,26
 446.99609375 723.126953125 446.99609375 723.126953125 470.407226562 673.249023438 c 256,27,28
 493.853515625 623.30078125 493.853515625 623.30078125 507.091796875 566.780273438 c 0,29,30
 513.72265625 538.469726562 513.72265625 538.469726562 517.040039062 509.517578125 c 256,31,32
 520.35546875 480.565429688 520.35546875 480.565429688 520.35546875 451 c 0,33,34
 520.35546875 396.234375 520.35546875 396.234375 512.229492188 344.305664062 c 256,35,36
 504.104492188 292.376953125 504.104492188 292.376953125 487.84765625 243.352539062 c 0,37,38
 477.038085938 210.756835938 477.038085938 210.756835938 463.463867188 179.666015625 c 256,39,40
 449.889648438 148.576171875 449.889648438 148.576171875 433.551757812 118.998046875 c 256,41,42
 417.21484375 89.419921875 417.21484375 89.419921875 398.122070312 61.373046875 c 0,43,44
 340.924804688 -22.6513671875 340.924804688 -22.6513671875 263.499023438 -91.4736328125 c 0,45,46
 224.83203125 -125.844726562 224.83203125 -125.844726562 183.23828125 -155.17578125 c 256,47,48
 141.64453125 -184.505859375 141.64453125 -184.505859375 97.14453125 -208.779296875 c 2,49,-1
 88.1865234375 -213.665039062 l 1,50,-1
 83.4814453125 -204.610351562 l 1,51,-1
 30.482421875 -102.610351562 l 1,52,-1
 26.208984375 -94.38671875 l 1,53,-1
 34.0849609375 -89.501953125 l 2,0,1
EndSplineSet
Substitution2: "'case' Case-Sensitive Forms lookup 17 subtable" Parenright
EndChar

StartChar: asterisk
Encoding: 42 42 13
Width: 550
VWidth: 1177
Flags: W
LayerCount: 2
Fore
SplineSet
378.724609375 406.90625 m 1,0,-1
 377.48828125 403.268554688 l 2,1,2
 370.44140625 382.629882812 370.44140625 382.629882812 362.888671875 362.48828125 c 0,3,4
 355.184570312 341.944335938 355.184570312 341.944335938 345.91796875 323.926757812 c 0,5,6
 341.299804688 314.9453125 341.299804688 314.9453125 336.91796875 307.341796875 c 256,7,8
 332.536132812 299.739257812 332.536132812 299.739257812 328.345703125 293.453125 c 0,9,-1
 327.860351562 292.786132812 l 1,10,-1
 304.860351562 263.786132812 l 1,11,-1
 298.936523438 256.31640625 l 1,12,-1
 291.19140625 261.877929688 l 1,13,-1
 181.192382812 340.877929688 l 1,14,-1
 172.854492188 346.865234375 l 1,15,-1
 179.05859375 355.043945312 l 1,16,-1
 200.85546875 383.776367188 l 2,17,18
 209.827148438 396.9609375 209.827148438 396.9609375 225.203125 411.310546875 c 0,19,20
 240.263671875 425.3671875 240.263671875 425.3671875 255.822265625 439.420898438 c 0,21,22
 271.642578125 453.709960938 271.642578125 453.709960938 288.487304688 466.470703125 c 0,23,24
 289.200195312 467.010742188 289.200195312 467.010742188 290.251953125 467.8046875 c 256,25,26
 291.305664062 468.59765625 291.305664062 468.59765625 291.83984375 469 c 2,27,-1
 287.525390625 469 l 2,28,29
 283.329101562 469 283.329101562 469 279.091796875 469.08203125 c 256,30,31
 274.856445312 469.1640625 274.856445312 469.1640625 270.583007812 469.327148438 c 256,32,33
 266.310546875 469.491210938 266.310546875 469.491210938 261.998046875 469.736328125 c 256,34,35
 257.685546875 469.981445312 257.685546875 469.981445312 253.3359375 470.307617188 c 256,36,37
 248.987304688 470.634765625 248.987304688 470.634765625 244.599609375 471.04296875 c 0,38,39
 222.698242188 473.080078125 222.698242188 473.080078125 202.301757812 476.649414062 c 256,40,41
 181.971679688 480.20703125 181.971679688 480.20703125 167.708984375 485.560546875 c 2,42,-1
 133.02734375 496.459960938 l 1,43,-1
 123.321289062 499.510742188 l 1,44,-1
 126.5390625 509.162109375 l 1,45,-1
 169.538085938 638.162109375 l 1,46,-1
 172.647460938 647.487304688 l 1,47,-1
 182.0234375 644.540039062 l 1,48,-1
 217.20703125 633.482421875 l 2,49,50
 232.1171875 628.157226562 232.1171875 628.157226562 250.295898438 618.288085938 c 0,51,52
 268.252929688 608.541015625 268.252929688 608.541015625 286.180664062 596.247070312 c 2,53,-1
 321.180664062 572.247070312 l 2,54,55
 322.194335938 571.551757812 322.194335938 571.551757812 323.873046875 570.392578125 c 1,56,57
 323.383789062 572.073242188 323.383789062 572.073242188 322.900390625 573.78515625 c 0,58,59
 322.107421875 576.600585938 322.107421875 576.600585938 321.323242188 579.447265625 c 256,60,61
 320.5390625 582.29296875 320.5390625 582.29296875 319.765625 585.168945312 c 256,62,63
 318.993164062 588.044921875 318.993164062 588.044921875 318.23046875 590.951171875 c 256,64,65
 317.467773438 593.858398438 317.467773438 593.858398438 316.71484375 596.793945312 c 256,66,67
 315.963867188 599.73046875 315.963867188 599.73046875 315.221679688 602.697265625 c 256,68,69
 314.479492188 605.6640625 314.479492188 605.6640625 313.749023438 608.66015625 c 256,70,71
 313.017578125 611.65625 313.017578125 611.65625 312.297851562 614.68359375 c 0,72,73
 311.453125 618.23046875 311.453125 618.23046875 310.650390625 621.749023438 c 256,74,75
 309.848632812 625.268554688 309.848632812 625.268554688 309.087890625 628.760742188 c 256,76,77
 308.327148438 632.25390625 308.327148438 632.25390625 307.608398438 635.719726562 c 256,78,79
 306.889648438 639.186523438 306.889648438 639.186523438 306.212890625 642.625 c 256,80,81
 305.536132812 646.064453125 305.536132812 646.064453125 304.90234375 649.477539062 c 256,82,83
 304.267578125 652.890625 304.267578125 652.890625 303.67578125 656.276367188 c 0,84,85
 300.025390625 677.131835938 300.025390625 677.131835938 300.025390625 693 c 2,86,-1
 300.025390625 729 l 1,87,-1
 300.025390625 739 l 1,88,-1
 310.025390625 739 l 1,89,-1
 447.025390625 739 l 1,90,-1
 457.025390625 739 l 1,91,-1
 457.025390625 729 l 1,92,-1
 457.025390625 693 l 2,93,94
 457.025390625 678.15234375 457.025390625 678.15234375 453.3828125 656.817382812 c 0,95,96
 451.594726562 646.34765625 451.594726562 646.34765625 449.298828125 635.759765625 c 256,97,98
 447.00390625 625.172851562 447.00390625 625.172851562 444.198242188 614.466796875 c 0,99,100
 438.616210938 593.149414062 438.616210938 593.149414062 432.01171875 573.337890625 c 0,101,102
 431.668945312 572.310546875 431.668945312 572.310546875 431.135742188 570.712890625 c 256,103,104
 430.600585938 569.116210938 430.600585938 569.116210938 430.372070312 568.432617188 c 1,105,106
 432.32421875 569.8046875 432.32421875 569.8046875 434.258789062 571.169921875 c 0,107,108
 451.625976562 583.428710938 451.625976562 583.428710938 471.015625 594.654296875 c 0,109,110
 490.133789062 605.72265625 490.133789062 605.72265625 507.754882812 615.288085938 c 0,111,112
 512.267578125 617.73828125 512.267578125 617.73828125 516.668945312 619.920898438 c 256,113,114
 521.0703125 622.103515625 521.0703125 622.103515625 525.334960938 624.0078125 c 256,115,116
 529.599609375 625.911132812 529.599609375 625.911132812 533.725585938 627.530273438 c 256,117,118
 537.850585938 629.149414062 537.850585938 629.149414062 541.779296875 630.458984375 c 2,119,-1
 575.697265625 642.4296875 l 1,120,-1
 585.404296875 645.856445312 l 1,121,-1
 588.547851562 636.052734375 l 1,122,-1
 630.547851562 505.052734375 l 1,123,-1
 633.619140625 495.475585938 l 1,124,-1
 624.0234375 492.459960938 l 1,125,-1
 589.20703125 481.517578125 l 2,126,127
 581.788085938 478.868164062 581.788085938 478.868164062 572.608398438 476.979492188 c 256,128,129
 563.428710938 475.090820312 563.428710938 475.090820312 553.020507812 474.049804688 c 0,130,131
 532.983398438 472.045898438 532.983398438 472.045898438 511.451171875 470.04296875 c 0,132,133
 500.4765625 469.022460938 500.4765625 469.022460938 489.745117188 468.510742188 c 256,134,135
 479.012695312 468 479.012695312 468 468.525390625 468 c 2,136,-1
 465.200195312 468 l 2,137,138
 467.125 466.561523438 467.125 466.561523438 468.563476562 465.470703125 c 0,139,140
 485.217773438 452.854492188 485.217773438 452.854492188 501.857421875 439.239257812 c 0,141,142
 510.293945312 432.336914062 510.293945312 432.336914062 518.103515625 425.295898438 c 256,143,144
 525.913085938 418.25390625 525.913085938 418.25390625 533.096679688 411.071289062 c 0,145,146
 537.772460938 406.39453125 537.772460938 406.39453125 542.075195312 401.581054688 c 256,147,148
 546.377929688 396.768554688 546.377929688 396.768554688 549.890625 392.331054688 c 256,149,150
 553.403320312 387.893554688 553.403320312 387.893554688 556.120117188 383.88671875 c 2,151,-1
 578.860351562 355.213867188 l 1,152,-1
 585.3671875 347.009765625 l 1,153,-1
 576.872070312 340.887695312 l 1,154,-1
 465.872070312 260.887695312 l 1,155,-1
 457.778320312 255.053710938 l 1,156,-1
 451.92578125 263.134765625 l 1,157,-1
 430.811523438 292.291992188 l 2,158,159
 422.391601562 304.923828125 422.391601562 304.923828125 413.1328125 322.926757812 c 256,160,161
 403.9453125 340.791015625 403.9453125 340.791015625 395.288085938 361.669921875 c 256,162,163
 386.637695312 382.534179688 386.637695312 382.534179688 380.014648438 402.909179688 c 2,164,-1
 378.724609375 406.90625 l 1,0,-1
EndSplineSet
EndChar

StartChar: plus
Encoding: 43 43 14
Width: 550
VWidth: 1177
Flags: W
LayerCount: 2
Fore
SplineSet
102.137695312 379 m 1,0,-1
 279.24609375 379 l 1,1,-1
 326.411132812 576.325195312 l 1,2,-1
 328.24609375 584 l 1,3,-1
 336.137695312 584 l 1,4,-1
 460.137695312 584 l 1,5,-1
 472.75 584 l 1,6,-1
 469.875 571.719726562 l 1,7,-1
 424.75 379 l 1,8,-1
 597.137695312 379 l 1,9,-1
 609.8671875 379 l 1,10,-1
 606.853515625 366.631835938 l 1,11,-1
 577.852539062 247.631835938 l 1,12,-1
 575.993164062 240 l 1,13,-1
 568.137695312 240 l 1,14,-1
 391.029296875 240 l 1,15,-1
 343.864257812 42.6748046875 l 1,16,-1
 342.029296875 35 l 1,17,-1
 334.137695312 35 l 1,18,-1
 210.137695312 35 l 1,19,-1
 197.525390625 35 l 1,20,-1
 200.400390625 47.2802734375 l 1,21,-1
 245.525390625 240 l 1,22,-1
 73.1376953125 240 l 1,23,-1
 60.408203125 240 l 1,24,-1
 63.421875 252.368164062 l 1,25,-1
 92.421875 371.368164062 l 1,26,-1
 94.2822265625 379 l 1,27,-1
 102.137695312 379 l 1,0,-1
EndSplineSet
EndChar

StartChar: comma
Encoding: 44 44 15
Width: 550
VWidth: 1177
Flags: W
LayerCount: 2
Fore
SplineSet
97.158203125 -75.0078125 m 2,0,1
 121.252929688 -74.0439453125 121.252929688 -74.0439453125 144.8671875 -68.7431640625 c 0,2,3
 150.750976562 -67.421875 150.750976562 -67.421875 156.477539062 -65.8330078125 c 256,4,5
 162.204101562 -64.244140625 162.204101562 -64.244140625 167.772460938 -62.388671875 c 256,6,7
 173.340820312 -60.5322265625 173.340820312 -60.5322265625 178.75 -58.41015625 c 256,8,9
 184.16015625 -56.287109375 184.16015625 -56.287109375 189.419921875 -53.896484375 c 0,10,11
 199.879882812 -49.1416015625 199.879882812 -49.1416015625 208.836914062 -43.720703125 c 256,12,13
 217.791992188 -38.30078125 217.791992188 -38.30078125 225.251953125 -32.2392578125 c 0,14,15
 227.442382812 -30.4599609375 227.442382812 -30.4599609375 229.477539062 -28.486328125 c 256,16,17
 231.512695312 -26.5126953125 231.512695312 -26.5126953125 233.258789062 -24.4970703125 c 256,18,19
 235.004882812 -22.48046875 235.004882812 -22.48046875 236.495117188 -20.458984375 c 256,20,21
 237.984375 -18.4365234375 237.984375 -18.4365234375 239.233398438 -16.3974609375 c 1,22,23
 223.930664062 -12.51171875 223.930664062 -12.51171875 211.961914062 -5.6376953125 c 256,24,25
 199.993164062 1.2353515625 199.993164062 1.2353515625 190.247070312 11.6767578125 c 0,26,27
 166.55859375 37.05859375 166.55859375 37.05859375 166.55859375 79 c 0,28,29
 166.55859375 92.5947265625 166.55859375 92.5947265625 168.80859375 105.178710938 c 256,30,31
 171.05859375 117.762695312 171.05859375 117.762695312 175.53515625 129.245117188 c 256,32,33
 180.010742188 140.728515625 180.010742188 140.728515625 186.75390625 151.086914062 c 256,34,35
 193.498046875 161.446289062 193.498046875 161.446289062 202.434570312 170.517578125 c 0,36,37
 220.28515625 188.638671875 220.28515625 188.638671875 242.756835938 197.819335938 c 256,38,39
 265.229492188 207 265.229492188 207 291.55859375 207 c 0,40,41
 316.37890625 207 316.37890625 207 335.80859375 199.115234375 c 256,42,43
 355.239257812 191.23046875 355.239257812 191.23046875 368.286132812 175.34765625 c 0,44,45
 380.842773438 160.061523438 380.842773438 160.061523438 387.200195312 142.09375 c 256,46,47
 393.55859375 124.125976562 393.55859375 124.125976562 393.55859375 104 c 0,48,49
 393.55859375 50.345703125 393.55859375 50.345703125 376.525390625 0.279296875 c 0,50,51
 359.380859375 -50.1171875 359.380859375 -50.1171875 324.053710938 -90.119140625 c 256,52,53
 288.728515625 -130.120117188 288.728515625 -130.120117188 234.427734375 -156.495117188 c 0,54,55
 207.227539062 -169.70703125 207.227539062 -169.70703125 175.424804688 -177.560546875 c 256,56,57
 143.622070312 -185.415039062 143.622070312 -185.415039062 107.260742188 -187.975585938 c 2,58,-1
 97.54296875 -188.659179688 l 1,59,-1
 96.60546875 -178.962890625 l 1,60,-1
 87.60546875 -85.962890625 l 1,61,-1
 86.5859375 -75.4306640625 l 1,62,-1
 97.158203125 -75.0078125 l 2,0,1
EndSplineSet
EndChar

StartChar: hyphen
Encoding: 45 45 16
Width: 550
VWidth: 1177
Flags: W
LayerCount: 2
Fore
SplineSet
136.69921875 383 m 1,0,-1
 553.69921875 383 l 1,1,-1
 566.55078125 383 l 1,2,-1
 563.392578125 370.54296875 l 1,3,-1
 527.392578125 228.54296875 l 1,4,-1
 525.48046875 221 l 1,5,-1
 517.69921875 221 l 1,6,-1
 102.69921875 221 l 1,7,-1
 90.021484375 221 l 1,8,-1
 92.974609375 233.328125 l 1,9,-1
 126.973632812 375.328125 l 1,10,-1
 128.811523438 383 l 1,11,-1
 136.69921875 383 l 1,0,-1
EndSplineSet
Substitution2: "'case' Case-Sensitive Forms lookup 17 subtable" Hyphen
EndChar

StartChar: period
Encoding: 46 46 17
Width: 550
VWidth: 1177
Flags: W
LayerCount: 2
Fore
SplineSet
287.116210938 207 m 0,0,1
 298.122070312 207 298.122070312 207 308.288085938 205.38671875 c 256,2,3
 318.454101562 203.7734375 318.454101562 203.7734375 327.762695312 200.546875 c 256,4,5
 337.072265625 197.319335938 337.072265625 197.319335938 345.482421875 192.413085938 c 256,6,7
 353.893554688 187.506835938 353.893554688 187.506835938 361.250976562 180.981445312 c 0,8,9
 367.302734375 175.615234375 367.302734375 175.615234375 372.14453125 169.189453125 c 256,10,11
 376.987304688 162.762695312 376.987304688 162.762695312 380.533203125 155.481445312 c 256,12,13
 384.079101562 148.200195312 384.079101562 148.200195312 386.443359375 139.969726562 c 256,14,15
 388.80859375 131.740234375 388.80859375 131.740234375 389.962890625 122.772460938 c 256,16,17
 391.116210938 113.805664062 391.116210938 113.805664062 391.116210938 104 c 0,18,19
 391.116210938 75.93359375 391.116210938 75.93359375 380.796875 52.03515625 c 0,20,21
 375.682617188 40.1923828125 375.682617188 40.1923828125 368.870117188 30.1103515625 c 256,22,23
 362.057617188 20.02734375 362.057617188 20.02734375 353.5703125 11.814453125 c 0,24,25
 336.747070312 -4.4658203125 336.747070312 -4.4658203125 314.055664062 -14.19140625 c 256,26,27
 291.168945312 -24 291.168945312 -24 268.116210938 -24 c 0,28,29
 246.010742188 -24 246.010742188 -24 227.334960938 -17.4990234375 c 256,30,31
 208.658203125 -10.9970703125 208.658203125 -10.9970703125 193.981445312 2.0185546875 c 0,32,33
 178.9296875 15.3662109375 178.9296875 15.3662109375 171.522460938 35.0712890625 c 256,34,35
 164.116210938 54.7763671875 164.116210938 54.7763671875 164.116210938 80 c 0,36,37
 164.116210938 108.15625 164.116210938 108.15625 174.504882812 131.122070312 c 0,38,39
 184.790039062 153.857421875 184.790039062 153.857421875 202.158203125 170.682617188 c 256,40,41
 219.450195312 187.43359375 219.450195312 187.43359375 241.596679688 197.15625 c 0,42,43
 252.7421875 202.049804688 252.7421875 202.049804688 264.15625 204.525390625 c 256,44,45
 275.568359375 207 275.568359375 207 287.116210938 207 c 0,0,1
EndSplineSet
EndChar

StartChar: slash
Encoding: 47 47 18
Width: 550
VWidth: 1177
Flags: W
LayerCount: 2
Fore
SplineSet
131.592773438 -204 m 1,0,-1
 -20.4072265625 -204 l 1,1,-1
 -37.0966796875 -204 l 1,2,-1
 -29.224609375 -189.283203125 l 1,3,-1
 514.775390625 827.716796875 l 1,4,-1
 517.6015625 833 l 1,5,-1
 523.592773438 833 l 1,6,-1
 675.592773438 833 l 1,7,-1
 692.283203125 833 l 1,8,-1
 684.411132812 818.283203125 l 1,9,-1
 140.411132812 -198.716796875 l 1,10,-1
 137.584960938 -204 l 1,11,-1
 131.592773438 -204 l 1,0,-1
EndSplineSet
Substitution2: "'case' Case-Sensitive Forms lookup 17 subtable" Slash
Substitution2: "'ss02' Style Set 2 lookup 14 subtable" fraction
Substitution2: "'frac' Diagonal Fractions lookup 12 subtable" fraction
EndChar

StartChar: zero
Encoding: 48 48 19
Width: 550
VWidth: 1177
Flags: W
LayerCount: 2
Fore
SplineSet
368.934570312 739.112304688 m 128,-1,1
 401.754882812 746 401.754882812 746 438.443359375 746 c 0,2,3
 542.53125 746 542.53125 746 598.5234375 682.70703125 c 0,4,5
 653.948242188 620.0546875 653.948242188 620.0546875 653.948242188 515.123046875 c 0,6,7
 653.948242188 499.952148438 653.948242188 499.952148438 653.159179688 483.546875 c 128,-1,8
 652.37109375 467.141601562 652.37109375 467.141601562 650.80078125 449.552734375 c 128,-1,9
 649.229492188 431.96484375 649.229492188 431.96484375 646.875 413.120117188 c 0,10,11
 646.165039062 407.442382812 646.165039062 407.442382812 645.359375 401.745117188 c 128,-1,12
 644.553710938 396.047851562 644.553710938 396.047851562 643.65234375 390.333007812 c 128,-1,13
 642.75 384.618164062 642.75 384.618164062 641.752929688 378.884765625 c 128,-1,14
 640.754882812 373.151367188 640.754882812 373.151367188 639.661132812 367.399414062 c 128,-1,15
 638.567382812 361.647460938 638.567382812 361.647460938 637.376953125 355.876953125 c 128,-1,16
 636.1875 350.107421875 636.1875 350.107421875 634.90234375 344.318359375 c 128,-1,17
 633.616210938 338.529296875 633.616210938 338.529296875 632.235351562 332.72265625 c 128,-1,18
 630.853515625 326.916015625 630.853515625 326.916015625 629.375976562 321.090820312 c 128,-1,19
 627.899414062 315.265625 627.899414062 315.265625 626.326171875 309.421875 c 128,-1,20
 624.752929688 303.579101562 624.752929688 303.579101562 623.084960938 297.716796875 c 0,21,22
 606.359375 238.963867188 606.359375 238.963867188 579.501953125 183.180664062 c 0,23,24
 552.416992188 126.924804688 552.416992188 126.924804688 512.267578125 83.0458984375 c 0,25,26
 469.809570312 38.640625 469.809570312 38.640625 413.549804688 12.0556640625 c 0,27,28
 384.793945312 -1.3974609375 384.793945312 -1.3974609375 352.236328125 -8.109375 c 128,-1,29
 319.678710938 -15 319.678710938 -15 283.513671875 -15 c 0,30,31
 231.506835938 -15 231.506835938 -15 190.276367188 -1.025390625 c 0,32,33
 150.884765625 13.0732421875 150.884765625 13.0732421875 123.337890625 40.8173828125 c 0,34,35
 109.711914062 54.541015625 109.711914062 54.541015625 99.2421875 70.609375 c 128,-1,36
 88.7724609375 86.6767578125 88.7724609375 86.6767578125 81.484375 105 c 0,37,38
 74.1923828125 126.34765625 74.1923828125 126.34765625 70.5703125 150.401367188 c 128,-1,39
 66.9482421875 174.454101562 66.9482421875 174.454101562 66.9482421875 201.196289062 c 0,40,41
 66.9482421875 207.037109375 66.9482421875 207.037109375 67.0595703125 213.055664062 c 128,-1,42
 67.169921875 219.07421875 67.169921875 219.07421875 67.3916015625 225.264648438 c 128,-1,43
 67.61328125 231.455078125 67.61328125 231.455078125 67.9453125 237.821289062 c 128,-1,44
 68.27734375 244.186523438 68.27734375 244.186523438 68.720703125 250.728515625 c 128,-1,45
 69.1630859375 257.270507812 69.1630859375 257.270507812 69.7158203125 263.985351562 c 128,-1,46
 70.2685546875 270.700195312 70.2685546875 270.700195312 70.931640625 277.594726562 c 128,-1,47
 71.5947265625 284.48828125 71.5947265625 284.48828125 72.3662109375 291.553710938 c 128,-1,48
 73.138671875 298.619140625 73.138671875 298.619140625 74.021484375 305.866210938 c 0,49,50
 77.568359375 334.98828125 77.568359375 334.98828125 83.5166015625 364.59375 c 128,-1,51
 89.4658203125 394.200195312 89.4658203125 394.200195312 97.8115234375 424.287109375 c 0,52,53
 114.537109375 484.577148438 114.537109375 484.577148438 141.39453125 541.818359375 c 0,54,55
 154.91796875 570.640625 154.91796875 570.640625 171.407226562 596.452148438 c 128,-1,56
 187.956054688 622.263671875 187.956054688 622.263671875 208.591796875 645.028320312 c 0,57,58
 250.286132812 691.024414062 250.286132812 691.024414062 307.346679688 718.416992188 c 0,59,0
 336.114257812 732.227539062 336.114257812 732.227539062 368.934570312 739.112304688 c 128,-1,1
240.330078125 152.147460938 m 0,60,61
 255.895507812 126 255.895507812 126 297.309570312 126 c 0,62,63
 328.947265625 126 328.947265625 126 355.37109375 142.948242188 c 0,64,65
 359.295898438 145.465820312 359.295898438 145.465820312 363.123046875 148.224609375 c 128,-1,66
 366.94921875 150.984375 366.94921875 150.984375 370.6953125 154.000976562 c 128,-1,67
 374.440429688 157.017578125 374.440429688 157.017578125 378.087890625 160.278320312 c 128,-1,68
 381.734375 163.540039062 381.734375 163.540039062 385.298828125 167.063476562 c 128,-1,69
 388.865234375 170.586914062 388.865234375 170.586914062 392.331054688 174.358398438 c 128,-1,70
 395.796875 178.129882812 395.796875 178.129882812 399.178710938 182.166992188 c 128,-1,71
 402.560546875 186.205078125 402.560546875 186.205078125 405.842773438 190.493164062 c 0,72,73
 429.029296875 220.788085938 429.029296875 220.788085938 446.092773438 259.604492188 c 0,74,75
 463.32421875 298.806640625 463.32421875 298.806640625 474.8203125 341.819335938 c 128,-1,76
 486.350585938 384.958984375 486.350585938 384.958984375 492.112304688 427.126953125 c 128,-1,77
 497.869140625 469.25390625 497.869140625 469.25390625 497.869140625 505.13671875 c 0,78,79
 497.869140625 516.192382812 497.869140625 516.192382812 496.791992188 526.3125 c 128,-1,80
 495.71484375 536.432617188 495.71484375 536.432617188 493.583007812 545.515625 c 128,-1,81
 491.451171875 554.598632812 491.451171875 554.598632812 488.319335938 562.688476562 c 128,-1,82
 485.1875 570.778320312 485.1875 570.778320312 481.037109375 577.955078125 c 0,83,84
 476.000976562 586.665039062 476.000976562 586.665039062 468.477539062 592.36328125 c 128,-1,85
 460.953125 598.0625 460.953125 598.0625 450.02734375 601.03125 c 128,-1,86
 439.099609375 604 439.099609375 604 424.6484375 604 c 0,87,88
 392.9609375 604 392.9609375 604 365.981445312 587.004882812 c 0,89,90
 351.936523438 578.157226562 351.936523438 578.157226562 339.1953125 566.404296875 c 128,-1,91
 326.455078125 554.651367188 326.455078125 554.651367188 315.009765625 539.928710938 c 0,92,93
 291.876953125 510.170898438 291.876953125 510.170898438 274.8359375 470.467773438 c 0,94,95
 257.577148438 430.259765625 257.577148438 430.259765625 246.069335938 387.676757812 c 128,-1,96
 234.543945312 345.029296875 234.543945312 345.029296875 228.784179688 302.873046875 c 128,-1,97
 223.028320312 260.74609375 223.028320312 260.74609375 223.028320312 224.86328125 c 0,98,99
 223.028320312 181.2109375 223.028320312 181.2109375 240.330078125 152.147460938 c 0,60,61
367.049804688 290.903320312 m 128,-1,101
 359.126953125 289 359.126953125 289 351.427734375 289 c 0,102,103
 315.82421875 289 315.82421875 289 298.327148438 307.932617188 c 0,104,105
 281.391601562 326.255859375 281.391601562 326.255859375 281.391601562 352 c 0,106,107
 281.392578125 380.084960938 281.392578125 380.084960938 291.294921875 401.49609375 c 0,108,109
 293.211914062 405.638671875 293.211914062 405.638671875 295.266601562 409.51171875 c 128,-1,110
 297.3203125 413.385742188 297.3203125 413.385742188 299.544921875 417.038085938 c 128,-1,111
 301.768554688 420.690429688 301.768554688 420.690429688 304.13671875 424.072265625 c 128,-1,112
 306.504882812 427.453125 306.504882812 427.453125 309.052734375 430.6015625 c 128,-1,113
 311.599609375 433.75 311.599609375 433.75 314.297851562 436.625976562 c 0,114,115
 328.01953125 451.2421875 328.01953125 451.2421875 345.495117188 458.625 c 128,-1,116
 362.954101562 466 362.954101562 466 376.896484375 466 c 0,117,118
 388.275390625 466 388.275390625 466 397.884765625 463.971679688 c 128,-1,119
 407.49609375 461.944335938 407.49609375 461.944335938 415.688476562 457.5 c 128,-1,120
 423.880859375 453.056640625 423.880859375 453.056640625 429.701171875 446.305664062 c 0,121,122
 433.71875 441.645507812 433.71875 441.645507812 436.762695312 436.469726562 c 128,-1,123
 439.805664062 431.293945312 439.805664062 431.293945312 441.821289062 425.725585938 c 128,-1,124
 443.838867188 420.157226562 443.838867188 420.157226562 444.85546875 414.208984375 c 128,-1,125
 445.87109375 408.259765625 445.87109375 408.259765625 445.87109375 402 c 0,126,127
 445.872070312 373.915039062 445.872070312 373.915039062 435.967773438 352.50390625 c 0,128,129
 431.138671875 342.064453125 431.138671875 342.064453125 425.372070312 333.368164062 c 128,-1,130
 419.603515625 324.671875 419.603515625 324.671875 412.826171875 317.729492188 c 0,131,132
 410.592773438 315.442382812 410.592773438 315.442382812 408.28515625 313.328125 c 128,-1,133
 405.975585938 311.21484375 405.975585938 311.21484375 403.578125 309.264648438 c 128,-1,134
 401.180664062 307.313476562 401.180664062 307.313476562 398.700195312 305.5390625 c 128,-1,135
 396.220703125 303.763671875 396.220703125 303.763671875 393.663085938 302.165039062 c 128,-1,136
 391.10546875 300.56640625 391.10546875 300.56640625 388.45703125 299.14453125 c 128,-1,137
 385.807617188 297.72265625 385.807617188 297.72265625 383.090820312 296.490234375 c 0,138,100
 374.973632812 292.806640625 374.973632812 292.806640625 367.049804688 290.903320312 c 128,-1,101
EndSplineSet
Substitution2: "'ss02' Style Set 2 lookup 15 subtable" zerosuperior
Substitution2: "'sinf' Scientific Inferiors lookup 11 subtable" zero.sinf
Substitution2: "'subs' Subscript lookup 10 subtable" zero.sinf
Substitution2: "'sups' Superscript lookup 9 subtable" zero.sups
Substitution2: "'dnom' Denominators lookup 8 subtable" zeroinferior
Substitution2: "'numr' Numerators lookup 6 subtable" zerosuperior
EndChar

StartChar: one
Encoding: 49 49 20
Width: 550
VWidth: 1177
Flags: W
LayerCount: 2
Fore
SplineSet
91.677734375 120 m 1,0,-1
 241.9609375 120 l 1,1,-1
 342.528320312 510.0078125 l 1,2,3
 308.388671875 490.329101562 308.388671875 490.329101562 271.356445312 473.516601562 c 0,4,5
 254.6875 465.950195312 254.6875 465.950195312 239.986328125 459.684570312 c 128,-1,6
 225.283203125 453.419921875 225.283203125 453.419921875 212.379882812 448.392578125 c 128,-1,7
 199.475585938 443.364257812 199.475585938 443.364257812 188.448242188 439.611328125 c 2,8,-1
 177.672851562 435.944335938 l 1,9,-1
 174.409179688 446.15625 l 1,10,-1
 139.090820312 564.15625 l 1,11,-1
 136.366210938 573.341796875 l 1,12,-1
 145.427734375 576.45703125 l 2,13,14
 177.501953125 587.295898438 177.501953125 587.295898438 215.803710938 603.590820312 c 128,-1,15
 254.241210938 619.94140625 254.241210938 619.94140625 293.227539062 639.76953125 c 128,-1,16
 332.158203125 659.569335938 332.158203125 659.569335938 368.416015625 681.838867188 c 0,17,18
 380.459960938 689.237304688 380.459960938 689.237304688 391.673828125 696.6875 c 128,-1,19
 402.885742188 704.13671875 402.885742188 704.13671875 413.235351562 711.61328125 c 128,-1,20
 423.583007812 719.08984375 423.583007812 719.08984375 433.096679688 726.612304688 c 2,21,-1
 436.116210938 729 l 1,22,-1
 440.083007812 729 l 1,23,-1
 555.677734375 729 l 1,24,-1
 568.359375 729 l 1,25,-1
 565.40234375 716.668945312 l 1,26,-1
 420.346679688 120 l 1,27,-1
 554.677734375 120 l 1,28,-1
 567.3828125 120 l 1,29,-1
 564.3984375 109.516601562 l 1,30,-1
 535.3984375 7.6513671875 l 1,31,-1
 533.549804688 0 l 1,32,-1
 525.677734375 0 l 1,33,-1
 62.677734375 0 l 1,34,-1
 49.9736328125 0 l 1,35,-1
 52.9580078125 10.5849609375 l 1,36,-1
 81.9580078125 113.442382812 l 1,37,-1
 83.806640625 120 l 1,38,-1
 91.677734375 120 l 1,0,-1
EndSplineSet
Substitution2: "'ss02' Style Set 2 lookup 15 subtable" onesuperior
Substitution2: "'sinf' Scientific Inferiors lookup 11 subtable" one.sinf
Substitution2: "'subs' Subscript lookup 10 subtable" one.sinf
Substitution2: "'sups' Superscript lookup 9 subtable" one.sups
Substitution2: "'dnom' Denominators lookup 8 subtable" oneinferior
Substitution2: "'numr' Numerators lookup 6 subtable" onesuperior
EndChar

StartChar: two
Encoding: 50 50 21
Width: 550
VWidth: 1177
Flags: W
LayerCount: 2
Fore
SplineSet
295.133789062 723.487304688 m 128,-1,1
 366.444335938 746 366.444335938 746 435.731445312 746 c 0,2,3
 487.311523438 746 487.311523438 746 527.55859375 731.336914062 c 0,4,5
 540.268554688 726.461914062 540.268554688 726.461914062 551.685546875 720.462890625 c 128,-1,6
 563.102539062 714.463867188 563.102539062 714.463867188 573.293945312 707.28125 c 128,-1,7
 583.485351562 700.09765625 583.485351562 700.09765625 592.327148438 691.786132812 c 0,8,9
 605.571289062 679.3359375 605.571289062 679.3359375 615.57421875 664.932617188 c 128,-1,10
 625.576171875 650.529296875 625.576171875 650.529296875 632.23046875 634.291992188 c 128,-1,11
 638.854492188 618.130859375 638.854492188 618.130859375 642.166015625 600.77734375 c 128,-1,12
 645.477539062 583.424804688 645.477539062 583.424804688 645.477539062 565 c 0,13,14
 645.477539062 510.764648438 645.477539062 510.764648438 624.526367188 466.2421875 c 0,15,16
 614.220703125 444.342773438 614.220703125 444.342773438 600.818359375 424.110351562 c 128,-1,17
 587.416015625 403.87890625 587.416015625 403.87890625 570.952148438 385.356445312 c 0,18,19
 538.263671875 348.583007812 538.263671875 348.583007812 493.2265625 316.465820312 c 0,20,21
 448.270507812 284.907226562 448.270507812 284.907226562 400.616210938 252.811523438 c 0,22,23
 364.870117188 229.412109375 364.870117188 229.412109375 336.7421875 209.091796875 c 128,-1,24
 308.615234375 188.771484375 308.615234375 188.771484375 288.053710938 171.515625 c 0,25,26
 277.702148438 162.828125 277.702148438 162.828125 268.483398438 154.000976562 c 128,-1,27
 259.264648438 145.173828125 259.264648438 145.173828125 251.62890625 136.71484375 c 128,-1,28
 243.9921875 128.254882812 243.9921875 128.254882812 237.713867188 120 c 1,29,-1
 559.477539062 120 l 1,30,-1
 572.080078125 120 l 1,31,-1
 569.215820312 109.583007812 l 1,32,-1
 541.215820312 7.7275390625 l 1,33,-1
 539.413085938 0 l 1,34,-1
 531.477539062 0 l 1,35,-1
 38.4775390625 0 l 1,36,-1
 27.28515625 0 l 1,37,-1
 28.541015625 10.7626953125 l 2,38,39
 35.7060546875 72.1796875 35.7060546875 72.1796875 57.2861328125 120.909179688 c 128,-1,40
 78.8056640625 169.500976562 78.8056640625 169.500976562 111.12109375 209.212890625 c 0,41,42
 143.251953125 248.697265625 143.251953125 248.697265625 187.666015625 283.204101562 c 0,43,44
 231.807617188 317.326171875 231.807617188 317.326171875 283.858398438 351.40234375 c 0,45,46
 337.568359375 387.118164062 337.568359375 387.118164062 375.474609375 413.658203125 c 0,47,48
 394.180664062 426.754882812 394.180664062 426.754882812 409.20703125 438.747070312 c 128,-1,49
 424.233398438 450.73828125 424.233398438 450.73828125 435.4921875 461.528320312 c 0,50,51
 457.689453125 482.797851562 457.689453125 482.797851562 468.612304688 501.91015625 c 0,52,53
 479.020507812 520.123046875 479.020507812 520.123046875 479.021484375 540.967773438 c 0,54,55
 479.020507812 568 479.020507812 568 461.956054688 584.052734375 c 128,-1,56
 445.00390625 600 445.00390625 600 404.055664062 600 c 0,57,58
 382.973632812 600 382.973632812 600 360.596679688 595.5703125 c 128,-1,59
 338.221679688 591.139648438 338.221679688 591.139648438 314.518554688 582.208007812 c 128,-1,60
 290.66796875 573.220703125 290.66796875 573.220703125 267.131835938 560.431640625 c 128,-1,61
 243.596679688 547.641601562 243.596679688 547.641601562 220.370117188 531.021484375 c 2,62,-1
 209.788085938 523.448242188 l 1,63,-1
 204.370117188 534.9140625 l 1,64,-1
 154.745117188 639.9140625 l 1,65,-1
 151.379882812 647.034179688 l 1,66,-1
 157.852539062 651.858398438 l 2,67,0
 223.704101562 700.935546875 223.704101562 700.935546875 295.133789062 723.487304688 c 128,-1,1
EndSplineSet
Substitution2: "'ss02' Style Set 2 lookup 15 subtable" twosuperior
Substitution2: "'sinf' Scientific Inferiors lookup 11 subtable" two.sinf
Substitution2: "'subs' Subscript lookup 10 subtable" two.sinf
Substitution2: "'sups' Superscript lookup 9 subtable" two.sups
Substitution2: "'dnom' Denominators lookup 8 subtable" twoinferior
Substitution2: "'numr' Numerators lookup 6 subtable" twosuperior
EndChar

StartChar: three
Encoding: 51 51 22
Width: 550
VWidth: 1177
Flags: W
LayerCount: 2
Fore
SplineSet
595.2890625 458.99609375 m 0,0,1
 560.563476562 413.150390625 560.563476562 413.150390625 490.48828125 382.581054688 c 1,2,3
 534.252929688 358.755859375 534.252929688 358.755859375 556.716796875 323.826171875 c 0,4,5
 584.2421875 281.025390625 584.2421875 281.025390625 584.2421875 229.517578125 c 0,6,7
 584.2421875 207.18359375 584.2421875 207.18359375 579.939453125 185.209960938 c 128,-1,8
 575.63671875 163.237304688 575.63671875 163.237304688 567.064453125 141.725585938 c 0,9,10
 562.721679688 130.830078125 562.721679688 130.830078125 556.994140625 120.412109375 c 128,-1,11
 551.267578125 109.994140625 551.267578125 109.994140625 544.190429688 100.106445312 c 128,-1,12
 537.11328125 90.2177734375 537.11328125 90.2177734375 528.708984375 80.8515625 c 128,-1,13
 520.303710938 71.486328125 520.303710938 71.486328125 510.307617188 62.630859375 c 0,14,15
 469.092773438 27.12109375 469.092773438 27.12109375 402.59765625 5.98828125 c 0,16,17
 336.556640625 -15 336.556640625 -15 242.982421875 -15 c 0,18,19
 222.220703125 -15 222.220703125 -15 202.161132812 -13.69921875 c 128,-1,20
 182.1015625 -12.3984375 182.1015625 -12.3984375 162.706054688 -9.7890625 c 128,-1,21
 143.30859375 -7.1796875 143.30859375 -7.1796875 125.083007812 -3.263671875 c 0,22,23
 71.6767578125 8.546875 71.6767578125 8.546875 21.416015625 36.2412109375 c 2,24,-1
 13.388671875 40.6650390625 l 1,25,-1
 17.09765625 49.0458984375 l 1,26,-1
 67.09765625 162.045898438 l 1,27,-1
 71.69921875 172.446289062 l 1,28,-1
 81.4248046875 166.551757812 l 2,29,30
 113.3046875 147.231445312 113.3046875 147.231445312 157.825195312 134.598632812 c 0,31,32
 203.336914062 122 203.336914062 122 251.424804688 122 c 0,33,34
 285.099609375 122 285.099609375 122 315.107421875 127.95703125 c 0,35,36
 322.440429688 129.413085938 322.440429688 129.413085938 329.305664062 131.361328125 c 128,-1,37
 336.169921875 133.309570312 336.169921875 133.309570312 342.555664062 135.74609375 c 128,-1,38
 348.94140625 138.182617188 348.94140625 138.182617188 354.859375 141.096679688 c 128,-1,39
 360.774414062 144.009765625 360.774414062 144.009765625 366.266601562 147.41796875 c 0,40,41
 373.5 151.907226562 373.5 151.907226562 379.735351562 157.280273438 c 128,-1,42
 385.970703125 162.65234375 385.970703125 162.65234375 391.276367188 168.98046875 c 128,-1,43
 396.579101562 175.307617188 396.579101562 175.307617188 400.958007812 182.611328125 c 0,44,45
 413.936523438 204.264648438 413.936523438 204.264648438 413.936523438 236.088867188 c 0,46,47
 413.935546875 276.377929688 413.935546875 276.377929688 379.9609375 294.9921875 c 0,48,49
 343.442382812 315 343.442382812 315 276.750976562 315 c 2,50,-1
 226.09765625 315 l 1,51,-1
 212.524414062 315 l 1,52,-1
 215.87109375 327.465820312 l 1,53,-1
 246.474609375 441.465820312 l 1,54,-1
 248.497070312 449 l 1,55,-1
 256.701171875 449 l 1,56,-1
 320.017578125 449 l 2,57,58
 344.259765625 449 344.259765625 449 371.163085938 453.9765625 c 0,59,60
 384.322265625 456.41015625 384.322265625 456.41015625 396.5625 460.59765625 c 128,-1,61
 408.802734375 464.78515625 408.802734375 464.78515625 420.202148438 470.748046875 c 0,62,63
 431.331054688 476.569335938 431.331054688 476.569335938 440.319335938 484.151367188 c 128,-1,64
 449.3046875 491.734375 449.3046875 491.734375 456.305664062 501.19921875 c 0,65,66
 460.76171875 507.225585938 460.76171875 507.225585938 463.75390625 514.276367188 c 128,-1,67
 466.745117188 521.327148438 466.745117188 521.327148438 468.305664062 529.7421875 c 128,-1,68
 469.865234375 538.157226562 469.865234375 538.157226562 469.865234375 547.75 c 0,69,70
 469.865234375 575.837890625 469.865234375 575.837890625 446.303710938 590.892578125 c 0,71,72
 421.095703125 607 421.095703125 607 381.22265625 607 c 0,73,74
 365.76171875 607 365.76171875 607 348.448242188 604.24609375 c 128,-1,75
 331.13671875 601.491210938 331.13671875 601.491210938 312.030273438 595.939453125 c 128,-1,76
 292.793945312 590.349609375 292.793945312 590.349609375 273.37890625 582.4296875 c 128,-1,77
 253.963867188 574.509765625 253.963867188 574.509765625 234.368164062 564.248046875 c 2,78,-1
 223.327148438 558.465820312 l 1,79,-1
 219.271484375 569.784179688 l 1,80,-1
 181.28125 675.784179688 l 1,81,-1
 178.393554688 683.84375 l 1,82,-1
 186.327148438 687.833007812 l 2,83,84
 239.033203125 714.334960938 239.033203125 714.334960938 298.159179688 730.125 c 0,85,86
 327.819335938 738.045898438 327.819335938 738.045898438 355.436523438 742.0234375 c 128,-1,87
 383.053710938 746 383.053710938 746 408.66015625 746 c 0,88,89
 418.192382812 746 418.192382812 746 427.471679688 745.588867188 c 128,-1,90
 436.750976562 745.178710938 436.750976562 745.178710938 445.802734375 744.353515625 c 128,-1,91
 454.853515625 743.529296875 454.853515625 743.529296875 463.649414062 742.291015625 c 128,-1,92
 472.4453125 741.053710938 472.4453125 741.053710938 481.008789062 739.397460938 c 128,-1,93
 489.571289062 737.78515625 489.571289062 737.78515625 497.877929688 735.766601562 c 0,94,95
 538.479492188 725.591796875 538.479492188 725.591796875 568.918945312 705.140625 c 0,96,97
 584.354492188 694.770507812 584.354492188 694.770507812 596.545898438 681.588867188 c 128,-1,98
 608.737304688 668.407226562 608.737304688 668.407226562 617.537109375 652.560546875 c 128,-1,99
 626.420898438 636.563476562 626.420898438 636.563476562 630.83203125 617.9453125 c 128,-1,100
 635.2421875 599.327148438 635.2421875 599.327148438 635.2421875 578.271484375 c 0,101,102
 635.2421875 511.745117188 635.2421875 511.745117188 595.2890625 458.99609375 c 0,0,1
EndSplineSet
Substitution2: "'ss02' Style Set 2 lookup 15 subtable" threesuperior
Substitution2: "'sinf' Scientific Inferiors lookup 11 subtable" three.sinf
Substitution2: "'subs' Subscript lookup 10 subtable" three.sinf
Substitution2: "'sups' Superscript lookup 9 subtable" three.sups
Substitution2: "'dnom' Denominators lookup 8 subtable" threeinferior
Substitution2: "'numr' Numerators lookup 6 subtable" threesuperior
EndChar

StartChar: four
Encoding: 52 52 23
Width: 550
VWidth: 1177
Flags: W
LayerCount: 2
Fore
SplineSet
400.642578125 297 m 1,0,-1
 462.067382812 539.830078125 l 1,1,2
 432.881835938 513.404296875 432.881835938 513.404296875 404.055664062 485.646484375 c 128,-1,3
 375.228515625 457.888671875 375.228515625 457.888671875 345.051757812 427.176757812 c 0,4,5
 280.043945312 361.013671875 280.043945312 361.013671875 226.391601562 297 c 1,6,-1
 400.642578125 297 l 1,0,-1
671.775390625 729 m 1,7,-1
 668.817382812 716.947265625 l 1,8,-1
 565.775390625 297 l 1,9,-1
 630.09375 297 l 1,10,-1
 642.8203125 297 l 1,11,-1
 639.809570312 284.634765625 l 1,12,-1
 611.809570312 169.634765625 l 1,13,-1
 609.951171875 162 l 1,14,-1
 602.09375 162 l 1,15,-1
 530.947265625 162 l 1,16,-1
 489.712890625 7.681640625 l 1,17,-1
 487.786132812 0 l 1,18,-1
 479.47265625 0 l 1,19,-1
 336.303710938 0 l 1,20,-1
 323.046875 0 l 1,21,-1
 326.049804688 11.5517578125 l 1,22,-1
 365.155273438 162 l 1,23,-1
 45.09375 162 l 1,24,-1
 32.400390625 162 l 1,25,-1
 35.37109375 174.125976562 l 1,26,-1
 61.37109375 280.24609375 l 1,27,-1
 61.8291015625 282.11328125 l 1,28,-1
 62.9677734375 283.673828125 l 2,29,30
 96.228515625 329.229492188 96.228515625 329.229492188 146.51953125 386.551757812 c 0,31,32
 172.606445312 415.133789062 172.606445312 415.133789062 200.84375 444.323242188 c 128,-1,33
 229.083007812 473.512695312 229.083007812 473.512695312 259.162109375 503.3125 c 0,34,35
 319.352539062 562.944335938 319.352539062 562.944335938 384.283203125 621.084960938 c 0,36,37
 416.75390625 650.161132812 416.75390625 650.161132812 447.78515625 676.537109375 c 128,-1,38
 478.81640625 702.913085938 478.81640625 702.913085938 508.4140625 726.592773438 c 2,39,-1
 511.37109375 729 l 1,40,-1
 515.265625 729 l 1,41,-1
 659.09375 729 l 1,42,-1
 671.775390625 729 l 1,7,-1
EndSplineSet
Substitution2: "'ss02' Style Set 2 lookup 15 subtable" foursuperior
Substitution2: "'sinf' Scientific Inferiors lookup 11 subtable" four.sinf
Substitution2: "'subs' Subscript lookup 10 subtable" four.sinf
Substitution2: "'sups' Superscript lookup 9 subtable" four.sups
Substitution2: "'dnom' Denominators lookup 8 subtable" fourinferior
Substitution2: "'numr' Numerators lookup 6 subtable" foursuperior
EndChar

StartChar: five
Encoding: 53 53 24
Width: 550
VWidth: 1177
Flags: W
LayerCount: 2
Fore
SplineSet
77.0849609375 155.543945312 m 1,0,-1
 86.7255859375 149.455078125 l 2,1,2
 98.990234375 141.708984375 98.990234375 141.708984375 111.555664062 135.373046875 c 128,-1,3
 124.120117188 129.036132812 124.120117188 129.036132812 137.094726562 124.114257812 c 0,4,5
 150.577148438 119.19140625 150.577148438 119.19140625 164.403320312 115.658203125 c 0,6,7
 206.107421875 105 206.107421875 105 245.665039062 105 c 0,8,9
 410.48046875 105 410.48046875 105 410.48046875 222 c 0,10,11
 410.48046875 227.787109375 410.48046875 227.787109375 409.625976562 233.234375 c 128,-1,12
 408.76953125 238.681640625 408.76953125 238.681640625 407.0234375 243.909179688 c 128,-1,13
 405.27734375 249.137695312 405.27734375 249.137695312 402.606445312 254.056640625 c 128,-1,14
 399.93359375 258.975585938 399.93359375 258.975585938 396.319335938 263.663085938 c 128,-1,15
 392.70703125 268.350585938 392.70703125 268.350585938 388.09375 272.764648438 c 128,-1,16
 383.481445312 277.177734375 383.481445312 277.177734375 377.875976562 281.34765625 c 128,-1,17
 372.271484375 285.517578125 372.271484375 285.517578125 365.594726562 289.448242188 c 128,-1,18
 358.91796875 293.377929688 358.91796875 293.377929688 351.198242188 297.055664062 c 0,19,20
 288.223632812 327.049804688 288.223632812 327.049804688 141.514648438 330.001953125 c 2,21,-1
 127.522460938 330.291015625 l 1,22,-1
 131.91796875 343.21875 l 2,23,24
 167.462890625 443.142578125 167.462890625 443.142578125 199.451171875 538.056640625 c 128,-1,25
 231.400390625 632.848632812 231.400390625 632.848632812 256.525390625 721.603515625 c 2,26,-1
 258.619140625 729 l 1,27,-1
 266.66015625 729 l 1,28,-1
 663.385742188 729 l 1,29,-1
 676.090820312 729 l 1,30,-1
 673.106445312 718.415039062 l 1,31,-1
 644.106445312 615.557617188 l 1,32,-1
 642.256835938 609 l 1,33,-1
 634.385742188 609 l 1,34,-1
 367.049804688 609 l 1,35,36
 362.971679688 594.896484375 362.971679688 594.896484375 359.088867188 581.901367188 c 128,-1,37
 355.205078125 568.905273438 355.205078125 568.905273438 351.34375 556.428710938 c 128,-1,38
 347.482421875 543.952148438 347.482421875 543.952148438 343.36328125 531.083984375 c 0,39,40
 333.059570312 498.888671875 333.059570312 498.888671875 323.458984375 474.59375 c 1,41,42
 354.421875 471.180664062 354.421875 471.180664062 380.721679688 465.314453125 c 128,-1,43
 407.020507812 459.448242188 407.020507812 459.448242188 430.072265625 450.8046875 c 0,44,45
 455.555664062 441.25 455.555664062 441.25 476.721679688 429.15234375 c 128,-1,46
 497.888671875 417.055664062 497.888671875 417.055664062 514.684570312 402.366210938 c 0,47,48
 548.377929688 372.90234375 548.377929688 372.90234375 565.090820312 334.409179688 c 0,49,50
 573.2265625 315.249023438 573.2265625 315.249023438 577.306640625 295.114257812 c 128,-1,51
 581.385742188 274.979492188 581.385742188 274.979492188 581.385742188 254 c 0,52,53
 581.385742188 131.55859375 581.385742188 131.55859375 497.302734375 58.0810546875 c 0,54,55
 454.624023438 21.3349609375 454.624023438 21.3349609375 392.400390625 3.1669921875 c 128,-1,56
 330.174804688 -15 330.174804688 -15 248.814453125 -15 c 0,57,58
 187.890625 -15 187.890625 -15 129.338867188 -4.9609375 c 0,59,60
 72.951171875 5.14453125 72.951171875 5.14453125 22.69921875 28 c 2,61,-1
 14.341796875 31.80078125 l 1,62,-1
 18.306640625 39.1630859375 l 1,63,-1
 72.306640625 145.190429688 l 1,64,-1
 77.0849609375 155.543945312 l 1,0,-1
EndSplineSet
Substitution2: "'ss02' Style Set 2 lookup 15 subtable" fivesuperior
Substitution2: "'sinf' Scientific Inferiors lookup 11 subtable" five.sinf
Substitution2: "'subs' Subscript lookup 10 subtable" five.sinf
Substitution2: "'sups' Superscript lookup 9 subtable" five.sups
Substitution2: "'dnom' Denominators lookup 8 subtable" fiveinferior
Substitution2: "'numr' Numerators lookup 6 subtable" fivesuperior
EndChar

StartChar: six
Encoding: 54 54 25
Width: 550
VWidth: 1177
Flags: W
LayerCount: 2
Fore
SplineSet
655.529296875 597 m 1,0,-1
 646.887695312 597 l 2,1,2
 616.724609375 597 616.724609375 597 587.444335938 595.166992188 c 128,-1,3
 558.165039062 593.333007812 558.165039062 593.333007812 528.291992188 589.66796875 c 0,4,5
 468.923828125 582.422851562 468.923828125 582.422851562 417.907226562 562.985351562 c 0,6,7
 367.345703125 543.720703125 367.345703125 543.720703125 326.96875 509.198242188 c 0,8,9
 295.809570312 481.740234375 295.809570312 481.740234375 273.408203125 441.030273438 c 1,10,11
 302.294921875 453.499023438 302.294921875 453.499023438 332.098632812 459.76171875 c 0,12,13
 354.024414062 464.370117188 354.024414062 464.370117188 373.196289062 466.684570312 c 128,-1,14
 392.370117188 469 392.370117188 469 408.936523438 469 c 0,15,16
 419.662109375 469 419.662109375 469 430.036132812 468.232421875 c 128,-1,17
 440.41015625 467.465820312 440.41015625 467.465820312 450.444335938 465.928710938 c 128,-1,18
 460.477539062 464.391601562 460.477539062 464.391601562 470.166015625 462.076171875 c 128,-1,19
 479.854492188 459.759765625 479.854492188 459.759765625 489.162109375 456.671875 c 0,20,21
 526.764648438 444.193359375 526.764648438 444.193359375 554.853515625 418.69140625 c 0,22,23
 568.1328125 405.9765625 568.1328125 405.9765625 578.696289062 390.325195312 c 128,-1,24
 589.259765625 374.673828125 589.259765625 374.673828125 597.118164062 356.19921875 c 128,-1,25
 605.041015625 337.57421875 605.041015625 337.57421875 608.963867188 316.051757812 c 128,-1,26
 612.887695312 294.528320312 612.887695312 294.528320312 612.887695312 270.1484375 c 0,27,28
 612.887695312 235.943359375 612.887695312 235.943359375 607.075195312 205.450195312 c 128,-1,29
 601.262695312 174.956054688 601.262695312 174.956054688 589.579101562 148.251953125 c 0,30,31
 581.833007812 130.547851562 581.833007812 130.547851562 572.282226562 114.654296875 c 128,-1,32
 562.73046875 98.759765625 562.73046875 98.759765625 551.100585938 84.6494140625 c 0,33,34
 539.0546875 70.5380859375 539.0546875 70.5380859375 525.119140625 58.30859375 c 0,35,36
 483.331054688 21.6328125 483.331054688 21.6328125 428.37890625 3.306640625 c 0,37,38
 401.083984375 -5.796875 401.083984375 -5.796875 372.409179688 -10.3505859375 c 128,-1,39
 343.733398438 -15 343.733398438 -15 313.7734375 -15 c 0,40,41
 287.4609375 -15 287.4609375 -15 262.551757812 -10.705078125 c 128,-1,42
 237.643554688 -6.5224609375 237.643554688 -6.5224609375 214.252929688 1.8408203125 c 0,43,44
 168.188476562 18.6962890625 168.188476562 18.6962890625 136.149414062 51.431640625 c 128,-1,45
 104.241210938 84.033203125 104.241210938 84.033203125 85.5244140625 132.638671875 c 0,46,47
 66.8876953125 181.037109375 66.8876953125 181.037109375 66.8876953125 243.181640625 c 0,48,49
 66.8876953125 335.421875 66.8876953125 335.421875 98.9609375 423.670898438 c 0,50,51
 131.1640625 512.278320312 131.1640625 512.278320312 198.75390625 581.455078125 c 0,52,53
 269.5546875 650.645507812 269.5546875 650.645507812 377.897460938 692.345703125 c 128,-1,54
 486.119140625 734 486.119140625 734 629.887695312 734 c 0,55,56
 636.115234375 734 636.115234375 734 647.341796875 733.489257812 c 0,57,58
 658.115234375 733 658.115234375 733 663.887695312 733 c 2,59,-1
 675.459960938 733 l 1,60,-1
 673.782226562 721.549804688 l 1,61,-1
 656.782226562 605.549804688 l 1,62,-1
 655.529296875 597 l 1,0,-1
415.641601562 159.302734375 m 0,63,64
 449.1171875 195.352539062 449.1171875 195.352539062 449.1171875 259.744140625 c 0,65,66
 449.1171875 284.3671875 449.1171875 284.3671875 441.141601562 299.635742188 c 128,-1,67
 433.219726562 314.802734375 433.219726562 314.802734375 420.380859375 323.923828125 c 128,-1,68
 407.352539062 333.177734375 407.352539062 333.177734375 390.51171875 336.983398438 c 0,69,70
 381.684570312 338.978515625 381.684570312 338.978515625 371.748046875 339.989257812 c 128,-1,71
 361.811523438 341 361.811523438 341 350.780273438 341 c 0,72,73
 322.411132812 341 322.411132812 341 292.423828125 334.56640625 c 0,74,75
 265.112304688 328.708007812 265.112304688 328.708007812 239.0234375 319.540039062 c 1,76,77
 233.747070312 301.725585938 233.747070312 301.725585938 230.637695312 284.052734375 c 0,78,79
 228.853515625 273.915039062 228.853515625 273.915039062 227.9609375 263.538085938 c 128,-1,80
 227.068359375 253.161132812 227.068359375 253.161132812 227.068359375 242.537109375 c 0,81,82
 227.067382812 230.221679688 227.067382812 230.221679688 228.702148438 218.404296875 c 128,-1,83
 230.3359375 206.5859375 230.3359375 206.5859375 233.6015625 195.233398438 c 0,84,85
 239.974609375 173.071289062 239.974609375 173.071289062 252.557617188 157.319335938 c 0,86,87
 264.881835938 141.891601562 264.881835938 141.891601562 283.36328125 132.89453125 c 0,88,89
 292.412109375 128.490234375 292.412109375 128.490234375 303.408203125 126.245117188 c 128,-1,90
 314.40625 124 314.40625 124 327.51953125 124 c 0,91,92
 382.860351562 124 382.860351562 124 415.641601562 159.302734375 c 0,63,64
EndSplineSet
Substitution2: "'ss02' Style Set 2 lookup 15 subtable" sixsuperior
Substitution2: "'sinf' Scientific Inferiors lookup 11 subtable" six.sinf
Substitution2: "'subs' Subscript lookup 10 subtable" six.sinf
Substitution2: "'sups' Superscript lookup 9 subtable" six.sups
Substitution2: "'dnom' Denominators lookup 8 subtable" sixinferior
Substitution2: "'numr' Numerators lookup 6 subtable" sixsuperior
EndChar

StartChar: seven
Encoding: 55 55 26
Width: 550
VWidth: 1177
Flags: W
LayerCount: 2
Fore
SplineSet
110.661132812 0 m 1,0,-1
 114.001953125 12.1533203125 l 2,1,2
 135.227539062 89.3623046875 135.227539062 89.3623046875 175.09765625 172.323242188 c 0,3,4
 214.82421875 254.983398438 214.82421875 254.983398438 265.500976562 333.266601562 c 0,5,6
 317.065429688 411.510742188 317.065429688 411.510742188 373.99609375 480.587890625 c 0,7,8
 397.744140625 509.400390625 397.744140625 509.400390625 421.912109375 536.081054688 c 128,-1,9
 446.081054688 562.76171875 446.081054688 562.76171875 468.490234375 585 c 1,10,-1
 147.666992188 585 l 1,11,-1
 135.057617188 585 l 1,12,-1
 137.9296875 597.27734375 l 1,13,-1
 166.9296875 721.27734375 l 1,14,-1
 168.735351562 729 l 1,15,-1
 176.666992188 729 l 1,16,-1
 704.666992188 729 l 1,17,-1
 717.416015625 729 l 1,18,-1
 714.37890625 716.951171875 l 1,19,-1
 688.37890625 613.809570312 l 1,20,-1
 687.591796875 610.688476562 l 1,21,-1
 685.049804688 608.637695312 l 2,22,23
 644.700195312 576.079101562 644.700195312 576.079101562 589.836914062 514.427734375 c 0,24,25
 580.2265625 504.138671875 580.2265625 504.138671875 570.59765625 493.309570312 c 128,-1,26
 560.966796875 482.479492188 560.966796875 482.479492188 551.3125 471.103515625 c 128,-1,27
 541.661132812 459.728515625 541.661132812 459.728515625 531.986328125 447.80859375 c 128,-1,28
 522.3125 435.887695312 522.3125 435.887695312 512.620117188 423.426757812 c 128,-1,29
 502.927734375 410.96484375 502.927734375 410.96484375 493.211914062 397.954101562 c 128,-1,30
 483.497070312 384.944335938 483.497070312 384.944335938 473.766601562 371.396484375 c 0,31,32
 415.447265625 290.19140625 415.447265625 290.19140625 364.943359375 196.79296875 c 0,33,34
 314.598632812 103.678710938 314.598632812 103.678710938 284.189453125 7.21484375 c 2,35,-1
 281.977539062 0 l 1,36,-1
 274.032226562 0 l 1,37,-1
 123.666992188 0 l 1,38,-1
 110.661132812 0 l 1,0,-1
EndSplineSet
Substitution2: "'ss02' Style Set 2 lookup 15 subtable" sevensuperior
Substitution2: "'sinf' Scientific Inferiors lookup 11 subtable" seven.sinf
Substitution2: "'subs' Subscript lookup 10 subtable" seven.sinf
Substitution2: "'sups' Superscript lookup 9 subtable" seven.sups
Substitution2: "'dnom' Denominators lookup 8 subtable" seveninferior
Substitution2: "'numr' Numerators lookup 6 subtable" sevensuperior
EndChar

StartChar: eight
Encoding: 56 56 27
Width: 550
VWidth: 1177
Flags: W
LayerCount: 2
Fore
SplineSet
67.9169921875 82.158203125 m 0,0,1
 46.568359375 118.030273438 46.568359375 118.030273438 46.568359375 168.377929688 c 0,2,3
 46.568359375 203.077148438 46.568359375 203.077148438 56.5810546875 232.337890625 c 0,4,5
 58.2568359375 237.233398438 58.2568359375 237.233398438 60.240234375 242.0703125 c 128,-1,6
 62.2236328125 246.907226562 62.2236328125 246.907226562 64.509765625 251.670898438 c 128,-1,7
 66.794921875 256.434570312 66.794921875 256.434570312 69.3818359375 261.133789062 c 128,-1,8
 71.96875 265.83203125 71.96875 265.83203125 74.85546875 270.462890625 c 128,-1,9
 77.7431640625 275.092773438 77.7431640625 275.092773438 80.9248046875 279.649414062 c 128,-1,10
 84.10546875 284.20703125 84.10546875 284.20703125 87.5869140625 288.69921875 c 0,11,12
 98.0126953125 302.155273438 98.0126953125 302.155273438 111.44921875 315.243164062 c 128,-1,13
 124.885742188 328.331054688 124.885742188 328.331054688 141.3359375 341.100585938 c 0,14,15
 155.35546875 351.982421875 155.35546875 351.982421875 172.965820312 363.95703125 c 0,16,17
 191.229492188 375.931640625 191.229492188 375.931640625 210.521484375 387.485351562 c 1,18,19
 186.5703125 412.109375 186.5703125 412.109375 169.576171875 439.1640625 c 0,20,21
 149.568359375 472.596679688 149.568359375 472.596679688 149.568359375 518.068359375 c 0,22,23
 149.568359375 523.282226562 149.568359375 523.282226562 149.813476562 528.484375 c 128,-1,24
 150.059570312 533.686523438 150.059570312 533.686523438 150.549804688 538.870117188 c 128,-1,25
 151.040039062 544.052734375 151.040039062 544.052734375 151.775390625 549.219726562 c 128,-1,26
 152.509765625 554.387695312 152.509765625 554.387695312 153.48828125 559.534179688 c 128,-1,27
 154.467773438 564.681640625 154.467773438 564.681640625 155.689453125 569.810546875 c 128,-1,28
 156.911132812 574.938476562 156.911132812 574.938476562 158.375976562 580.046875 c 128,-1,29
 159.841796875 585.154296875 159.841796875 585.154296875 161.548828125 590.239257812 c 128,-1,30
 163.255859375 595.32421875 163.255859375 595.32421875 165.205078125 600.387695312 c 0,31,32
 181.8046875 641.326171875 181.8046875 641.326171875 217.291992188 673.98828125 c 128,-1,33
 252.671875 706.552734375 252.671875 706.552734375 305.45703125 726.2890625 c 128,-1,34
 358.170898438 746 358.170898438 746 430.086914062 746 c 0,35,36
 478.392578125 746 478.392578125 746 519.197265625 733.309570312 c 0,37,38
 529.390625 730.139648438 529.390625 730.139648438 538.40625 726.35546875 c 128,-1,39
 547.412109375 722.571289062 547.412109375 722.571289062 555.809570312 718.1640625 c 128,-1,40
 564.206054688 713.755859375 564.206054688 713.755859375 571.984375 708.715820312 c 128,-1,41
 579.76171875 703.67578125 579.76171875 703.67578125 586.884765625 698.020507812 c 0,42,43
 601.1640625 686.685546875 601.1640625 686.685546875 612.579101562 672.978515625 c 128,-1,44
 623.994140625 659.270507812 623.994140625 659.270507812 632.454101562 643.301757812 c 0,45,46
 649.568359375 610.997070312 649.568359375 610.997070312 649.568359375 570.635742188 c 0,47,48
 649.568359375 558.354492188 649.568359375 558.354492188 647.99609375 545.846679688 c 128,-1,49
 646.423828125 533.337890625 646.423828125 533.337890625 643.291992188 520.624023438 c 0,50,51
 636.9140625 494.733398438 636.9140625 494.733398438 619.557617188 467.575195312 c 128,-1,52
 602.287109375 440.552734375 602.287109375 440.552734375 570.696289062 413.307617188 c 0,53,54
 544.018554688 390.298828125 544.018554688 390.298828125 499.991210938 368.442382812 c 1,55,56
 533.526367188 344.45703125 533.526367188 344.45703125 557.502929688 314.006835938 c 0,57,58
 567.59375 301.19140625 567.59375 301.19140625 574.302734375 285.86328125 c 128,-1,59
 581.01171875 270.536132812 581.01171875 270.536132812 584.290039062 253.120117188 c 128,-1,60
 587.568359375 235.705078125 587.568359375 235.705078125 587.568359375 216.010742188 c 0,61,62
 587.568359375 200.1015625 587.568359375 200.1015625 585.416992188 184.763671875 c 128,-1,63
 583.266601562 169.42578125 583.266601562 169.42578125 578.958984375 154.673828125 c 128,-1,64
 574.65234375 139.920898438 574.65234375 139.920898438 568.202148438 125.82421875 c 0,65,66
 548.8046875 83.4326171875 548.8046875 83.4326171875 510.600585938 51.8193359375 c 0,67,68
 471.443359375 20.341796875 471.443359375 20.341796875 414.413085938 2.673828125 c 0,69,70
 400.171875 -1.7392578125 400.171875 -1.7392578125 384.811523438 -5.0400390625 c 128,-1,71
 369.450195312 -8.3408203125 369.450195312 -8.3408203125 353.015625 -10.525390625 c 128,-1,72
 336.580078125 -12.767578125 336.580078125 -12.767578125 319.08984375 -13.8837890625 c 128,-1,73
 301.599609375 -15 301.599609375 -15 282.982421875 -15 c 0,74,75
 241.49609375 -15 241.49609375 -15 198.98828125 -5.2158203125 c 128,-1,76
 156.580078125 4.4228515625 156.580078125 4.4228515625 123.173828125 25.2685546875 c 0,77,78
 89.1328125 46.509765625 89.1328125 46.509765625 67.9169921875 82.158203125 c 0,0,1
418.190429688 196.481445312 m 128,-1,80
 420.5625 206.568359375 420.5625 206.568359375 420.5625 218 c 0,81,82
 420.5625 258.44140625 420.5625 258.44140625 391.926757812 281.951171875 c 0,83,84
 382.2421875 289.901367188 382.2421875 289.901367188 370.495117188 297.991210938 c 128,-1,85
 358.749023438 306.081054688 358.749023438 306.081054688 345.71875 313.819335938 c 128,-1,86
 332.686523438 321.557617188 332.686523438 321.557617188 318.74609375 328.75 c 1,87,88
 283.912109375 312.252929688 283.912109375 312.252929688 263.2265625 296.260742188 c 0,89,90
 241.118164062 279.168945312 241.118164062 279.168945312 228.217773438 261.353515625 c 0,91,92
 215.571289062 243.88671875 215.571289062 243.88671875 211.26171875 226.6953125 c 0,93,94
 209.765625 220.728515625 209.765625 220.728515625 208.770507812 214.7734375 c 128,-1,95
 207.775390625 208.818359375 207.775390625 208.818359375 207.280273438 202.879882812 c 128,-1,96
 206.784179688 196.942382812 206.784179688 196.942382812 206.784179688 191 c 0,97,98
 206.784179688 155.177734375 206.784179688 155.177734375 233.000976562 137.666015625 c 0,99,100
 260.946289062 119 260.946289062 119 300.973632812 119 c 0,101,102
 309.250976562 119 309.250976562 119 317.163085938 119.779296875 c 128,-1,103
 325.076171875 120.557617188 325.076171875 120.557617188 332.591796875 122.102539062 c 128,-1,104
 340.106445312 123.6484375 340.106445312 123.6484375 347.298828125 125.96484375 c 0,105,106
 368.668945312 132.848632812 368.668945312 132.848632812 385.120117188 146.108398438 c 0,107,108
 389.224609375 149.416015625 389.224609375 149.416015625 392.889648438 153.017578125 c 128,-1,109
 396.553710938 156.620117188 396.553710938 156.620117188 399.797851562 160.53515625 c 128,-1,110
 403.041015625 164.450195312 403.041015625 164.450195312 405.860351562 168.6796875 c 128,-1,111
 408.682617188 172.908203125 408.682617188 172.908203125 411.096679688 177.471679688 c 0,112,79
 415.817382812 186.39453125 415.817382812 186.39453125 418.190429688 196.481445312 c 128,-1,80
336.633789062 584.556640625 m 128,-1,114
 310.499023438 558.961914062 310.499023438 558.961914062 310.498046875 521 c 0,115,116
 310.498046875 487.020507812 310.498046875 487.020507812 332.422851562 465.421875 c 128,-1,117
 354.329101562 443.841796875 354.329101562 443.841796875 385.198242188 425.390625 c 1,118,119
 449.365234375 455.267578125 449.365234375 455.267578125 470.5546875 484.633789062 c 0,120,121
 492.52734375 515.084960938 492.52734375 515.084960938 492.528320312 544 c 0,122,123
 492.528320312 577.290039062 492.528320312 577.290039062 472.029296875 593.290039062 c 0,124,125
 450.622070312 610 450.622070312 610 409.979492188 610 c 0,126,113
 362.6171875 610 362.6171875 610 336.633789062 584.556640625 c 128,-1,114
EndSplineSet
Substitution2: "'ss02' Style Set 2 lookup 15 subtable" eightsuperior
Substitution2: "'sinf' Scientific Inferiors lookup 11 subtable" eight.sinf
Substitution2: "'subs' Subscript lookup 10 subtable" eight.sinf
Substitution2: "'sups' Superscript lookup 9 subtable" eight.sups
Substitution2: "'dnom' Denominators lookup 8 subtable" eightinferior
Substitution2: "'numr' Numerators lookup 6 subtable" eightsuperior
EndChar

StartChar: nine
Encoding: 57 57 28
Width: 550
VWidth: 1177
Flags: W
LayerCount: 2
Fore
SplineSet
338.602539062 397.3984375 m 128,-1,1
 356.389648438 393 356.389648438 393 377.232421875 393 c 0,2,3
 404.575195312 393 404.575195312 393 435.122070312 399.43359375 c 0,4,5
 462.901367188 405.284179688 462.901367188 405.284179688 488.961914062 414.41015625 c 1,6,7
 491.610351562 423.642578125 491.610351562 423.642578125 493.551757812 432.21484375 c 128,-1,8
 495.494140625 440.787109375 495.494140625 440.787109375 496.872070312 449.280273438 c 0,9,10
 499.932617188 468.165039062 499.932617188 468.165039062 499.93359375 489.4296875 c 0,11,12
 499.93359375 538.126953125 499.93359375 538.126953125 475.231445312 572.01953125 c 0,13,14
 451.919921875 604 451.919921875 604 401.560546875 604 c 0,15,16
 373.295898438 604 373.295898438 604 351.08984375 596.047851562 c 128,-1,17
 328.883789062 588.096679688 328.883789062 588.096679688 311.879882812 572.090820312 c 0,18,19
 300.733398438 561.598632812 300.733398438 561.598632812 293.212890625 547.392578125 c 128,-1,20
 285.69140625 533.186523438 285.69140625 533.186523438 281.74609375 514.525390625 c 128,-1,21
 277.801757812 495.864257812 277.801757812 495.864257812 277.801757812 473.19921875 c 0,22,23
 277.801757812 457.079101562 277.801757812 457.079101562 281.13671875 444.719726562 c 128,-1,24
 284.471679688 432.359375 284.471679688 432.359375 290.58203125 424.1015625 c 128,-1,25
 296.694335938 415.842773438 296.694335938 415.842773438 305.75 410.5703125 c 0,26,0
 320.81640625 401.796875 320.81640625 401.796875 338.602539062 397.3984375 c 128,-1,1
343.016601562 267.037109375 m 128,-1,28
 330.463867188 266 330.463867188 266 319.0546875 266 c 0,29,30
 276.037109375 266 276.037109375 266 238.932617188 277.791992188 c 0,31,32
 234.24609375 279.280273438 234.24609375 279.280273438 229.692382812 280.9765625 c 128,-1,33
 225.139648438 282.671875 225.139648438 282.671875 220.721679688 284.571289062 c 128,-1,34
 216.303710938 286.471679688 216.303710938 286.471679688 212.021484375 288.576171875 c 128,-1,35
 207.739257812 290.681640625 207.739257812 290.681640625 203.595703125 292.989257812 c 128,-1,36
 199.454101562 295.296875 199.454101562 295.296875 195.44921875 297.80859375 c 128,-1,37
 191.442382812 300.3203125 191.442382812 300.3203125 187.583007812 303.032226562 c 128,-1,38
 183.721679688 305.744140625 183.721679688 305.744140625 180.000976562 308.658203125 c 128,-1,39
 176.28125 311.573242188 176.28125 311.573242188 172.833007812 314.685546875 c 0,40,41
 159.28125 327.17578125 159.28125 327.17578125 148.669921875 342.633789062 c 128,-1,42
 138.057617188 358.091796875 138.057617188 358.091796875 130.4296875 376.37890625 c 0,43,44
 115.186523438 412.921875 115.186523438 412.921875 115.186523438 461.848632812 c 0,45,46
 115.186523438 496.01953125 115.186523438 496.01953125 120.864257812 526.59765625 c 128,-1,47
 126.541992188 557.17578125 126.541992188 557.17578125 137.951171875 584.090820312 c 0,48,49
 160.793945312 637.98046875 160.793945312 637.98046875 201.879882812 673.712890625 c 0,50,51
 243.647460938 709.327148438 243.647460938 709.327148438 298.547851562 727.623046875 c 0,52,53
 316.752929688 733.690429688 316.752929688 733.690429688 335.583984375 737.73828125 c 128,-1,54
 354.4140625 741.87109375 354.4140625 741.87109375 373.817382812 743.935546875 c 128,-1,55
 393.219726562 746 393.219726562 746 413.196289062 746 c 0,56,57
 465.950195312 746 465.950195312 746 512.751953125 729.267578125 c 0,58,59
 558.844726562 712.424804688 558.844726562 712.424804688 591.8671875 679.237304688 c 0,60,61
 608.384765625 662.638671875 608.384765625 662.638671875 621.192382812 642.143554688 c 128,-1,62
 634 621.647460938 634 621.647460938 643.08203125 597.3828125 c 0,63,64
 661.186523438 549.01171875 661.186523438 549.01171875 661.186523438 486.900390625 c 0,65,66
 661.186523438 440.315429688 661.186523438 440.315429688 653.293945312 394.930664062 c 128,-1,67
 645.401367188 349.545898438 645.401367188 349.545898438 629.630859375 305.443359375 c 0,68,69
 597.921875 216.771484375 597.921875 216.771484375 530.34765625 148.040039062 c 0,70,71
 522.467773438 140.395507812 522.467773438 140.395507812 514.1328125 133.078125 c 128,-1,72
 505.797851562 125.760742188 505.797851562 125.760742188 497.01953125 118.778320312 c 128,-1,73
 488.241210938 111.795898438 488.241210938 111.795898438 479.009765625 105.139648438 c 128,-1,74
 469.778320312 98.4833984375 469.778320312 98.4833984375 460.107421875 92.162109375 c 128,-1,75
 450.436523438 85.8408203125 450.436523438 85.8408203125 440.314453125 79.845703125 c 128,-1,76
 430.193359375 73.8505859375 430.193359375 73.8505859375 419.634765625 68.189453125 c 128,-1,77
 409.076171875 62.5283203125 409.076171875 62.5283203125 398.0703125 57.193359375 c 128,-1,78
 387.064453125 51.859375 387.064453125 51.859375 375.624023438 46.857421875 c 128,-1,79
 364.18359375 41.85546875 364.18359375 41.85546875 352.298828125 37.1806640625 c 0,80,81
 298.555664062 16.0419921875 298.555664062 16.0419921875 234.708007812 5.5205078125 c 0,82,83
 171.086914062 -5 171.086914062 -5 101.186523438 -5 c 0,84,85
 94.9599609375 -5 94.9599609375 -5 83.732421875 -4.4892578125 c 0,86,87
 71.564453125 -3.9365234375 71.564453125 -3.9365234375 63.439453125 -1.615234375 c 2,88,-1
 55.001953125 0.7958984375 l 1,89,-1
 56.2958984375 9.474609375 l 1,90,-1
 73.2958984375 123.474609375 l 1,91,-1
 74.5673828125 132 l 1,92,-1
 83.1865234375 132 l 2,93,94
 143.494140625 132 143.494140625 132 201.770507812 139.35546875 c 0,95,96
 261.072265625 146.614257812 261.072265625 146.614257812 312.032226562 166.9921875 c 0,97,98
 362.646484375 187.231445312 362.646484375 187.231445312 403.073242188 222.794921875 c 0,99,100
 434.48046875 251.206054688 434.48046875 251.206054688 457.3125 294.235351562 c 1,101,102
 427.65625 281.494140625 427.65625 281.494140625 397.481445312 275.232421875 c 0,103,104
 382.706054688 272.166015625 382.706054688 272.166015625 369.137695312 270.120117188 c 128,-1,27
 355.568359375 268.07421875 355.568359375 268.07421875 343.016601562 267.037109375 c 128,-1,28
EndSplineSet
Substitution2: "'ss02' Style Set 2 lookup 15 subtable" ninesuperior
Substitution2: "'sinf' Scientific Inferiors lookup 11 subtable" nine.sinf
Substitution2: "'subs' Subscript lookup 10 subtable" nine.sinf
Substitution2: "'sups' Superscript lookup 9 subtable" nine.sups
Substitution2: "'dnom' Denominators lookup 8 subtable" nineinferior
Substitution2: "'numr' Numerators lookup 6 subtable" ninesuperior
EndChar

StartChar: less
Encoding: 60 60 31
Width: 550
VWidth: 1177
Flags: W
LayerCount: 2
Fore
SplineSet
102.711914062 376.336914062 m 1,0,-1
 600.712890625 567.336914062 l 1,1,-1
 613.126953125 572.098632812 l 1,2,-1
 614.256835938 558.849609375 l 1,3,-1
 625.256835938 429.849609375 l 1,4,-1
 625.916992188 422.108398438 l 1,5,-1
 618.579101562 419.555664062 l 1,6,-1
 277.021484375 300.711914062 l 1,7,-1
 554.47265625 173.084960938 l 1,8,-1
 564.125976562 168.64453125 l 1,9,-1
 559.108398438 159.27734375 l 1,10,-1
 499.107421875 47.27734375 l 1,11,-1
 494.579101562 38.82421875 l 1,12,-1
 485.943359375 42.9951171875 l 1,13,-1
 73.943359375 241.995117188 l 1,14,-1
 66.6787109375 245.50390625 l 1,15,-1
 68.572265625 253.346679688 l 1,16,-1
 96.572265625 369.346679688 l 1,17,-1
 97.8056640625 374.455078125 l 1,18,-1
 102.711914062 376.336914062 l 1,0,-1
EndSplineSet
EndChar

StartChar: equal
Encoding: 61 61 32
Width: 550
VWidth: 1177
Flags: W
LayerCount: 2
Fore
SplineSet
541.229492188 124 m 1,0,-1
 46.2294921875 124 l 1,1,-1
 33.6279296875 124 l 1,2,-1
 36.4912109375 136.272460938 l 1,3,-1
 64.4912109375 256.272460938 l 1,4,-1
 66.2939453125 264 l 1,5,-1
 74.2294921875 264 l 1,6,-1
 569.229492188 264 l 1,7,-1
 581.831054688 264 l 1,8,-1
 578.967773438 251.727539062 l 1,9,-1
 550.96875 131.727539062 l 1,10,-1
 549.165039062 124 l 1,11,-1
 541.229492188 124 l 1,0,-1
595.229492188 354 m 1,12,-1
 100.229492188 354 l 1,13,-1
 87.421875 354 l 1,14,-1
 90.52734375 366.42578125 l 1,15,-1
 120.52734375 486.42578125 l 1,16,-1
 122.421875 494 l 1,17,-1
 130.229492188 494 l 1,18,-1
 623.229492188 494 l 1,19,-1
 635.831054688 494 l 1,20,-1
 632.967773438 481.727539062 l 1,21,-1
 604.967773438 361.727539062 l 1,22,-1
 603.165039062 354 l 1,23,-1
 595.229492188 354 l 1,12,-1
EndSplineSet
EndChar

StartChar: greater
Encoding: 62 62 33
Width: 550
VWidth: 1177
Flags: W
LayerCount: 2
Fore
SplineSet
569.579101562 233.663085938 m 1,0,-1
 71.5791015625 42.6630859375 l 1,1,-1
 59.1640625 37.9013671875 l 1,2,-1
 58.0341796875 51.150390625 l 1,3,-1
 47.0341796875 180.150390625 l 1,4,-1
 46.375 187.87890625 l 1,5,-1
 53.697265625 190.439453125 l 1,6,-1
 396.185546875 310.216796875 l 1,7,-1
 117.85546875 436.8984375 l 1,8,-1
 108.145507812 441.318359375 l 1,9,-1
 113.18359375 450.72265625 l 1,10,-1
 173.18359375 562.72265625 l 1,11,-1
 177.70703125 571.16796875 l 1,12,-1
 186.338867188 567.008789062 l 1,13,-1
 599.338867188 368.008789062 l 1,14,-1
 606.674804688 364.474609375 l 1,15,-1
 604.69921875 356.57421875 l 1,16,-1
 575.69921875 240.57421875 l 1,17,-1
 574.4375 235.526367188 l 1,18,-1
 569.579101562 233.663085938 l 1,0,-1
EndSplineSet
EndChar

StartChar: question
Encoding: 63 63 34
Width: 550
VWidth: 1177
Flags: W
LayerCount: 2
Fore
SplineSet
379.787109375 614 m 0,0,1
 342.548828125 614 342.548828125 614 311.205078125 602.602539062 c 0,2,3
 294.88671875 596.66796875 294.88671875 596.66796875 275.265625 588.720703125 c 256,4,5
 255.643554688 580.772460938 255.643554688 580.772460938 232.774414062 570.829101562 c 2,6,-1
 220.974609375 565.69921875 l 1,7,-1
 218.916015625 578.399414062 l 1,8,-1
 200.916015625 689.399414062 l 1,9,-1
 199.779296875 696.41015625 l 1,10,-1
 206.0234375 699.79296875 l 2,11,12
 230.510742188 713.056640625 230.510742188 713.056640625 256.036132812 723.39453125 c 256,13,14
 281.561523438 733.732421875 281.561523438 733.732421875 308.100585938 741.1328125 c 0,15,16
 361.418945312 756 361.418945312 756 419.787109375 756 c 0,17,18
 473.431640625 756 473.431640625 756 510.489257812 743.473632812 c 0,19,20
 547.919921875 730.821289062 547.919921875 730.821289062 572.44140625 708.96484375 c 0,21,22
 580.65234375 701.646484375 580.65234375 701.646484375 587.418945312 693.499023438 c 256,23,24
 594.186523438 685.350585938 594.186523438 685.350585938 599.501953125 676.359375 c 256,25,26
 604.818359375 667.3671875 604.818359375 667.3671875 608.606445312 657.624023438 c 0,27,28
 619.787109375 628.875976562 619.787109375 628.875976562 619.787109375 595 c 0,29,30
 619.787109375 558.186523438 619.787109375 558.186523438 608.649414062 528.48828125 c 0,31,32
 606.44921875 522.619140625 606.44921875 522.619140625 603.9296875 516.931640625 c 256,33,34
 601.41015625 511.243164062 601.41015625 511.243164062 598.575195312 505.740234375 c 256,35,36
 595.73828125 500.236328125 595.73828125 500.236328125 592.587890625 494.920898438 c 256,37,38
 589.436523438 489.606445312 589.436523438 489.606445312 585.970703125 484.478515625 c 256,39,40
 582.50390625 479.3515625 582.50390625 479.3515625 578.725585938 474.418945312 c 0,41,42
 560.022460938 450.000976562 560.022460938 450.000976562 534.12890625 428.767578125 c 0,43,44
 521.528320312 418.436523438 521.528320312 418.436523438 507.80078125 408.138671875 c 256,45,46
 494.071289062 397.841796875 494.071289062 397.841796875 479.604492188 387.864257812 c 0,47,48
 452.796875 368.006835938 452.796875 368.006835938 433.854492188 353.55078125 c 0,49,50
 415.458007812 339.51171875 415.458007812 339.51171875 402.485351562 326.05859375 c 0,51,52
 396.125 319.462890625 396.125 319.462890625 390.73046875 312.42578125 c 256,53,54
 385.3359375 305.389648438 385.3359375 305.389648438 380.885742188 297.89453125 c 0,55,56
 371.969726562 282.877929688 371.969726562 282.877929688 365.31640625 261.967773438 c 2,57,-1
 363.098632812 255 l 1,58,-1
 355.787109375 255 l 1,59,-1
 221.787109375 255 l 1,60,-1
 210.196289062 255 l 1,61,-1
 211.895507812 266.465820312 l 2,62,63
 216.053710938 294.538085938 216.053710938 294.538085938 225.735351562 319.526367188 c 256,64,65
 235.416015625 344.513671875 235.416015625 344.513671875 250.58984375 366.227539062 c 0,66,67
 280.579101562 409.143554688 280.579101562 409.143554688 347.885742188 457.07421875 c 0,68,69
 375.803710938 478.012695312 375.803710938 478.012695312 395.319335938 492.524414062 c 0,70,71
 413.896484375 506.337890625 413.896484375 506.337890625 424.15234375 518.458984375 c 0,72,73
 434.125976562 530.245117188 434.125976562 530.245117188 439.026367188 542.2734375 c 0,74,75
 441.369140625 548.0234375 441.369140625 548.0234375 442.578125 554.947265625 c 256,76,77
 443.787109375 561.87109375 443.787109375 561.87109375 443.787109375 570 c 0,78,79
 443.787109375 614 443.787109375 614 379.787109375 614 c 0,0,1
271.787109375 193 m 0,80,81
 313.560546875 193 313.560546875 193 341.393554688 168.506835938 c 0,82,83
 369.787109375 143.520507812 369.787109375 143.520507812 369.787109375 95 c 0,84,85
 369.787109375 68.8037109375 369.787109375 68.8037109375 359.866210938 47.3095703125 c 0,86,87
 355.004882812 36.77734375 355.004882812 36.77734375 348.490234375 27.412109375 c 256,88,89
 341.974609375 18.0458984375 341.974609375 18.0458984375 333.857421875 9.9287109375 c 0,90,91
 317.508789062 -6.4208984375 317.508789062 -6.4208984375 297.256835938 -15.1787109375 c 256,92,93
 276.856445312 -24 276.856445312 -24 253.787109375 -24 c 0,94,95
 213.005859375 -24 213.005859375 -24 184.670898438 1.001953125 c 0,96,97
 155.787109375 26.4873046875 155.787109375 26.4873046875 155.787109375 74 c 0,98,99
 155.787109375 101.146484375 155.787109375 101.146484375 165.66796875 123.103515625 c 0,100,101
 170.553710938 133.9609375 170.553710938 133.9609375 177.140625 143.291992188 c 256,102,103
 183.7265625 152.622070312 183.7265625 152.622070312 191.963867188 160.310546875 c 0,104,105
 208.265625 175.525390625 208.265625 175.525390625 228.907226562 184.216796875 c 0,106,107
 249.767578125 193 249.767578125 193 271.787109375 193 c 0,80,81
EndSplineSet
EndChar

StartChar: at
Encoding: 64 64 35
Width: 550
VWidth: 1177
Flags: W
LayerCount: 2
Fore
SplineSet
381.036132812 -47 m 0,0,1
 430.947265625 -47 430.947265625 -47 459.384765625 -40.734375 c 0,2,3
 462.302734375 -40.0908203125 462.302734375 -40.0908203125 465.0546875 -39.4765625 c 256,4,5
 467.807617188 -38.861328125 467.807617188 -38.861328125 470.341796875 -38.2861328125 c 256,6,7
 472.875 -37.7119140625 472.875 -37.7119140625 475.232421875 -37.16796875 c 256,8,9
 477.590820312 -36.6240234375 477.590820312 -36.6240234375 479.731445312 -36.1201171875 c 256,10,11
 481.872070312 -35.6162109375 481.872070312 -35.6162109375 483.827148438 -35.1455078125 c 256,12,13
 485.78125 -34.67578125 485.78125 -34.67578125 487.521484375 -34.2451171875 c 256,14,15
 489.26171875 -33.8154296875 489.26171875 -33.8154296875 490.8046875 -33.421875 c 256,16,17
 492.346679688 -33.0283203125 492.346679688 -33.0283203125 493.676757812 -32.67578125 c 256,18,19
 495.0078125 -32.322265625 495.0078125 -32.322265625 496.129882812 -32.0087890625 c 256,20,21
 497.251953125 -31.6953125 497.251953125 -31.6953125 498.163085938 -31.421875 c 2,22,-1
 512.146484375 -27.2265625 l 1,23,-1
 511.004882812 -41.7822265625 l 1,24,-1
 503.005859375 -143.782226562 l 1,25,-1
 502.428710938 -151.130859375 l 1,26,-1
 495.23828125 -152.754882812 l 2,27,28
 487.38671875 -154.52734375 487.38671875 -154.52734375 479.47265625 -156.141601562 c 256,29,30
 471.557617188 -157.756835938 471.557617188 -157.756835938 463.58203125 -159.212890625 c 256,31,32
 455.60546875 -160.66796875 455.60546875 -160.66796875 447.567382812 -161.965820312 c 256,33,34
 439.529296875 -163.263671875 439.529296875 -163.263671875 431.428710938 -164.40234375 c 0,35,36
 398.736328125 -169 398.736328125 -169 364.036132812 -169 c 0,37,38
 220.609375 -169 220.609375 -169 143.6328125 -84.22265625 c 0,39,40
 105.065429688 -41.74609375 105.065429688 -41.74609375 86.05078125 22.62890625 c 256,41,42
 67.0361328125 87.00390625 67.0361328125 87.00390625 67.0361328125 173 c 0,43,44
 67.0361328125 298.338867188 67.0361328125 298.338867188 95.888671875 404.130859375 c 0,45,46
 124.823242188 510.2265625 124.823242188 510.2265625 177.749023438 588.596679688 c 0,47,48
 230.986328125 667.4296875 230.986328125 667.4296875 304.381835938 711.569335938 c 0,49,50
 378.260742188 756 378.260742188 756 467.036132812 756 c 0,51,52
 521.559570312 756 521.559570312 756 562.217773438 743.844726562 c 256,53,54
 602.875 731.689453125 602.875 731.689453125 629.3828125 706.788085938 c 256,55,56
 655.802734375 681.969726562 655.802734375 681.969726562 668.918945312 646.329101562 c 256,57,58
 682.036132812 610.6875 682.036132812 610.6875 682.036132812 565 c 0,59,60
 682.036132812 562.444335938 682.036132812 562.444335938 681.978515625 559.822265625 c 256,61,62
 681.919921875 557.200195312 681.919921875 557.200195312 681.805664062 554.520507812 c 256,63,64
 681.690429688 551.840820312 681.690429688 551.840820312 681.517578125 549.09375 c 256,65,66
 681.344726562 546.34765625 681.344726562 546.34765625 681.115234375 543.54296875 c 256,67,68
 680.885742188 540.737304688 680.885742188 540.737304688 680.598632812 537.865234375 c 256,69,70
 680.3125 534.9921875 680.3125 534.9921875 679.969726562 532.061523438 c 256,71,72
 679.626953125 529.129882812 679.626953125 529.129882812 679.2265625 526.129882812 c 256,73,74
 678.827148438 523.129882812 678.827148438 523.129882812 678.372070312 520.071289062 c 256,75,76
 677.916992188 517.013671875 677.916992188 517.013671875 677.405273438 513.884765625 c 0,77,78
 672.852539062 486.06640625 672.852539062 486.06640625 666.770507812 459.711914062 c 2,79,-1
 571.760742188 62.6728515625 l 1,80,-1
 570.46875 57.26953125 l 1,81,-1
 565.198242188 55.5126953125 l 2,82,83
 553.970703125 51.7705078125 553.970703125 51.7705078125 542.461914062 48.5390625 c 256,84,85
 530.952148438 45.3076171875 530.952148438 45.3076171875 519.173828125 42.58984375 c 256,86,87
 507.39453125 39.87109375 507.39453125 39.87109375 495.336914062 37.6630859375 c 0,88,89
 458.944335938 31 458.944335938 31 428.036132812 31 c 0,90,91
 388.463867188 31 388.463867188 31 355.965820312 41.4833984375 c 0,92,93
 322.670898438 52.2236328125 322.670898438 52.2236328125 298.46484375 76.4287109375 c 256,94,95
 274.357421875 100.53515625 274.357421875 100.53515625 261.104492188 138.178710938 c 0,96,97
 248.036132812 175.291015625 248.036132812 175.291015625 248.036132812 227 c 0,98,99
 248.036132812 282.287109375 248.036132812 282.287109375 262.361328125 337.03125 c 0,100,101
 269.575195312 364.59765625 269.575195312 364.59765625 280.704101562 389.055664062 c 256,102,103
 291.833007812 413.512695312 291.833007812 413.512695312 306.872070312 434.774414062 c 256,104,105
 321.952148438 456.095703125 321.952148438 456.095703125 340.7265625 473.56640625 c 256,106,107
 359.501953125 491.037109375 359.501953125 491.037109375 381.862304688 504.557617188 c 0,108,109
 404.575195312 518.291015625 404.575195312 518.291015625 430.938476562 525.145507812 c 256,110,111
 457.302734375 532 457.302734375 532 487.036132812 532 c 0,112,113
 497.533203125 532 497.533203125 532 507.05859375 531.07421875 c 256,114,115
 516.583984375 530.147460938 516.583984375 530.147460938 525.172851562 528.268554688 c 0,116,117
 529.04296875 527.421875 529.04296875 527.421875 533.27734375 526.389648438 c 256,118,119
 537.51171875 525.356445312 537.51171875 525.356445312 540.098632812 524.655273438 c 1,120,121
 541.973632812 532.693359375 541.973632812 532.693359375 543.124023438 541.321289062 c 0,122,123
 545.036132812 555.6640625 545.036132812 555.6640625 545.036132812 564 c 0,124,125
 545.036132812 596.3515625 545.036132812 596.3515625 523.08984375 614.854492188 c 0,126,127
 500.3828125 634 500.3828125 634 461.036132812 634 c 0,128,129
 408.860351562 634 408.860351562 634 360.767578125 604.477539062 c 0,130,131
 312.252929688 574.696289062 312.252929688 574.696289062 275.99609375 517.16796875 c 0,132,133
 239.327148438 458.986328125 239.327148438 458.986328125 217.716796875 375.494140625 c 0,134,135
 206.893554688 333.673828125 206.893554688 333.673828125 201.46484375 286.545898438 c 256,136,137
 196.036132812 239.416992188 196.036132812 239.416992188 196.036132812 187 c 0,138,139
 196.036132812 123.018554688 196.036132812 123.018554688 208.571289062 77.83984375 c 256,140,141
 221.106445312 32.662109375 221.106445312 32.662109375 245.39453125 6.2724609375 c 0,142,143
 294.423828125 -47 294.423828125 -47 381.036132812 -47 c 0,0,1
440.036132812 163 m 2,144,-1
 450.036132812 163 l 2,145,146
 451.197265625 163 451.197265625 163 452.700195312 163.143554688 c 2,147,-1
 508.504882812 396.763671875 l 1,148,149
 504.344726562 398.009765625 504.344726562 398.009765625 500.221679688 398.504882812 c 256,150,151
 496.098632812 399 496.098632812 399 490.036132812 399 c 0,152,153
 462.348632812 399 462.348632812 399 443.505859375 384.977539062 c 0,154,155
 436.965820312 380.110351562 436.965820312 380.110351562 431.25 374.248046875 c 256,156,157
 425.533203125 368.38671875 425.533203125 368.38671875 420.563476562 361.416992188 c 256,158,159
 415.594726562 354.448242188 415.594726562 354.448242188 411.411132812 346.391601562 c 0,160,161
 398.557617188 321.635742188 398.557617188 321.635742188 392.3359375 291.009765625 c 0,162,163
 386.036132812 259.995117188 386.036132812 259.995117188 386.036132812 229 c 0,164,165
 386.036132812 194.736328125 386.036132812 194.736328125 400.0859375 178.556640625 c 0,166,167
 413.596679688 163 413.596679688 163 440.036132812 163 c 2,144,-1
EndSplineSet
Substitution2: "'case' Case-Sensitive Forms lookup 17 subtable" At
EndChar

StartChar: A
Encoding: 65 65 36
Width: 550
VWidth: 1177
Flags: W
LayerCount: 2
Fore
SplineSet
474.9609375 10.2353515625 m 1,0,-1
 478.932617188 170 l 1,1,-1
 277.875 170 l 1,2,3
 268.852539062 150.971679688 268.852539062 150.971679688 260.0625 132.145507812 c 128,-1,4
 251.2734375 113.318359375 251.2734375 113.318359375 242.162109375 93.5087890625 c 0,5,6
 222.723632812 51.2431640625 222.723632812 51.2431640625 204.8515625 6.4658203125 c 2,7,-1
 202.270507812 0 l 1,8,-1
 194.966796875 0 l 1,9,-1
 45.5595703125 0 l 1,10,-1
 30 0 l 1,11,-1
 36.462890625 13.7734375 l 2,12,13
 136.537109375 227.045898438 136.537109375 227.045898438 234.149414062 405.336914062 c 0,14,15
 332.598632812 583.758789062 332.598632812 583.758789062 425.791992188 724.21484375 c 2,16,-1
 428.881835938 729 l 1,17,-1
 434.807617188 729 l 1,18,-1
 594.559570312 729 l 1,19,-1
 603.474609375 729 l 1,20,-1
 604.494140625 720.143554688 l 2,21,22
 620.525390625 584.681640625 620.525390625 584.681640625 630.5390625 433.7109375 c 128,-1,23
 640.553710938 282.7265625 640.553710938 282.7265625 643.559570312 112.20703125 c 2,24,-1
 643.559570312 10 l 1,25,-1
 643.559570312 0 l 1,26,-1
 633.559570312 0 l 1,27,-1
 485.5234375 0 l 1,28,-1
 474.706054688 0 l 1,29,-1
 474.9609375 10.2353515625 l 1,0,-1
477.612304688 533.483398438 m 0,30,31
 477.083007812 543.17578125 477.083007812 543.17578125 476.596679688 553.067382812 c 1,32,33
 469.870117188 540.87890625 469.870117188 540.87890625 463.174804688 528.842773438 c 0,34,35
 457.91796875 519.387695312 457.91796875 519.387695312 452.423828125 509.264648438 c 128,-1,36
 446.9296875 499.141601562 446.9296875 499.141601562 441.196289062 488.342773438 c 128,-1,37
 435.461914062 477.543945312 435.461914062 477.543945312 429.493164062 466.080078125 c 0,38,39
 411.568359375 431.650390625 411.568359375 431.650390625 388.87109375 386.689453125 c 0,40,41
 368.967773438 347.260742188 368.967773438 347.260742188 344.454101562 296 c 1,42,-1
 482.518554688 296 l 1,43,44
 483.36328125 349.875976562 483.36328125 349.875976562 482.881835938 390.888671875 c 0,45,46
 482.750976562 402.104492188 482.750976562 402.104492188 482.552734375 412.666015625 c 128,-1,47
 482.35546875 423.227539062 482.35546875 423.227539062 482.091796875 433.124023438 c 128,-1,48
 481.829101562 443.021484375 481.829101562 443.021484375 481.500976562 452.255859375 c 128,-1,49
 481.171875 461.491210938 481.171875 461.491210938 480.778320312 470.065429688 c 0,50,51
 479.1953125 504.524414062 479.1953125 504.524414062 477.612304688 533.483398438 c 0,30,31
EndSplineSet
EndChar

StartChar: B
Encoding: 66 66 37
Width: 550
VWidth: 1177
Flags: W
LayerCount: 2
Fore
SplineSet
382.916992188 9.3623046875 m 0,0,1
 312.991210938 -9 312.991210938 -9 221.92578125 -9 c 0,2,3
 202.723632812 -9 202.723632812 -9 177.196289062 -7.9912109375 c 0,4,5
 164.34765625 -7.4833984375 164.34765625 -7.4833984375 150.723632812 -6.470703125 c 128,-1,6
 137.099609375 -5.45703125 137.099609375 -5.45703125 122.920898438 -3.9384765625 c 0,7,8
 95.66796875 -0.9111328125 95.66796875 -0.9111328125 67.4384765625 3.626953125 c 0,9,10
 38.703125 8.1201171875 38.703125 8.1201171875 15.9931640625 15.1513671875 c 2,11,-1
 7.130859375 17.89453125 l 1,12,-1
 9.30078125 26.6943359375 l 1,13,-1
 180.03515625 707.807617188 l 1,14,-1
 181.528320312 713.544921875 l 1,15,-1
 187.732421875 714.9765625 l 2,16,17
 213.528320312 720.926757812 213.528320312 720.926757812 241.96875 724.887695312 c 0,18,19
 270.077148438 728.911132812 270.077148438 728.911132812 297.14453125 731.931640625 c 0,20,21
 310.778320312 733.452148438 310.778320312 733.452148438 323.891601562 734.467773438 c 128,-1,22
 337.00390625 735.482421875 337.00390625 735.482421875 349.599609375 735.991210938 c 128,-1,23
 362.094726562 736.495117188 362.094726562 736.495117188 372.874023438 736.748046875 c 128,-1,24
 383.654296875 737 383.654296875 737 392.755859375 737 c 0,25,26
 447.7421875 737 447.7421875 737 492.15234375 727.2421875 c 0,27,28
 514.65625 722.423828125 514.65625 722.423828125 533.188476562 714.624023438 c 128,-1,29
 551.719726562 706.823242188 551.719726562 706.823242188 567.32421875 696.016601562 c 0,30,31
 598.828125 674.198242188 598.828125 674.198242188 616.44140625 640.4453125 c 128,-1,32
 634.025390625 606.75 634.025390625 606.75 634.025390625 559.668945312 c 0,33,34
 634.025390625 546.125976562 634.025390625 546.125976562 632.143554688 532.833984375 c 128,-1,35
 630.26171875 519.541992188 630.26171875 519.541992188 626.515625 506.571289062 c 128,-1,36
 622.76953125 493.600585938 622.76953125 493.600585938 617.174804688 480.948242188 c 128,-1,37
 611.579101562 468.296875 611.579101562 468.296875 604.146484375 455.990234375 c 0,38,39
 595.250976562 441.262695312 595.250976562 441.262695312 581.913085938 428.133789062 c 128,-1,40
 568.576171875 415.004882812 568.576171875 415.004882812 551.672851562 403.96875 c 128,-1,41
 534.770507812 392.93359375 534.770507812 392.93359375 514.025390625 383.5390625 c 1,42,43
 551.637695312 361.68359375 551.637695312 361.68359375 570.901367188 332.947265625 c 0,44,45
 583.032226562 314.850585938 583.032226562 314.850585938 589.028320312 292.422851562 c 128,-1,46
 595.025390625 269.994140625 595.025390625 269.994140625 595.025390625 243.477539062 c 0,47,48
 595.025390625 185.793945312 595.025390625 185.793945312 572.028320312 139.520507812 c 128,-1,49
 548.940429688 93.0654296875 548.940429688 93.0654296875 501.791015625 60.013671875 c 0,50,51
 477.474609375 43.62890625 477.474609375 43.62890625 447.747070312 30.9794921875 c 128,-1,52
 418.018554688 18.3310546875 418.018554688 18.3310546875 382.916992188 9.3623046875 c 0,0,1
319.995117188 310 m 2,53,-1
 247.12109375 310 l 1,54,-1
 201.154296875 137.278320312 l 1,55,56
 206.49609375 136.736328125 206.49609375 136.736328125 212.067382812 136.283203125 c 128,-1,57
 217.639648438 135.830078125 217.639648438 135.830078125 224.276367188 135.39453125 c 0,58,59
 245.510742188 134 245.510742188 134 276.760742188 134 c 0,60,61
 287.15234375 134 287.15234375 134 299.258789062 130.512695312 c 128,-1,62
 311.366210938 127.026367188 311.366210938 127.026367188 325.088867188 120 c 0,63,64
 351.907226562 125.958007812 351.907226562 125.958007812 375.232421875 139.848632812 c 0,65,66
 382.787109375 144.348632812 382.787109375 144.348632812 389.577148438 150.0078125 c 128,-1,67
 396.368164062 155.66796875 396.368164062 155.66796875 402.487304688 162.598632812 c 128,-1,68
 408.606445312 169.528320312 408.606445312 169.528320312 414.008789062 177.711914062 c 0,69,70
 429.6640625 201.423828125 429.6640625 201.423828125 429.6640625 237.262695312 c 0,71,72
 429.665039062 280.33984375 429.665039062 280.33984375 402.216796875 294.276367188 c 0,73,74
 371.25 310 371.25 310 319.995117188 310 c 2,53,-1
321.365234375 592.625 m 1,75,-1
 283.677734375 447 l 1,76,-1
 317.88671875 447 l 2,77,78
 332.671875 447 332.671875 447 347.186523438 448.244140625 c 128,-1,79
 361.700195312 449.48828125 361.700195312 449.48828125 375.959960938 451.9765625 c 0,80,81
 389.961914062 454.418945312 389.961914062 454.418945312 402.489257812 458.385742188 c 128,-1,82
 415.015625 462.3515625 415.015625 462.3515625 426.125 467.833984375 c 0,83,84
 431.529296875 470.500976562 431.529296875 470.500976562 436.422851562 473.624023438 c 128,-1,85
 441.317382812 476.748046875 441.317382812 476.748046875 445.734375 480.353515625 c 128,-1,86
 450.151367188 483.958984375 450.151367188 483.958984375 454.091796875 488.046875 c 128,-1,87
 458.030273438 492.134765625 458.030273438 492.134765625 461.520507812 496.731445312 c 0,88,89
 465.975585938 502.600585938 465.975585938 502.600585938 468.953125 509.3203125 c 128,-1,90
 471.930664062 516.040039062 471.930664062 516.040039062 473.46875 523.90625 c 128,-1,91
 475.008789062 531.7734375 475.008789062 531.7734375 475.0078125 540.670898438 c 0,92,93
 475.008789062 548.6953125 475.008789062 548.6953125 473.586914062 555.208007812 c 128,-1,94
 472.166992188 561.721679688 472.166992188 561.721679688 469.3203125 566.783203125 c 128,-1,95
 466.47265625 571.84375 466.47265625 571.84375 462.4140625 575.6171875 c 128,-1,96
 458.354492188 579.389648438 458.354492188 579.389648438 452.8671875 582.203125 c 0,97,98
 440.685546875 588.4453125 440.685546875 588.4453125 422.985351562 591.72265625 c 128,-1,99
 405.286132812 595 405.286132812 595 382.2109375 595 c 0,100,101
 362.330078125 595 362.330078125 595 344.559570312 594.536132812 c 0,102,103
 332.125 594.2109375 332.125 594.2109375 321.365234375 592.625 c 1,75,-1
EndSplineSet
EndChar

StartChar: C
Encoding: 67 67 38
Width: 550
VWidth: 1177
Flags: W
LayerCount: 2
Fore
SplineSet
396.147460938 -11.03515625 m 128,-1,1
 363.6875 -15 363.6875 -15 327.57421875 -15 c 0,2,3
 311.288085938 -15 311.288085938 -15 296.0234375 -13.8427734375 c 128,-1,4
 280.7578125 -12.6845703125 280.7578125 -12.6845703125 266.439453125 -10.357421875 c 128,-1,5
 252.122070312 -8.0302734375 252.122070312 -8.0302734375 238.775390625 -4.5068359375 c 128,-1,6
 225.428710938 -0.982421875 225.428710938 -0.982421875 213.110351562 3.7294921875 c 0,7,8
 188.875 12.896484375 188.875 12.896484375 169.500976562 26.1162109375 c 128,-1,9
 150.125976562 39.3349609375 150.125976562 39.3349609375 134.837890625 56.5322265625 c 128,-1,10
 119.600585938 73.671875 119.600585938 73.671875 108.338867188 94.4580078125 c 128,-1,11
 97.076171875 115.244140625 97.076171875 115.244140625 89.798828125 139.541015625 c 0,12,13
 75.3984375 187.6171875 75.3984375 187.6171875 75.3984375 244.512695312 c 0,14,15
 75.3984375 273.510742188 75.3984375 273.510742188 78.1064453125 302.783203125 c 128,-1,16
 80.814453125 332.055664062 80.814453125 332.055664062 86.220703125 361.559570312 c 128,-1,17
 91.6279296875 391.063476562 91.6279296875 391.063476562 99.732421875 420.825195312 c 0,18,19
 124.16015625 510.51953125 124.16015625 510.51953125 173.586914062 582.466796875 c 0,20,21
 224.893554688 654.818359375 224.893554688 654.818359375 304.561523438 700.235351562 c 0,22,23
 384.837890625 746 384.837890625 746 492.529296875 746 c 0,24,25
 534.056640625 746 534.056640625 746 565.90234375 738.181640625 c 0,26,27
 595.42578125 730.545898438 595.42578125 730.545898438 618.432617188 721.854492188 c 0,28,29
 624.305664062 719.981445312 624.305664062 719.981445312 629.619140625 718.028320312 c 128,-1,30
 634.932617188 716.075195312 634.932617188 716.075195312 639.788085938 714.000976562 c 128,-1,31
 644.643554688 711.926757812 644.643554688 711.926757812 649.00390625 709.725585938 c 128,-1,32
 653.365234375 707.524414062 653.365234375 707.524414062 657.2109375 705.205078125 c 0,33,34
 660.787109375 703.047851562 660.787109375 703.047851562 663.799804688 701.194335938 c 128,-1,35
 666.8125 699.340820312 666.8125 699.340820312 669.390625 697.708984375 c 128,-1,36
 671.96875 696.077148438 671.96875 696.077148438 674.064453125 694.692382812 c 128,-1,37
 676.161132812 693.30859375 676.161132812 693.30859375 677.799804688 692.155273438 c 2,38,-1
 683.794921875 687.936523438 l 1,39,-1
 680.40625 682.000976562 l 1,40,-1
 626.40625 583.452148438 l 1,41,-1
 621.125976562 572.5 l 1,42,-1
 611.3984375 579.794921875 l 2,43,44
 599.962890625 588.372070312 599.962890625 588.372070312 586.671875 595.67578125 c 128,-1,45
 573.380859375 602.979492188 573.380859375 602.979492188 557.889648438 609 c 0,46,47
 542.41015625 604.567382812 542.41015625 604.567382812 521.782226562 602.283203125 c 128,-1,48
 501.155273438 600 501.155273438 600 475.610351562 600 c 0,49,50
 418.032226562 600 418.032226562 600 376.006835938 569.05859375 c 0,51,52
 354.36328125 553.124023438 354.36328125 553.124023438 336.124023438 532.880859375 c 128,-1,53
 317.884765625 512.637695312 317.884765625 512.637695312 303.012695312 487.986328125 c 0,54,55
 295.538085938 475.595703125 295.538085938 475.595703125 289.02734375 462.55859375 c 128,-1,56
 282.516601562 449.522460938 282.516601562 449.522460938 276.962890625 435.819335938 c 128,-1,57
 271.409179688 422.116210938 271.409179688 422.116210938 266.81640625 407.743164062 c 128,-1,58
 262.224609375 393.370117188 262.224609375 393.370117188 258.59765625 378.3359375 c 0,59,60
 244.0390625 317.971679688 244.0390625 317.971679688 244.0390625 260.5078125 c 0,61,62
 244.0390625 231 244.0390625 231 250.596679688 207.2109375 c 0,63,64
 256.95703125 184.135742188 256.95703125 184.135742188 271.029296875 166.97265625 c 0,65,66
 277.8671875 158.631835938 277.8671875 158.631835938 286.920898438 152.234375 c 128,-1,67
 295.973632812 145.8359375 295.973632812 145.8359375 307.491210938 141.265625 c 0,68,69
 330.84375 132 330.84375 132 366.698242188 132 c 0,70,71
 421.971679688 132 421.971679688 132 458.844726562 144.419921875 c 0,72,73
 496.512695312 157.107421875 496.512695312 157.107421875 521.038085938 170.637695312 c 2,74,-1
 534.69921875 178.174804688 l 1,75,-1
 536.842773438 163.354492188 l 1,76,-1
 553.762695312 46.3544921875 l 1,77,-1
 554.696289062 39.8857421875 l 1,78,-1
 548.810546875 36.4736328125 l 2,79,80
 514.828125 16.7763671875 514.828125 16.7763671875 457.430664062 0.90234375 c 0,81,0
 428.608398438 -7.0693359375 428.608398438 -7.0693359375 396.147460938 -11.03515625 c 128,-1,1
EndSplineSet
EndChar

StartChar: D
Encoding: 68 68 39
Width: 550
VWidth: 1177
Flags: W
LayerCount: 2
Fore
SplineSet
325.881835938 609 m 2,0,-1
 206.055664062 137.005859375 l 2,1,2
 206.583007812 137.005859375 206.583007812 137.005859375 206.607421875 137.002929688 c 128,-1,3
 206.631835938 137 206.631835938 137 207.159179688 137 c 2,4,-1
 220.337890625 137 l 2,5,6
 254.168945312 137 254.168945312 137 282.544921875 144.80078125 c 128,-1,7
 310.921875 152.602539062 310.921875 152.602539062 334.29296875 168.1875 c 0,8,9
 350.169921875 178.774414062 350.169921875 178.774414062 363.876953125 191.272460938 c 128,-1,10
 377.583984375 203.771484375 377.583984375 203.771484375 389.180664062 218.247070312 c 128,-1,11
 400.776367188 232.72265625 400.776367188 232.72265625 410.265625 249.194335938 c 0,12,13
 424.674804688 274.205078125 424.674804688 274.205078125 435.233398438 301.580078125 c 128,-1,14
 445.793945312 328.955078125 445.793945312 328.955078125 452.505859375 358.737304688 c 128,-1,15
 459.2578125 388.702148438 459.2578125 388.702148438 462.627929688 417.077148438 c 128,-1,16
 465.998046875 445.452148438 465.998046875 445.452148438 465.998046875 472.232421875 c 0,17,18
 465.998046875 498.1953125 465.998046875 498.1953125 461.419921875 521.298828125 c 0,19,20
 457.063476562 543.284179688 457.063476562 543.284179688 445.625976562 558.868164062 c 0,21,22
 434.588867188 573.91015625 434.588867188 573.91015625 415.073242188 582.352539062 c 0,23,24
 395.083984375 591 395.083984375 591 362.673828125 591 c 0,25,26
 359.219726562 591 359.219726562 591 355.3984375 592.296875 c 128,-1,27
 351.578125 593.594726562 351.578125 593.594726562 347.778320312 595.966796875 c 128,-1,28
 343.978515625 598.338867188 343.978515625 598.338867188 340.158203125 601.645507812 c 128,-1,29
 336.337890625 604.952148438 336.337890625 604.952148438 332.743164062 609 c 0,30,31
 329.1484375 609 329.1484375 609 325.881835938 609 c 2,0,-1
564.014648438 669.459960938 m 0,32,33
 634.497070312 601.860351562 634.497070312 601.860351562 634.497070312 479.015625 c 0,34,35
 634.497070312 448.120117188 634.497070312 448.120117188 631.963867188 417.760742188 c 128,-1,36
 629.4296875 387.401367188 629.4296875 387.401367188 624.361328125 357.57421875 c 128,-1,37
 619.29296875 327.747070312 619.29296875 327.747070312 611.69140625 298.473632812 c 0,38,39
 588.72265625 210.0234375 588.72265625 210.0234375 538.1015625 141.827148438 c 0,40,41
 485.74609375 73.2880859375 485.74609375 73.2880859375 401.317382812 32.310546875 c 0,42,43
 358.931640625 11.73828125 358.931640625 11.73828125 307.857421875 1.5087890625 c 0,44,45
 256.783203125 -9 256.783203125 -9 197.142578125 -9 c 0,46,47
 176.857421875 -9 176.857421875 -9 153.979492188 -7.990234375 c 128,-1,48
 131.1015625 -6.9814453125 131.1015625 -6.9814453125 106.666015625 -4.9658203125 c 0,49,50
 58.0029296875 -0.91015625 58.0029296875 -0.91015625 16.3525390625 8.232421875 c 2,51,-1
 6.3916015625 10.359375 l 1,52,-1
 8.7734375 20.0048828125 l 1,53,-1
 182.673828125 712.5390625 l 1,54,-1
 184.228515625 718.51171875 l 1,55,-1
 190.743164062 719.783203125 l 2,56,57
 246.215820312 730.913085938 246.215820312 730.913085938 284.831054688 733.965820312 c 0,58,59
 323.223632812 737 323.223632812 737 363.727539062 737 c 0,60,61
 492.458984375 737 492.458984375 737 564.014648438 669.459960938 c 0,32,33
EndSplineSet
EndChar

StartChar: E
Encoding: 69 69 40
Width: 550
VWidth: 1177
Flags: W
LayerCount: 2
Fore
SplineSet
22 0 m 1,0,-1
 24.9609375 12.001953125 l 1,1,-1
 202.916015625 721.333984375 l 1,2,-1
 204.849609375 729 l 1,3,-1
 213.134765625 729 l 1,4,-1
 661.684570312 729 l 1,5,-1
 674.286132812 729 l 1,6,-1
 671.422851562 718.48046875 l 1,7,-1
 643.422851562 615.624023438 l 1,8,-1
 641.620117188 609 l 1,9,-1
 633.684570312 609 l 1,10,-1
 343.3046875 609 l 1,11,-1
 306.391601562 455 l 1,12,-1
 555.684570312 455 l 1,13,-1
 568.286132812 455 l 1,14,-1
 565.422851562 442.727539062 l 1,15,-1
 536.563476562 322.727539062 l 1,16,-1
 534.668945312 315 l 1,17,-1
 526.328125 315 l 1,18,-1
 271.876953125 315 l 1,19,-1
 225.40234375 120 l 1,20,-1
 541.041992188 120 l 1,21,-1
 554.286132812 120 l 1,22,-1
 551.276367188 109.583007812 l 1,23,-1
 521.849609375 7.7275390625 l 1,24,-1
 519.955078125 0 l 1,25,-1
 511.614257812 0 l 1,26,-1
 34.6845703125 0 l 1,27,-1
 22 0 l 1,0,-1
EndSplineSet
EndChar

StartChar: F
Encoding: 70 70 41
Width: 550
VWidth: 1177
Flags: W
LayerCount: 2
Fore
SplineSet
26 0 m 1,0,-1
 28.94140625 11.9892578125 l 1,1,-1
 205.737304688 721.321289062 l 1,2,-1
 207.659179688 729 l 1,3,-1
 215.94140625 729 l 1,4,-1
 680.66796875 729 l 1,5,-1
 693.26953125 729 l 1,6,-1
 690.40625 718.48046875 l 1,7,-1
 662.40625 615.624023438 l 1,8,-1
 660.602539062 609 l 1,9,-1
 652.66796875 609 l 1,10,-1
 347.983398438 609 l 1,11,-1
 307.969726562 442 l 1,12,-1
 571.58984375 442 l 1,13,-1
 584.372070312 442 l 1,14,-1
 581.387695312 429.651367188 l 1,15,-1
 551.362304688 309.651367188 l 1,16,-1
 549.422851562 302 l 1,17,-1
 541.166015625 302 l 1,18,-1
 272.46875 302 l 1,19,-1
 195.717773438 7.6630859375 l 1,20,-1
 193.78515625 0 l 1,21,-1
 185.517578125 0 l 1,22,-1
 38.66796875 0 l 1,23,-1
 26 0 l 1,0,-1
EndSplineSet
EndChar

StartChar: G
Encoding: 71 71 42
Width: 550
VWidth: 1177
Flags: W
LayerCount: 2
Fore
SplineSet
378.255859375 -11.951171875 m 128,-1,1
 344.731445312 -15 344.731445312 -15 308.333007812 -15 c 0,2,3
 187.555664062 -15 187.555664062 -15 130.553710938 53.9140625 c 0,4,5
 74.33984375 121.875 74.33984375 121.875 74.33984375 244.188476562 c 0,6,7
 74.33984375 331.28125 74.33984375 331.28125 100.21484375 420.759765625 c 0,8,9
 126.165039062 510.5 126.165039062 510.5 177.107421875 582.474609375 c 0,10,11
 230.208984375 654.834960938 230.208984375 654.834960938 311.302734375 700.251953125 c 0,12,13
 392.98828125 746 392.98828125 746 503.599609375 746 c 0,14,15
 545.051757812 746 545.051757812 746 576.84375 738.181640625 c 0,16,17
 606.3671875 730.545898438 606.3671875 730.545898438 629.374023438 721.854492188 c 0,18,19
 635.247070312 719.981445312 635.247070312 719.981445312 640.560546875 718.028320312 c 128,-1,20
 645.874023438 716.075195312 645.874023438 716.075195312 650.729492188 714.000976562 c 128,-1,21
 655.584960938 711.926757812 655.584960938 711.926757812 659.9453125 709.725585938 c 128,-1,22
 664.306640625 707.524414062 664.306640625 707.524414062 668.15234375 705.205078125 c 0,23,24
 671.728515625 703.047851562 671.728515625 703.047851562 674.741210938 701.194335938 c 128,-1,25
 677.75390625 699.340820312 677.75390625 699.340820312 680.33203125 697.708984375 c 128,-1,26
 682.91015625 696.077148438 682.91015625 696.077148438 685.005859375 694.692382812 c 128,-1,27
 687.102539062 693.30859375 687.102539062 693.30859375 688.741210938 692.155273438 c 2,28,-1
 694.736328125 687.936523438 l 1,29,-1
 691.34765625 682.000976562 l 1,30,-1
 637.34765625 583.452148438 l 1,31,-1
 632.067382812 572.5 l 1,32,-1
 622.33984375 579.794921875 l 2,33,34
 610.904296875 588.372070312 610.904296875 588.372070312 597.61328125 595.67578125 c 128,-1,35
 584.322265625 602.979492188 584.322265625 602.979492188 568.841796875 609 c 0,36,37
 553.390625 604.567382812 553.390625 604.567382812 532.799804688 602.283203125 c 128,-1,38
 512.209960938 600 512.209960938 600 486.7109375 600 c 0,39,40
 426.962890625 600 426.962890625 600 382.306640625 568.890625 c 0,41,42
 359.389648438 552.92578125 359.389648438 552.92578125 340.020507812 532.662109375 c 128,-1,43
 320.65234375 512.3984375 320.65234375 512.3984375 304.778320312 487.73828125 c 0,44,45
 272.860351562 438.153320312 272.860351562 438.153320312 257.391601562 378.177734375 c 0,46,47
 241.837890625 317.875 241.837890625 317.875 241.836914062 260.478515625 c 0,48,49
 241.836914062 201.676757812 241.836914062 201.676757812 265.215820312 165.06640625 c 0,50,51
 286.96875 131 286.96875 131 339.998046875 131 c 0,52,53
 355.479492188 131 355.479492188 131 370.9609375 131.977539062 c 2,54,-1
 392.627929688 133.94921875 l 1,55,-1
 458.50390625 394.331054688 l 1,56,-1
 460.443359375 402 l 1,57,-1
 468.767578125 402 l 1,58,-1
 619.33984375 402 l 1,59,-1
 632.045898438 402 l 1,60,-1
 629.059570312 389.650390625 l 1,61,-1
 539.190429688 25.650390625 l 1,62,-1
 537.817382812 20.2646484375 l 1,63,-1
 532.26953125 18.5126953125 l 2,64,65
 503.198242188 9.33203125 503.198242188 9.33203125 442.4453125 -2.78515625 c 0,66,0
 411.780273438 -8.9013671875 411.780273438 -8.9013671875 378.255859375 -11.951171875 c 128,-1,1
EndSplineSet
EndChar

StartChar: H
Encoding: 72 72 43
Width: 550
VWidth: 1177
Flags: W
LayerCount: 2
Fore
SplineSet
708.369140625 729 m 1,0,-1
 705.408203125 716.998046875 l 1,1,-1
 527.798828125 7.666015625 l 1,2,-1
 525.876953125 0 l 1,3,-1
 517.638671875 0 l 1,4,-1
 365.067382812 0 l 1,5,-1
 351.743164062 0 l 1,6,-1
 354.91796875 12.3828125 l 1,7,-1
 434.298828125 322 l 1,8,-1
 252.092773438 322 l 1,9,-1
 173.543945312 7.673828125 l 1,10,-1
 171.625976562 0 l 1,11,-1
 163.380859375 0 l 1,12,-1
 16.6845703125 0 l 1,13,-1
 4 0 l 1,14,-1
 6.9609375 12.001953125 l 1,15,-1
 184.569335938 721.333984375 l 1,16,-1
 186.4921875 729 l 1,17,-1
 194.73046875 729 l 1,18,-1
 346.256835938 729 l 1,19,-1
 359.517578125 729 l 1,20,-1
 356.416992188 716.662109375 l 1,21,-1
 287.412109375 442 l 1,22,-1
 468.647460938 442 l 1,23,-1
 538.828125 721.337890625 l 1,24,-1
 540.752929688 729 l 1,25,-1
 548.98828125 729 l 1,26,-1
 695.684570312 729 l 1,27,-1
 708.369140625 729 l 1,0,-1
EndSplineSet
EndChar

StartChar: I
Encoding: 73 73 44
Width: 550
VWidth: 1177
Flags: W
LayerCount: 2
Fore
SplineSet
12 0 m 1,0,-1
 14.86328125 10.51953125 l 1,1,-1
 42.86328125 113.375976562 l 1,2,-1
 44.6669921875 120 l 1,3,-1
 52.6015625 120 l 1,4,-1
 209.203125 120 l 1,5,-1
 326.734375 609 l 1,6,-1
 172.4296875 609 l 1,7,-1
 159.124023438 609 l 1,8,-1
 162.25 619.483398438 l 1,9,-1
 192.623046875 721.348632812 l 1,10,-1
 194.559570312 729 l 1,11,-1
 202.803710938 729 l 1,12,-1
 681.6015625 729 l 1,13,-1
 694.204101562 729 l 1,14,-1
 691.340820312 718.48046875 l 1,15,-1
 663.340820312 615.624023438 l 1,16,-1
 661.537109375 609 l 1,17,-1
 653.6015625 609 l 1,18,-1
 500.141601562 609 l 1,19,-1
 382.611328125 120 l 1,20,-1
 533.772460938 120 l 1,21,-1
 546.97265625 120 l 1,22,-1
 543.973632812 109.583007812 l 1,23,-1
 514.647460938 7.7275390625 l 1,24,-1
 512.7578125 0 l 1,25,-1
 504.446289062 0 l 1,26,-1
 24.6015625 0 l 1,27,-1
 12 0 l 1,0,-1
EndSplineSet
EndChar

StartChar: J
Encoding: 74 74 45
Width: 550
VWidth: 1177
Flags: W
LayerCount: 2
Fore
SplineSet
680.809570312 717.0234375 m 1,0,-1
 565.810546875 245.068359375 l 2,1,2
 562.455078125 231.506835938 562.455078125 231.506835938 558.529296875 218.373046875 c 128,-1,3
 554.6015625 205.239257812 554.6015625 205.239257812 550.205078125 192.522460938 c 128,-1,4
 545.807617188 179.8046875 545.807617188 179.8046875 540.9375 167.506835938 c 128,-1,5
 536.069335938 155.208007812 536.069335938 155.208007812 530.73046875 143.336914062 c 0,6,7
 508.971679688 94.9541015625 508.971679688 94.9541015625 472.958984375 60.0712890625 c 0,8,9
 436.692382812 24.9423828125 436.692382812 24.9423828125 382.010742188 5.18359375 c 0,10,11
 327.65625 -15 327.65625 -15 250.059570312 -15 c 0,12,13
 229.544921875 -15 229.544921875 -15 210.442382812 -13.0654296875 c 128,-1,14
 191.340820312 -11.1298828125 191.340820312 -11.1298828125 173.65234375 -7.244140625 c 0,15,16
 138.750976562 0.5048828125 138.750976562 0.5048828125 112.751953125 12.984375 c 0,17,18
 104.192382812 17.09375 104.192382812 17.09375 96.1962890625 21.43359375 c 128,-1,19
 88.201171875 25.7734375 88.201171875 25.7734375 80.7275390625 30.3720703125 c 128,-1,20
 73.2548828125 34.970703125 73.2548828125 34.970703125 66.3447265625 39.8076171875 c 0,21,22
 45.6279296875 54.3095703125 45.6279296875 54.3095703125 32.0087890625 67.9287109375 c 2,23,-1
 26.056640625 73.880859375 l 1,24,-1
 30.9052734375 80.7607421875 l 1,25,-1
 104.905273438 185.760742188 l 1,26,-1
 111.3046875 194.840820312 l 1,27,-1
 119.6640625 187.525390625 l 2,28,29
 142.973632812 167.129882812 142.973632812 167.129882812 175.599609375 148.598632812 c 0,30,31
 191.1640625 139.799804688 191.1640625 139.799804688 208.919921875 135.399414062 c 128,-1,32
 226.674804688 131 226.674804688 131 246.909179688 131 c 0,33,34
 275.283203125 131 275.283203125 131 298.180664062 137.958007812 c 128,-1,35
 321.078125 144.915039062 321.078125 144.915039062 339.021484375 158.767578125 c 0,36,37
 375.14453125 186.654296875 375.14453125 186.654296875 395.295898438 264.356445312 c 2,38,-1
 481.48046875 609 l 1,39,-1
 246.908203125 609 l 1,40,-1
 233.565429688 609 l 1,41,-1
 236.69921875 619.483398438 l 1,42,-1
 267.158203125 721.348632812 l 1,43,-1
 269.099609375 729 l 1,44,-1
 277.366210938 729 l 1,45,-1
 671.079101562 729 l 1,46,-1
 683.727539062 729 l 1,47,-1
 680.809570312 717.0234375 l 1,0,-1
EndSplineSet
EndChar

StartChar: K
Encoding: 75 75 46
Width: 550
VWidth: 1177
Flags: W
LayerCount: 2
Fore
SplineSet
471.98046875 456.483398438 m 0,0,1
 428.505859375 415.012695312 428.505859375 415.012695312 382.875976562 377.380859375 c 1,2,3
 389.530273438 369.349609375 389.530273438 369.349609375 396.0234375 360.94140625 c 128,-1,4
 402.514648438 352.533203125 402.514648438 352.533203125 408.877929688 343.708007812 c 128,-1,5
 415.240234375 334.881835938 415.240234375 334.881835938 421.473632812 325.64453125 c 128,-1,6
 427.70703125 316.40625 427.70703125 316.40625 433.870117188 306.673828125 c 0,7,8
 437.303710938 301.251953125 437.303710938 301.251953125 440.669921875 295.73046875 c 128,-1,9
 444.036132812 290.209960938 444.036132812 290.209960938 447.3359375 284.590820312 c 128,-1,10
 450.634765625 278.97265625 450.634765625 278.97265625 453.8671875 273.255859375 c 128,-1,11
 457.098632812 267.538085938 457.098632812 267.538085938 460.264648438 261.723632812 c 128,-1,12
 463.4296875 255.908203125 463.4296875 255.908203125 466.52734375 249.995117188 c 128,-1,13
 469.625976562 244.08203125 469.625976562 244.08203125 472.657226562 238.0703125 c 128,-1,14
 475.689453125 232.05859375 475.689453125 232.05859375 478.653320312 225.94921875 c 128,-1,15
 481.6171875 219.840820312 481.6171875 219.840820312 484.516601562 213.6328125 c 0,16,17
 507.659179688 164.057617188 507.659179688 164.057617188 525.543945312 113.006835938 c 128,-1,18
 543.443359375 61.916015625 543.443359375 61.916015625 555.029296875 11.78515625 c 2,19,-1
 557.752929688 0 l 1,20,-1
 544.833984375 0 l 1,21,-1
 386.30078125 0 l 1,22,-1
 377.709960938 0 l 1,23,-1
 376.063476562 8.0849609375 l 2,24,25
 367.848632812 48.451171875 367.848632812 48.451171875 351.374023438 95.837890625 c 0,26,27
 345.870117188 111.669921875 345.870117188 111.669921875 339.79296875 127.28125 c 128,-1,28
 333.715820312 142.892578125 333.715820312 142.892578125 327.06640625 158.283203125 c 128,-1,29
 320.415039062 173.674804688 320.415039062 173.674804688 313.19140625 188.846679688 c 0,30,31
 291.5 234.403320312 291.5 234.403320312 267.24609375 274.481445312 c 0,32,33
 250.100585938 302.810546875 250.100585938 302.810546875 232.799804688 325.469726562 c 1,34,-1
 152.379882812 7.642578125 l 1,35,-1
 150.446289062 0 l 1,36,-1
 142.244140625 0 l 1,37,-1
 -3.33203125 0 l 1,38,-1
 -16 0 l 1,39,-1
 -13.05859375 11.9892578125 l 1,40,-1
 163.388671875 721.321289062 l 1,41,-1
 165.298828125 729 l 1,42,-1
 173.533203125 729 l 1,43,-1
 325.807617188 729 l 1,44,-1
 339.048828125 729 l 1,45,-1
 335.947265625 716.658203125 l 1,46,-1
 267.845703125 445.63671875 l 1,47,48
 293.595703125 469.087890625 293.595703125 469.087890625 319.23828125 495.3359375 c 0,49,50
 357.6171875 534.619140625 357.6171875 534.619140625 392.874023438 575.383789062 c 128,-1,51
 428.2421875 616.276367188 428.2421875 616.276367188 459.424804688 654.646484375 c 128,-1,52
 490.455078125 692.826171875 490.455078125 692.826171875 512.125 724.486328125 c 2,53,-1
 515.21484375 729 l 1,54,-1
 520.844726562 729 l 1,55,-1
 689.66796875 729 l 1,56,-1
 709.344726562 729 l 1,57,-1
 697.74609375 713.529296875 l 2,58,59
 684.19140625 695.451171875 684.19140625 695.451171875 668.892578125 675.80078125 c 128,-1,60
 653.59375 656.151367188 653.59375 656.151367188 636.546875 634.922851562 c 0,61,62
 625.161132812 620.745117188 625.161132812 620.745117188 613.108398438 606.245117188 c 128,-1,63
 601.056640625 591.744140625 601.056640625 591.744140625 588.299804688 576.928710938 c 0,64,65
 575.041015625 562.11328125 575.041015625 562.11328125 561.083984375 546.97265625 c 0,66,67
 519.147460938 501.477539062 519.147460938 501.477539062 471.98046875 456.483398438 c 0,0,1
EndSplineSet
EndChar

StartChar: L
Encoding: 76 76 47
Width: 550
VWidth: 1177
Flags: W
LayerCount: 2
Fore
SplineSet
513.5390625 0 m 1,0,-1
 505.66796875 0 l 1,1,-1
 33.66796875 0 l 1,2,-1
 21 0 l 1,3,-1
 23.94140625 11.9892578125 l 1,4,-1
 202.216796875 721.321289062 l 1,5,-1
 204.186523438 729 l 1,6,-1
 212.673828125 729 l 1,7,-1
 368.560546875 729 l 1,8,-1
 382.193359375 729 l 1,9,-1
 379.015625 716.668945312 l 1,10,-1
 225.231445312 120 l 1,11,-1
 534.66796875 120 l 1,12,-1
 547.372070312 120 l 1,13,-1
 544.387695312 109.516601562 l 1,14,-1
 515.387695312 7.6513671875 l 1,15,-1
 513.5390625 0 l 1,0,-1
EndSplineSet
EndChar

StartChar: M
Encoding: 77 77 48
Width: 550
VWidth: 1177
Flags: W
LayerCount: 2
Fore
SplineSet
365.853515625 729 m 1,0,-1
 366.622070312 719.797851562 l 2,1,2
 367.313476562 711.509765625 367.313476562 711.509765625 368.237304688 701.493164062 c 128,-1,3
 369.162109375 691.4765625 369.162109375 691.4765625 370.3203125 679.715820312 c 128,-1,4
 371.479492188 667.955078125 371.479492188 667.955078125 372.869140625 654.482421875 c 0,5,6
 377.055664062 613.8671875 377.055664062 613.8671875 380.717773438 567.250976562 c 128,-1,7
 384.377929688 520.672851562 384.377929688 520.672851562 387.512695312 471.104492188 c 0,8,9
 389.3359375 442.3046875 389.3359375 442.3046875 391.2109375 415.286132812 c 1,10,-1
 557.8125 723.596679688 l 1,11,-1
 560.732421875 729 l 1,12,-1
 567.083007812 729 l 1,13,-1
 701.15625 729 l 1,14,-1
 712.595703125 729 l 1,15,-1
 711.06640625 717.969726562 l 2,16,17
 687.025390625 544.4765625 687.025390625 544.4765625 651.46875 368.56640625 c 128,-1,18
 615.950195312 192.845703125 615.950195312 192.845703125 574.15625 7.890625 c 2,19,-1
 572.377929688 0 l 1,20,-1
 563.952148438 0 l 1,21,-1
 425.11328125 0 l 1,22,-1
 411.674804688 0 l 1,23,-1
 414.998046875 12.4736328125 l 1,24,-1
 544.950195312 500.186523438 l 1,25,-1
 416.631835938 263.392578125 l 1,26,-1
 413.709960938 258 l 1,27,-1
 407.3671875 258 l 1,28,-1
 300.889648438 258 l 1,29,-1
 290.71484375 258 l 1,30,-1
 290.454101562 267.744140625 l 2,31,32
 288.372070312 345.522460938 288.372070312 345.522460938 282.645507812 425.314453125 c 0,33,34
 281.591796875 439.989257812 281.591796875 439.989257812 280.4765625 454.9375 c 128,-1,35
 279.361328125 469.884765625 279.361328125 469.884765625 278.255859375 484.151367188 c 128,-1,36
 277.151367188 498.418945312 277.151367188 498.418945312 276.067382812 511.895507812 c 1,37,-1
 154.475585938 7.7490234375 l 1,38,-1
 152.606445312 0 l 1,39,-1
 144.3046875 0 l 1,40,-1
 10.15625 0 l 1,41,-1
 -3 0 l 1,42,-1
 0.521484375 12.3349609375 l 2,43,44
 25.5166015625 99.8955078125 25.5166015625 99.8955078125 52.013671875 193.782226562 c 128,-1,45
 78.521484375 287.7109375 78.521484375 287.7109375 105.530273438 381.153320312 c 0,46,47
 133.229492188 474.626953125 133.229492188 474.626953125 160.915039062 561.783203125 c 0,48,49
 174.778320312 605.427734375 174.778320312 605.427734375 188.515625 645.548828125 c 128,-1,50
 202.252929688 685.669921875 202.252929688 685.669921875 215.865234375 722.275390625 c 2,51,-1
 218.298828125 729 l 1,52,-1
 225.728515625 729 l 1,53,-1
 356.215820312 729 l 1,54,-1
 365.853515625 729 l 1,0,-1
EndSplineSet
EndChar

StartChar: N
Encoding: 78 78 49
Width: 550
VWidth: 1177
Flags: W
LayerCount: 2
Fore
SplineSet
385.470703125 0 m 1,0,-1
 384.026367188 8.369140625 l 2,1,2
 363.16796875 129.114257812 363.16796875 129.114257812 334.477539062 256.391601562 c 0,3,4
 326.274414062 292.783203125 326.274414062 292.783203125 316.950195312 331.657226562 c 128,-1,5
 307.625 370.530273438 307.625 370.530273438 297.502929688 410.572265625 c 128,-1,6
 287.381835938 450.614257812 287.381835938 450.614257812 276.586914062 491.375 c 1,7,-1
 155.764648438 7.67578125 l 1,8,-1
 153.84765625 0 l 1,9,-1
 145.600585938 0 l 1,10,-1
 16.66796875 0 l 1,11,-1
 4 0 l 1,12,-1
 6.94140625 11.9892578125 l 1,13,-1
 183.510742188 721.321289062 l 1,14,-1
 185.424804688 729 l 1,15,-1
 193.67578125 729 l 1,16,-1
 323.26953125 729 l 1,17,-1
 330.98828125 729 l 1,18,-1
 333.2578125 721.940429688 l 2,19,20
 349.987304688 669.91796875 349.987304688 669.91796875 369.327148438 608.90234375 c 0,21,22
 388.739257812 547.654296875 388.739257812 547.654296875 405.002929688 484.907226562 c 128,-1,23
 421.2265625 422.315429688 421.2265625 422.315429688 435.879882812 360.719726562 c 0,24,25
 443.946289062 326.819335938 443.946289062 326.819335938 450.150390625 296.2265625 c 1,26,-1
 555.56640625 721.30859375 l 1,27,-1
 557.473632812 729 l 1,28,-1
 565.735351562 729 l 1,29,-1
 694.66796875 729 l 1,30,-1
 707.3359375 729 l 1,31,-1
 704.39453125 717.010742188 l 1,32,-1
 527.825195312 7.6787109375 l 1,33,-1
 525.91015625 0 l 1,34,-1
 517.66015625 0 l 1,35,-1
 394.336914062 0 l 1,36,-1
 385.470703125 0 l 1,0,-1
EndSplineSet
EndChar

StartChar: O
Encoding: 79 79 50
Width: 550
VWidth: 1177
Flags: W
LayerCount: 2
Fore
SplineSet
374.954101562 739.118164062 m 128,-1,1
 408.104492188 746 408.104492188 746 445.247070312 746 c 0,2,3
 550.350585938 746 550.350585938 746 607.836914062 682.291992188 c 0,4,5
 664.826171875 619.134765625 664.826171875 619.134765625 664.826171875 515.123046875 c 0,6,7
 664.826171875 499.952148438 664.826171875 499.952148438 664.037109375 483.546875 c 128,-1,8
 663.249023438 467.141601562 663.249023438 467.141601562 661.678710938 449.552734375 c 128,-1,9
 660.107421875 431.96484375 660.107421875 431.96484375 657.752929688 413.120117188 c 0,10,11
 656.866210938 406.022460938 656.866210938 406.022460938 655.829101562 398.895507812 c 128,-1,12
 654.791015625 391.768554688 654.791015625 391.768554688 653.604492188 384.61328125 c 128,-1,13
 652.416992188 377.458984375 652.416992188 377.458984375 651.080078125 370.274414062 c 128,-1,14
 649.7421875 363.08984375 649.7421875 363.08984375 648.254882812 355.876953125 c 128,-1,15
 646.768554688 348.6640625 646.768554688 348.6640625 645.130859375 341.422851562 c 128,-1,16
 643.494140625 334.181640625 643.494140625 334.181640625 641.708007812 326.911132812 c 128,-1,17
 639.920898438 319.640625 639.920898438 319.640625 637.984375 312.342773438 c 128,-1,18
 636.048828125 305.044921875 636.048828125 305.044921875 633.962890625 297.716796875 c 0,19,20
 625.594726562 268.323242188 625.594726562 268.323242188 614.565429688 239.669921875 c 128,-1,21
 603.53515625 211.017578125 603.53515625 211.017578125 589.848632812 183.116210938 c 0,22,23
 576.059570312 155.0078125 576.059570312 155.0078125 559.171875 129.956054688 c 128,-1,24
 542.1328125 104.904296875 542.1328125 104.904296875 520.973632812 82.9521484375 c 0,25,26
 478.313476562 38.693359375 478.313476562 38.693359375 420.888671875 12.0380859375 c 0,27,28
 391.908203125 -1.4140625 391.908203125 -1.4140625 358.7578125 -8.1181640625 c 128,-1,29
 325.607421875 -15 325.607421875 -15 288.463867188 -15 c 0,30,31
 181.298828125 -15 181.298828125 -15 124.311523438 48.2255859375 c 0,32,33
 105.412109375 69.193359375 105.412109375 69.193359375 92.8251953125 94.900390625 c 128,-1,34
 80.23828125 120.607421875 80.23828125 120.607421875 74.0322265625 150.565429688 c 128,-1,35
 67.826171875 180.5234375 67.826171875 180.5234375 67.826171875 214.90234375 c 0,36,37
 67.826171875 226.283203125 67.826171875 226.283203125 68.26953125 238.354492188 c 128,-1,38
 68.712890625 250.424804688 68.712890625 250.424804688 69.5986328125 263.17578125 c 128,-1,39
 70.484375 275.92578125 70.484375 275.92578125 71.80859375 289.350585938 c 128,-1,40
 73.1337890625 302.775390625 73.1337890625 302.775390625 74.8994140625 316.90625 c 128,-1,41
 76.6748046875 331.108398438 76.6748046875 331.108398438 79.08203125 345.431640625 c 128,-1,42
 81.490234375 359.75390625 81.490234375 359.75390625 84.5302734375 374.188476562 c 128,-1,43
 87.5703125 388.624023438 87.5703125 388.624023438 91.240234375 403.169921875 c 128,-1,44
 94.91015625 417.716796875 94.91015625 417.716796875 99.2109375 432.381835938 c 0,45,46
 116.431640625 491.096679688 116.431640625 491.096679688 143.272460938 546.845703125 c 0,47,48
 152.299804688 565.595703125 152.299804688 565.595703125 162.814453125 583.036132812 c 128,-1,49
 173.329101562 600.4765625 173.329101562 600.4765625 185.342773438 616.618164062 c 0,50,51
 197.921875 632.760742188 197.921875 632.760742188 212.21484375 647.56640625 c 0,52,53
 233.782226562 669.912109375 233.782226562 669.912109375 258.958984375 687.778320312 c 128,-1,54
 284.133789062 705.645507812 284.133789062 705.645507812 312.823242188 718.961914062 c 0,55,0
 341.803710938 732.4140625 341.803710938 732.4140625 374.954101562 739.118164062 c 128,-1,1
250.857421875 156.28125 m 0,56,57
 264.3828125 131 264.3828125 131 305.4140625 131 c 0,58,59
 351.466796875 131 351.466796875 131 386.438476562 167.060546875 c 0,60,61
 423.364257812 205.135742188 423.364257812 205.135742188 448.11328125 261.6171875 c 0,62,63
 473.12109375 318.692382812 473.12109375 318.692382812 485.116210938 383.861328125 c 0,64,65
 497.155273438 449.255859375 497.155273438 449.255859375 497.15625 503.130859375 c 0,66,67
 497.155273438 524.21875 497.155273438 524.21875 493.16015625 541.96484375 c 128,-1,68
 489.165039062 559.711914062 489.165039062 559.711914062 481.294921875 574.18359375 c 0,69,70
 474.190429688 587.25 474.190429688 587.25 461.401367188 593.625 c 128,-1,71
 448.611328125 600 448.611328125 600 428.297851562 600 c 0,72,73
 382.196289062 600 382.196289062 600 346.16015625 563.405273438 c 0,74,75
 327.241210938 544.193359375 327.241210938 544.193359375 311.706054688 520.479492188 c 128,-1,76
 296.169921875 496.766601562 296.169921875 496.766601562 284.038085938 468.487304688 c 0,77,78
 259.540039062 411.388671875 259.540039062 411.388671875 247.537109375 345.7109375 c 0,79,80
 235.497070312 279.831054688 235.497070312 279.831054688 235.497070312 226.91015625 c 0,81,82
 235.497070312 184.9921875 235.497070312 184.9921875 250.857421875 156.28125 c 0,56,57
EndSplineSet
EndChar

StartChar: P
Encoding: 80 80 51
Width: 550
VWidth: 1177
Flags: W
LayerCount: 2
Fore
SplineSet
302.497070312 732.966796875 m 0,0,1
 354.42578125 737 354.42578125 737 394.793945312 737 c 0,2,3
 429.668945312 737 429.668945312 737 459.724609375 733.28125 c 128,-1,4
 489.780273438 729.563476562 489.780273438 729.563476562 515.115234375 722.046875 c 0,5,6
 532.030273438 717.129882812 532.030273438 717.129882812 546.5 710.779296875 c 0,7,8
 560.743164062 704.427734375 560.743164062 704.427734375 573.260742188 696.543945312 c 128,-1,9
 585.778320312 688.66015625 585.778320312 688.66015625 596.376953125 679.313476562 c 0,10,11
 628.228515625 651.227539062 628.228515625 651.227539062 642.58203125 612.682617188 c 0,12,13
 649.645507812 593.712890625 649.645507812 593.712890625 653.166992188 573.014648438 c 128,-1,14
 656.6875 552.31640625 656.6875 552.31640625 656.6875 529.959960938 c 0,15,16
 656.6875 455.104492188 656.6875 455.104492188 627.598632812 399.12109375 c 128,-1,17
 598.478515625 343.07421875 598.478515625 343.07421875 546.9609375 307.383789062 c 0,18,19
 493.879882812 272.05078125 493.879882812 272.05078125 420.537109375 254.456054688 c 0,20,21
 347.775390625 237 347.775390625 237 259.20703125 237 c 2,22,-1
 235.938476562 237 l 1,23,-1
 174.826171875 7.6396484375 l 1,24,-1
 172.875 0 l 1,25,-1
 164.612304688 0 l 1,26,-1
 17.6875 0 l 1,27,-1
 5 0 l 1,28,-1
 7.9638671875 12.0029296875 l 1,29,-1
 183.821289062 712.540039062 l 1,30,-1
 185.454101562 718.825195312 l 1,31,-1
 192.344726562 719.869140625 l 2,32,33
 200.65625 721.163085938 200.65625 721.163085938 208.83984375 722.354492188 c 128,-1,34
 217.022460938 723.545898438 217.022460938 723.545898438 225.081054688 724.635742188 c 128,-1,35
 233.140625 725.724609375 233.140625 725.724609375 241.0703125 726.711914062 c 128,-1,36
 248.999023438 727.698242188 248.999023438 727.698242188 256.805664062 728.583007812 c 128,-1,37
 264.611328125 729.467773438 264.611328125 729.467773438 272.288085938 730.249023438 c 128,-1,38
 279.965820312 731.03125 279.965820312 731.03125 287.51953125 731.7109375 c 128,-1,39
 295.072265625 732.390625 295.072265625 732.390625 302.497070312 732.966796875 c 0,0,1
465.067382812 569.526367188 m 128,-1,41
 441.881835938 591 441.881835938 591 374.82421875 591 c 0,42,43
 366.526367188 591 366.526367188 591 359.538085938 592.05078125 c 128,-1,44
 352.55078125 593.1015625 352.55078125 593.1015625 346.921875 595.177734375 c 0,45,46
 338.692382812 598.21484375 338.692382812 598.21484375 326.56640625 609 c 1,47,-1
 271.5078125 382 l 1,48,-1
 294.943359375 382 l 2,49,50
 343.436523438 382 343.436523438 382 379.786132812 390.681640625 c 128,-1,51
 416.133789062 399.362304688 416.133789062 399.362304688 440.420898438 416.291015625 c 0,52,53
 488.338867188 449.69140625 488.338867188 449.69140625 488.338867188 508.926757812 c 0,54,40
 488.338867188 547.974609375 488.338867188 547.974609375 465.067382812 569.526367188 c 128,-1,41
EndSplineSet
EndChar

StartChar: Q
Encoding: 81 81 52
Width: 550
VWidth: 1177
Flags: W
LayerCount: 2
Fore
SplineSet
374.198242188 739.118164062 m 128,-1,1
 407.359375 746 407.359375 746 444.514648438 746 c 0,2,3
 549.619140625 746 549.619140625 746 606.608398438 682.291015625 c 0,4,5
 663.067382812 619.174804688 663.067382812 619.174804688 663.067382812 515.241210938 c 0,6,7
 663.067382812 471.81640625 663.067382812 471.81640625 656.49609375 418.658203125 c 128,-1,8
 649.921875 365.484375 649.921875 365.484375 635.7734375 309.890625 c 0,9,10
 631.034179688 291.266601562 631.034179688 291.266601562 625.109375 272.862304688 c 128,-1,11
 619.184570312 254.45703125 619.184570312 254.45703125 612.080078125 236.284179688 c 128,-1,12
 604.974609375 218.111328125 604.974609375 218.111328125 596.688476562 200.163085938 c 0,13,14
 571.725585938 146.096679688 571.725585938 146.096679688 536.686523438 101.40625 c 0,15,16
 499.524414062 56.2138671875 499.524414062 56.2138671875 448.669921875 26.0693359375 c 0,17,18
 443.895507812 23.23828125 443.895507812 23.23828125 438.9765625 20.59765625 c 128,-1,19
 434.057617188 17.95703125 434.057617188 17.95703125 429.0234375 15.5205078125 c 128,-1,20
 423.987304688 13.083984375 423.987304688 13.083984375 418.818359375 10.8369140625 c 128,-1,21
 413.649414062 8.58984375 413.649414062 8.58984375 408.362304688 6.5419921875 c 128,-1,22
 403.075195312 4.4384765625 403.075195312 4.4384765625 397.665039062 2.5302734375 c 128,-1,23
 392.255859375 0.6220703125 392.255859375 0.6220703125 386.724609375 -1.0859375 c 128,-1,24
 381.194335938 -2.7939453125 381.194335938 -2.7939453125 375.553710938 -4.3076171875 c 128,-1,25
 369.912109375 -5.8203125 369.912109375 -5.8203125 364.1484375 -7.138671875 c 128,-1,26
 358.385742188 -8.4560546875 358.385742188 -8.4560546875 352.520507812 -9.5791015625 c 128,-1,27
 346.657226562 -10.701171875 346.657226562 -10.701171875 340.669921875 -11.6328125 c 1,28,29
 340.904296875 -24.7451171875 340.904296875 -24.7451171875 351.29296875 -35.7275390625 c 128,-1,30
 361.678710938 -46.7099609375 361.678710938 -46.7099609375 384.515625 -55.783203125 c 0,31,32
 433.512695312 -75.251953125 433.512695312 -75.251953125 507.310546875 -84.0791015625 c 2,33,-1
 521.751953125 -85.806640625 l 1,34,-1
 515.573242188 -98.244140625 l 1,35,-1
 467.88671875 -194.244140625 l 1,36,-1
 464.58203125 -200.896484375 l 1,37,-1
 456.8671875 -199.909179688 l 2,38,39
 393.25 -191.76953125 393.25 -191.76953125 345.173828125 -177.203125 c 128,-1,40
 297.095703125 -162.63671875 297.095703125 -162.63671875 264.181640625 -141.234375 c 0,41,42
 196.544921875 -97.25390625 196.544921875 -97.25390625 196.544921875 -15 c 2,43,-1
 196.544921875 -5.5 l 2,44,45
 196.544921875 -3.8330078125 196.544921875 -3.8330078125 196.83984375 -1.2529296875 c 0,46,47
 136.86328125 22.2646484375 136.86328125 22.2646484375 103.499023438 76.25 c 0,48,49
 96.376953125 87.7744140625 96.376953125 87.7744140625 90.6845703125 100.293945312 c 128,-1,50
 84.9921875 112.814453125 84.9921875 112.814453125 80.75390625 126.235351562 c 128,-1,51
 76.515625 139.65625 76.515625 139.65625 73.6923828125 154.045898438 c 128,-1,52
 70.869140625 168.435546875 70.869140625 168.435546875 69.46875 183.694335938 c 128,-1,53
 68.0673828125 198.954101562 68.0673828125 198.954101562 68.0673828125 215.154296875 c 0,54,55
 68.0673828125 226.529296875 68.0673828125 226.529296875 68.5107421875 238.594726562 c 128,-1,56
 68.9541015625 250.659179688 68.9541015625 250.659179688 69.83984375 263.403320312 c 128,-1,57
 70.7255859375 276.1484375 70.7255859375 276.1484375 72.0498046875 289.56640625 c 128,-1,58
 73.375 302.984375 73.375 302.984375 75.140625 317.108398438 c 0,59,60
 78.6875 345.474609375 78.6875 345.474609375 84.6357421875 374.3125 c 128,-1,61
 90.5849609375 403.149414062 90.5849609375 403.149414062 98.9306640625 432.456054688 c 0,62,63
 115.666015625 491.215820312 115.666015625 491.215820312 143.044921875 547.001953125 c 0,64,65
 156.829101562 575.086914062 156.829101562 575.086914062 173.708007812 600.237304688 c 128,-1,66
 190.73828125 625.388671875 190.73828125 625.388671875 211.888671875 647.564453125 c 0,67,68
 254.57421875 692.31640625 254.57421875 692.31640625 312.045898438 718.971679688 c 0,69,0
 341.037109375 732.416992188 341.037109375 732.416992188 374.198242188 739.118164062 c 128,-1,1
250.059570312 137.359375 m 0,70,71
 263.588867188 111 263.588867188 111 304.633789062 111 c 0,72,73
 350.702148438 111 350.702148438 111 385.686523438 148.59765625 c 0,74,75
 422.625 188.296875 422.625 188.296875 447.381835938 247.1875 c 0,76,77
 472.397460938 306.696289062 472.397460938 306.696289062 484.397460938 374.643554688 c 0,78,79
 496.440429688 442.827148438 496.440429688 442.827148438 496.440429688 499 c 0,80,81
 496.440429688 520.987304688 496.440429688 520.987304688 492.443359375 539.490234375 c 128,-1,82
 488.447265625 557.993164062 488.447265625 557.993164062 480.575195312 573.083007812 c 0,83,84
 473.467773438 586.706054688 473.467773438 586.706054688 460.674804688 593.353515625 c 128,-1,85
 447.879882812 600 447.879882812 600 427.559570312 600 c 0,86,87
 381.442382812 600 381.442382812 600 345.39453125 561.844726562 c 0,88,89
 326.469726562 541.813476562 326.469726562 541.813476562 310.927734375 517.088867188 c 128,-1,90
 295.387695312 492.364257812 295.387695312 492.364257812 283.250976562 462.87890625 c 0,91,92
 258.745117188 403.344726562 258.745117188 403.344726562 246.739257812 334.8671875 c 0,93,94
 234.694335938 266.178710938 234.694335938 266.178710938 234.694335938 211 c 0,95,96
 234.694335938 167.293945312 234.694335938 167.293945312 250.059570312 137.359375 c 0,70,71
EndSplineSet
EndChar

StartChar: R
Encoding: 82 82 53
Width: 550
VWidth: 1177
Flags: W
LayerCount: 2
Fore
SplineSet
463.603515625 299.362304688 m 128,-1,1
 455.969726562 296.5625 455.969726562 296.5625 447.947265625 294.1171875 c 1,2,3
 463.499023438 269.161132812 463.499023438 269.161132812 476.951171875 239.8984375 c 0,4,5
 493.388671875 204.139648438 493.388671875 204.139648438 508.552734375 165.456054688 c 0,6,7
 523.196289062 126.618164062 523.196289062 126.618164062 534.307617188 87.283203125 c 0,8,9
 539.859375 67.62890625 539.859375 67.62890625 544.405273438 48.6953125 c 128,-1,10
 548.951171875 29.76171875 548.951171875 29.76171875 552.491210938 11.5458984375 c 2,11,-1
 554.734375 0 l 1,12,-1
 542.665039062 0 l 1,13,-1
 396.107421875 0 l 1,14,-1
 387.323242188 0 l 1,15,-1
 385.740234375 8.19921875 l 2,16,17
 372.193359375 78.4052734375 372.193359375 78.4052734375 347.709960938 143.645507812 c 0,18,19
 324.338867188 205.922851562 324.338867188 205.922851562 292.524414062 269 c 1,20,-1
 227.369140625 269 l 1,21,-1
 161.842773438 7.685546875 l 1,22,-1
 159.916015625 0 l 1,23,-1
 151.58984375 0 l 1,24,-1
 6.6650390625 0 l 1,25,-1
 -6 0 l 1,26,-1
 -3.0615234375 11.9873046875 l 1,27,-1
 170.848632812 709.650390625 l 1,28,-1
 172.370117188 715.540039062 l 1,29,-1
 178.764648438 716.881835938 l 2,30,31
 190.546875 719.353515625 190.546875 719.353515625 203.235351562 721.573242188 c 128,-1,32
 215.92578125 723.854492188 215.92578125 723.854492188 229.530273438 725.87890625 c 0,33,34
 256.673828125 729.918945312 256.673828125 729.918945312 282.791015625 732.448242188 c 128,-1,35
 308.9140625 734.977539062 308.9140625 734.977539062 332.9296875 735.990234375 c 128,-1,36
 356.876953125 737 356.876953125 737 376.08203125 737 c 0,37,38
 503.395507812 737 503.395507812 737 563.80078125 684.895507812 c 0,39,40
 624.665039062 632.336914062 624.665039062 632.336914062 624.665039062 543.2578125 c 0,41,42
 624.665039062 522.616210938 624.665039062 522.616210938 621.688476562 502.330078125 c 128,-1,43
 618.711914062 482.043945312 618.711914062 482.043945312 612.766601562 462.163085938 c 128,-1,44
 606.802734375 442.217773438 606.802734375 442.217773438 597.840820312 423.629882812 c 128,-1,45
 588.87890625 405.041992188 588.87890625 405.041992188 576.948242188 387.87109375 c 0,46,47
 553.021484375 353.436523438 553.021484375 353.436523438 518.704101562 328.125 c 0,48,49
 512.749023438 323.732421875 512.749023438 323.732421875 506.426757812 319.728515625 c 0,50,51
 499.859375 315.724609375 499.859375 315.724609375 492.897460938 312.147460938 c 128,-1,52
 485.935546875 308.571289062 485.935546875 308.571289062 478.586914062 305.366210938 c 128,-1,0
 471.237304688 302.161132812 471.237304688 302.161132812 463.603515625 299.362304688 c 128,-1,1
263.00390625 399 m 1,53,-1
 306.520507812 399 l 2,54,55
 337.692382812 399 337.692382812 399 365.234375 406.236328125 c 0,56,57
 392.03125 413.27734375 392.03125 413.27734375 412.435546875 429.073242188 c 0,58,59
 422.630859375 436.965820312 422.630859375 436.965820312 430.763671875 446.833984375 c 128,-1,60
 438.8984375 456.702148438 438.8984375 456.702148438 445.0390625 468.681640625 c 0,61,62
 457.237304688 492.481445312 457.237304688 492.481445312 457.237304688 524.654296875 c 0,63,64
 457.236328125 559.443359375 457.236328125 559.443359375 434.376953125 578.025390625 c 0,65,66
 411.034179688 597 411.034179688 597 351.840820312 597 c 0,67,68
 338.640625 597 338.640625 597 328.072265625 596.090820312 c 0,69,70
 321.625 595.536132812 321.625 595.536132812 315.330078125 594.163085938 c 1,71,-1
 263.00390625 399 l 1,53,-1
EndSplineSet
EndChar

StartChar: S
Encoding: 83 83 54
Width: 550
VWidth: 1177
Flags: W
LayerCount: 2
Fore
SplineSet
218.767578125 131.298828125 m 0,0,1
 246.109375 126 246.109375 126 277.6328125 126 c 0,2,3
 304.869140625 126 304.869140625 126 330.03125 131.1015625 c 0,4,5
 354.37890625 136.0390625 354.37890625 136.0390625 371.654296875 146.654296875 c 0,6,7
 380.1328125 151.86328125 380.1328125 151.86328125 386.90234375 158.533203125 c 128,-1,8
 393.672851562 165.203125 393.672851562 165.203125 398.870117188 173.478515625 c 0,9,10
 409.017578125 189.6328125 409.017578125 189.6328125 409.017578125 214.15625 c 0,11,12
 409.017578125 232.271484375 409.017578125 232.271484375 401.139648438 247.220703125 c 0,13,14
 393.098632812 262.479492188 393.098632812 262.479492188 378.322265625 274.779296875 c 0,15,16
 362.907226562 287.614257812 362.907226562 287.614257812 342.387695312 298.22265625 c 0,17,18
 321.05859375 309.250976562 321.05859375 309.250976562 295.991210938 320.802734375 c 0,19,20
 280.49609375 328.189453125 280.49609375 328.189453125 266.056640625 335.63671875 c 128,-1,21
 251.616210938 343.084960938 251.616210938 343.084960938 238.012695312 350.706054688 c 0,22,23
 209.725585938 366.553710938 209.725585938 366.553710938 189.69140625 388.609375 c 128,-1,24
 169.580078125 410.749023438 169.580078125 410.749023438 157.911132812 440.452148438 c 0,25,26
 152.014648438 455.4609375 152.014648438 455.4609375 149.130859375 473.69140625 c 128,-1,27
 146.247070312 491.921875 146.247070312 491.921875 146.247070312 513.5 c 0,28,29
 146.247070312 618.564453125 146.247070312 618.564453125 223.302734375 682.481445312 c 0,30,31
 299.875976562 746 299.875976562 746 439.499023438 746 c 0,32,33
 484.565429688 746 484.565429688 746 521.208984375 739.84765625 c 0,34,35
 557.21875 733.724609375 557.21875 733.724609375 583.891601562 725.004882812 c 128,-1,36
 610.700195312 716.241210938 610.700195312 716.241210938 629.452148438 706.34375 c 0,37,38
 647.639648438 696.745117188 647.639648438 696.745117188 659.823242188 689.637695312 c 2,39,-1
 668.2421875 684.7265625 l 1,40,-1
 663.547851562 676.18359375 l 1,41,-1
 602.547851562 565.18359375 l 1,42,-1
 597.166992188 555.391601562 l 1,43,-1
 588.029296875 561.822265625 l 2,44,45
 575.294921875 570.783203125 575.294921875 570.783203125 558.877929688 578.333007812 c 0,46,47
 542.166015625 585.8828125 542.166015625 585.8828125 521.080078125 591.924804688 c 0,48,49
 478.942382812 604 478.942382812 604 419.528320312 604 c 0,50,51
 375.326171875 604 375.326171875 604 345.345703125 586.172851562 c 0,52,53
 317.573242188 569.66015625 317.573242188 569.66015625 317.573242188 527.47265625 c 0,54,55
 317.573242188 515.734375 317.573242188 515.734375 320.283203125 506.165039062 c 128,-1,56
 322.993164062 496.596679688 322.993164062 496.596679688 328.241210938 489.190429688 c 128,-1,57
 333.489257812 481.784179688 333.489257812 481.784179688 341.444335938 475.973632812 c 0,58,59
 348.104492188 471.110351562 348.104492188 471.110351562 355.471679688 466.54296875 c 128,-1,60
 362.838867188 461.9765625 362.838867188 461.9765625 371.002929688 457.657226562 c 128,-1,61
 379.16796875 453.338867188 379.16796875 453.338867188 388.15234375 449.276367188 c 128,-1,62
 397.135742188 445.213867188 397.135742188 445.213867188 406.9375 441.411132812 c 0,63,64
 419.55078125 436.096679688 419.55078125 436.096679688 431.34765625 430.635742188 c 128,-1,65
 443.143554688 425.17578125 443.143554688 425.17578125 454.263671875 419.50390625 c 128,-1,66
 465.381835938 413.833007812 465.381835938 413.833007812 475.981445312 407.873046875 c 0,67,68
 508.260742188 389.720703125 508.260742188 389.720703125 531.866210938 365.94140625 c 0,69,70
 555.46875 341.794921875 555.46875 341.794921875 568.147460938 309.041015625 c 128,-1,71
 580.784179688 276.3984375 580.784179688 276.3984375 580.784179688 232.987304688 c 0,72,73
 580.784179688 112.153320312 580.784179688 112.153320312 497.657226562 48.2177734375 c 0,74,75
 412.8515625 -14.72265625 412.8515625 -14.72265625 261.866210938 -15 c 0,76,77
 211.493164062 -15 211.493164062 -15 171.12109375 -7.830078125 c 0,78,79
 131.192382812 -0.6884765625 131.192382812 -0.6884765625 103.46484375 9.06640625 c 128,-1,80
 75.63671875 18.8583984375 75.63671875 18.8583984375 55.37109375 30.2900390625 c 0,81,82
 45.3779296875 35.9267578125 45.3779296875 35.9267578125 37.5537109375 40.8017578125 c 128,-1,83
 29.728515625 45.67578125 29.728515625 45.67578125 23.90234375 49.9130859375 c 2,84,-1
 16.7275390625 55.130859375 l 1,85,-1
 21.0537109375 62.8759765625 l 1,86,-1
 83.0537109375 173.875976562 l 1,87,-1
 88.0224609375 182.771484375 l 1,88,-1
 96.8232421875 177.637695312 l 2,89,90
 108.639648438 170.745117188 108.639648438 170.745117188 126.452148438 161.34375 c 0,91,92
 135.08203125 156.7890625 135.08203125 156.7890625 145.413085938 152.559570312 c 128,-1,93
 155.829101562 148.329101562 155.829101562 148.329101562 167.568359375 144.4453125 c 0,94,95
 191.078125 136.665039062 191.078125 136.665039062 218.767578125 131.298828125 c 0,0,1
EndSplineSet
EndChar

StartChar: T
Encoding: 84 84 55
Width: 550
VWidth: 1177
Flags: W
LayerCount: 2
Fore
SplineSet
738.802734375 729 m 1,0,-1
 735.939453125 718.48046875 l 1,1,-1
 707.939453125 615.624023438 l 1,2,-1
 706.135742188 609 l 1,3,-1
 698.200195312 609 l 1,4,-1
 506.926757812 609 l 1,5,-1
 354.36328125 7.6689453125 l 1,6,-1
 352.41796875 0 l 1,7,-1
 344.072265625 0 l 1,8,-1
 194.200195312 0 l 1,9,-1
 181.51953125 0 l 1,10,-1
 184.4765625 12.3310546875 l 1,11,-1
 331.7109375 609 l 1,12,-1
 148.200195312 609 l 1,13,-1
 135.598632812 609 l 1,14,-1
 138.461914062 619.416992188 l 1,15,-1
 166.461914062 721.272460938 l 1,16,-1
 168.265625 729 l 1,17,-1
 176.200195312 729 l 1,18,-1
 726.200195312 729 l 1,19,-1
 738.802734375 729 l 1,0,-1
EndSplineSet
EndChar

StartChar: U
Encoding: 85 85 56
Width: 550
VWidth: 1177
Flags: W
LayerCount: 2
Fore
SplineSet
344.265625 -10.2470703125 m 128,-1,1
 311.286132812 -15 311.286132812 -15 272.041992188 -15 c 0,2,3
 159.129882812 -15 159.129882812 -15 108.18359375 36.1494140625 c 128,-1,4
 57.3623046875 87.1728515625 57.3623046875 87.1728515625 57.3623046875 176.791015625 c 0,5,6
 57.3623046875 224.642578125 57.3623046875 224.642578125 71.6318359375 284.1796875 c 2,7,-1
 179.7578125 721.338867188 l 1,8,-1
 181.696289062 729 l 1,9,-1
 189.986328125 729 l 1,10,-1
 342.524414062 729 l 1,11,-1
 355.859375 729 l 1,12,-1
 352.755859375 717.071289062 l 1,13,-1
 240.211914062 284.61328125 l 2,14,15
 233.9609375 258.739257812 233.9609375 258.739257812 229.262695312 235.208007812 c 0,16,17
 226.975585938 223.752929688 226.975585938 223.752929688 225.837890625 213.413085938 c 128,-1,18
 224.701171875 203.073242188 224.701171875 203.073242188 224.702148438 193.896484375 c 0,19,20
 224.701171875 178.361328125 224.701171875 178.361328125 228.509765625 166.6875 c 128,-1,21
 232.317382812 155.013671875 232.317382812 155.013671875 239.655273438 146.833984375 c 0,22,23
 253.857421875 131 253.857421875 131 294.133789062 131 c 0,24,25
 306.922851562 131 306.922851562 131 317.79296875 132.666015625 c 128,-1,26
 328.665039062 134.33203125 328.665039062 134.33203125 337.610351562 137.579101562 c 0,27,28
 354.852539062 143.836914062 354.852539062 143.836914062 367.799804688 159.56640625 c 0,29,30
 374.602539062 167.83203125 374.602539062 167.83203125 380.982421875 179.102539062 c 128,-1,31
 387.362304688 190.374023438 387.362304688 190.374023438 393.169921875 204.537109375 c 0,32,33
 397.08984375 214.096679688 397.08984375 214.096679688 400.8515625 225.3046875 c 128,-1,34
 404.612304688 236.512695312 404.612304688 236.512695312 408.25390625 249.53515625 c 128,-1,35
 411.896484375 262.557617188 411.896484375 262.557617188 415.377929688 277.282226562 c 2,36,-1
 532.177734375 721.350585938 l 1,37,-1
 534.123046875 729 l 1,38,-1
 542.40234375 729 l 1,39,-1
 689.362304688 729 l 1,40,-1
 702.051757812 729 l 1,41,-1
 699.084960938 716.993164062 l 1,42,-1
 586.095703125 259.657226562 l 2,43,44
 570.368164062 195.772460938 570.368164062 195.772460938 549.586914062 145.984375 c 0,45,46
 542.540039062 129.103515625 542.540039062 129.103515625 533.96875 113.858398438 c 128,-1,47
 525.397460938 98.6123046875 525.397460938 98.6123046875 515.244140625 84.94140625 c 128,-1,48
 505.090820312 71.271484375 505.090820312 71.271484375 493.409179688 59.283203125 c 0,49,50
 475.717773438 41.1279296875 475.717773438 41.1279296875 453.33984375 27.3271484375 c 128,-1,51
 430.961914062 13.5263671875 430.961914062 13.5263671875 404.100585938 4.14453125 c 0,52,0
 377.245117188 -5.4931640625 377.245117188 -5.4931640625 344.265625 -10.2470703125 c 128,-1,1
EndSplineSet
EndChar

StartChar: V
Encoding: 86 86 57
Width: 550
VWidth: 1177
Flags: W
LayerCount: 2
Fore
SplineSet
230.850585938 0 m 1,0,-1
 229.701171875 8.6875 l 2,1,2
 220.669921875 75.0517578125 220.669921875 75.0517578125 213.650390625 155.033203125 c 128,-1,3
 206.640625 234.900390625 206.640625 234.900390625 201.134765625 319.1328125 c 128,-1,4
 195.625 403.413085938 195.625 403.413085938 192.620117188 489.6328125 c 128,-1,5
 189.615234375 575.862304688 189.615234375 575.862304688 189.614257812 654.825195312 c 2,6,-1
 189.614257812 689.353515625 l 2,7,8
 189.614257812 705.749023438 189.614257812 705.749023438 190.639648438 719.712890625 c 2,9,-1
 191.302734375 729 l 1,10,-1
 200.614257812 729 l 1,11,-1
 351.884765625 729 l 1,12,-1
 362.84375 729 l 1,13,-1
 362.4453125 718.63671875 l 2,14,15
 361.391601562 691.181640625 361.391601562 691.181640625 360.467773438 659.59375 c 128,-1,16
 359.543945312 628.004882812 359.543945312 628.004882812 358.751953125 592.290039062 c 0,17,18
 357.168945312 520.901367188 357.168945312 520.901367188 357.168945312 445 c 0,19,20
 357.168945312 363.122070312 357.168945312 363.122070312 359.280273438 283.751953125 c 0,21,22
 359.787109375 264.626953125 359.787109375 264.626953125 360.364257812 246.053710938 c 128,-1,23
 360.940429688 227.48046875 360.940429688 227.48046875 361.572265625 209.793945312 c 128,-1,24
 362.205078125 192.107421875 362.205078125 192.107421875 362.897460938 175.102539062 c 1,25,26
 388.924804688 223.544921875 388.924804688 223.544921875 417.368164062 280.286132812 c 0,27,28
 456.428710938 358.205078125 456.428710938 358.205078125 494.434570312 437.625 c 128,-1,29
 532.43359375 517.032226562 532.43359375 517.032226562 566.200195312 591.924804688 c 128,-1,30
 599.95703125 666.791015625 599.95703125 666.791015625 623.150390625 722.65625 c 2,31,-1
 625.784179688 729 l 1,32,-1
 632.986328125 729 l 1,33,-1
 786.614257812 729 l 1,34,-1
 801.891601562 729 l 1,35,-1
 795.778320312 715.375 l 2,36,37
 764.719726562 646.150390625 764.719726562 646.150390625 724.1796875 561.408203125 c 128,-1,38
 683.614257812 476.608398438 683.614257812 476.608398438 632.928710938 383.081054688 c 128,-1,39
 582.119140625 289.5078125 582.119140625 289.5078125 524.973632812 192.545898438 c 128,-1,40
 467.798828125 95.537109375 467.798828125 95.537109375 408.493164062 4.841796875 c 2,41,-1
 405.412109375 0 l 1,42,-1
 399.440429688 0 l 1,43,-1
 239.614257812 0 l 1,44,-1
 230.850585938 0 l 1,0,-1
EndSplineSet
EndChar

StartChar: W
Encoding: 87 87 58
Width: 550
VWidth: 1177
Flags: W
LayerCount: 2
Fore
SplineSet
366.788085938 0 m 1,0,-1
 366.018554688 9.2021484375 l 2,1,2
 363.944335938 34.048828125 363.944335938 34.048828125 359.264648438 74.3955078125 c 0,3,4
 354.546875 115.072265625 354.546875 115.072265625 350.87890625 161.749023438 c 128,-1,5
 347.224609375 208.26953125 347.224609375 208.26953125 343.568359375 257.287109375 c 0,6,7
 341.512695312 284.873046875 341.512695312 284.873046875 340.258789062 310.645507812 c 1,8,-1
 174.823242188 5.392578125 l 1,9,-1
 171.900390625 0 l 1,10,-1
 165.557617188 0 l 1,11,-1
 30.4404296875 0 l 1,12,-1
 19.001953125 0 l 1,13,-1
 20.5302734375 11.0302734375 l 2,14,15
 44.5712890625 184.524414062 44.5712890625 184.524414062 80.12890625 360.43359375 c 128,-1,16
 115.65234375 536.180664062 115.65234375 536.180664062 158.49609375 721.158203125 c 2,17,-1
 160.305664062 729 l 1,18,-1
 168.688476562 729 l 1,19,-1
 307.52734375 729 l 1,20,-1
 320.943359375 729 l 1,21,-1
 317.646484375 716.54296875 l 1,22,-1
 188.93359375 230.142578125 l 1,23,-1
 314.940429688 465.5625 l 1,24,-1
 317.8515625 471 l 1,25,-1
 324.23046875 471 l 1,26,-1
 431.751953125 471 l 1,27,-1
 441.926757812 471 l 1,28,-1
 442.1875 461.255859375 l 2,29,30
 444.267578125 383.508789062 444.267578125 383.508789062 450.512695312 303.748046875 c 0,31,32
 453.975585938 259.508789062 453.975585938 259.508789062 457.4765625 217.888671875 c 1,33,-1
 578.162109375 721.23828125 l 1,34,-1
 580.0234375 729 l 1,35,-1
 588.3359375 729 l 1,36,-1
 721.440429688 729 l 1,37,-1
 734.59765625 729 l 1,38,-1
 731.076171875 716.665039062 l 2,39,40
 706.09375 629.153320312 706.09375 629.153320312 680.609375 535.30859375 c 128,-1,41
 655.088867188 441.333984375 655.088867188 441.333984375 628.067382812 347.846679688 c 0,42,43
 600.44140625 254.328125 600.44140625 254.328125 571.696289062 167.12109375 c 128,-1,44
 542.93359375 79.8671875 542.93359375 79.8671875 515.731445312 6.724609375 c 2,45,-1
 513.297851562 0 l 1,46,-1
 505.868164062 0 l 1,47,-1
 376.424804688 0 l 1,48,-1
 366.788085938 0 l 1,0,-1
EndSplineSet
EndChar

StartChar: X
Encoding: 88 88 59
Width: 550
VWidth: 1177
Flags: W
LayerCount: 2
Fore
SplineSet
356.659179688 722.376953125 m 1,0,-1
 433.311523438 516.690429688 l 1,1,2
 468.646484375 561.436523438 468.646484375 561.436523438 505.765625 609.931640625 c 0,3,4
 549.1953125 666.668945312 549.1953125 666.668945312 587.435546875 724.377929688 c 2,5,-1
 590.499023438 729 l 1,6,-1
 596.194335938 729 l 1,7,-1
 751.221679688 729 l 1,8,-1
 770.48046875 729 l 1,9,-1
 759.401367188 713.66796875 l 2,10,11
 695.2578125 624.899414062 695.2578125 624.899414062 628.779296875 543.418945312 c 0,12,13
 615.6171875 527.698242188 615.6171875 527.698242188 602.1875 511.788085938 c 128,-1,14
 588.7578125 495.877929688 588.7578125 495.877929688 575.315429688 480.078125 c 128,-1,15
 561.874023438 464.278320312 561.874023438 464.278320312 548.3671875 448.526367188 c 128,-1,16
 534.861328125 432.774414062 534.861328125 432.774414062 521.451171875 417.256835938 c 128,-1,17
 508.041015625 401.739257812 508.041015625 401.739257812 494.772460938 386.505859375 c 1,18,19
 504.19140625 362.604492188 504.19140625 362.604492188 513.15625 337.989257812 c 128,-1,20
 522.119140625 313.374023438 522.119140625 313.374023438 530.788085938 287.616210938 c 0,21,22
 549.045898438 233.366210938 549.045898438 233.366210938 563.14453125 181.997070312 c 128,-1,23
 577.224609375 130.693359375 577.224609375 130.693359375 587.140625 86.6875 c 0,24,25
 590.465820312 71.9306640625 590.465820312 71.9306640625 593.029296875 58.607421875 c 128,-1,26
 595.595703125 45.28515625 595.595703125 45.28515625 597.418945312 33.2763671875 c 128,-1,27
 599.240234375 21.267578125 599.240234375 21.267578125 600.303710938 10.6416015625 c 2,28,-1
 601.369140625 0 l 1,29,-1
 589.9609375 0 l 1,30,-1
 441.413085938 0 l 1,31,-1
 432.318359375 0 l 1,32,-1
 431.116210938 8.6787109375 l 2,33,34
 422.857421875 59.4423828125 422.857421875 59.4423828125 407.353515625 120 c 0,35,36
 402.9765625 140.087890625 402.9765625 140.087890625 398.142578125 159.887695312 c 128,-1,37
 393.307617188 179.6875 393.307617188 179.6875 388.103515625 198.895507812 c 128,-1,38
 382.8984375 218.104492188 382.8984375 218.104492188 377.27734375 236.924804688 c 1,39,-1
 192.275390625 4.23046875 l 1,40,-1
 189.171875 0 l 1,41,-1
 183.791015625 0 l 1,42,-1
 15.2216796875 0 l 1,43,-1
 -5 0 l 1,44,-1
 7.2744140625 15.640625 l 1,45,-1
 315.345703125 398.666992188 l 1,46,-1
 183.461914062 715.732421875 l 1,47,-1
 177.942382812 729 l 1,48,-1
 193.139648438 729 l 1,49,-1
 346.881835938 729 l 1,50,-1
 354.19140625 729 l 1,51,-1
 356.659179688 722.376953125 l 1,0,-1
EndSplineSet
EndChar

StartChar: Y
Encoding: 89 89 60
Width: 550
VWidth: 1177
Flags: W
LayerCount: 2
Fore
SplineSet
362.974609375 550.284179688 m 0,0,1
 376.8828125 477.706054688 376.8828125 477.706054688 392.73828125 414.024414062 c 1,2,3
 408.34375 435.576171875 408.34375 435.576171875 427.783203125 463.5 c 0,4,5
 456.251953125 504.395507812 456.251953125 504.395507812 486.3203125 549.80859375 c 128,-1,6
 516.401367188 595.241210938 516.401367188 595.241210938 545.427734375 640.672851562 c 0,7,8
 559.912109375 663.345703125 559.912109375 663.345703125 572.680664062 684.138671875 c 128,-1,9
 585.447265625 704.932617188 585.447265625 704.932617188 596.490234375 723.836914062 c 2,10,-1
 599.505859375 729 l 1,11,-1
 605.7421875 729 l 1,12,-1
 764.819335938 729 l 1,13,-1
 782.734375 729 l 1,14,-1
 773.331054688 714.162109375 l 2,15,16
 736.310546875 655.748046875 736.310546875 655.748046875 700.786132812 600.736328125 c 128,-1,17
 665.180664062 545.596679688 665.180664062 545.596679688 625.034179688 491.4375 c 128,-1,18
 584.713867188 437.228515625 584.713867188 437.228515625 540.686523438 384.006835938 c 0,19,20
 497.610351562 331.935546875 497.610351562 331.935546875 447.372070312 275.96875 c 1,21,-1
 377.120117188 7.6572265625 l 1,22,-1
 375.168945312 0 l 1,23,-1
 366.84375 0 l 1,24,-1
 217.819335938 0 l 1,25,-1
 205.15625 0 l 1,26,-1
 208.091796875 11.9892578125 l 1,27,-1
 273.44140625 278.935546875 l 1,28,29
 255.04296875 334.348632812 255.04296875 334.348632812 240.263671875 387.955078125 c 128,-1,30
 225.483398438 441.5625 225.483398438 441.5625 214.03515625 494.372070312 c 0,31,32
 190.958984375 600.809570312 190.958984375 600.809570312 173.91796875 717.901367188 c 2,33,-1
 172.302734375 729 l 1,34,-1
 183.819335938 729 l 1,35,-1
 328.7890625 729 l 1,36,-1
 338.524414062 729 l 1,37,-1
 339.32421875 719.8203125 l 2,38,39
 346.680664062 635.305664062 346.680664062 635.305664062 362.974609375 550.284179688 c 0,0,1
EndSplineSet
EndChar

StartChar: Z
Encoding: 90 90 61
Width: 550
VWidth: 1177
Flags: W
LayerCount: 2
Fore
SplineSet
660.96484375 600.578125 m 1,0,-1
 659.3359375 598.793945312 l 2,1,2
 591.344726562 524.328125 591.344726562 524.328125 531.98828125 460.98828125 c 0,3,4
 471.823242188 397.673828125 471.823242188 397.673828125 418.469726562 340.172851562 c 128,-1,5
 365.125 282.6796875 365.125 282.6796875 317.024414062 229.065429688 c 0,6,7
 276.431640625 183.822265625 276.431640625 183.822265625 237.543945312 139 c 1,8,-1
 547.677734375 139 l 1,9,-1
 561.115234375 139 l 1,10,-1
 557.829101562 126.555664062 l 1,11,-1
 526.419921875 7.5556640625 l 1,12,-1
 524.42578125 0 l 1,13,-1
 516.267578125 0 l 1,14,-1
 20.8408203125 0 l 1,15,-1
 8 0 l 1,16,-1
 11.1455078125 12.041015625 l 1,17,-1
 35.1455078125 103.926757812 l 1,18,-1
 35.640625 105.82421875 l 1,19,-1
 36.8603515625 107.385742188 l 2,20,21
 73.8740234375 154.796875 73.8740234375 154.796875 115.384765625 207.5234375 c 0,22,23
 158.360351562 260.380859375 158.360351562 260.380859375 211.881835938 320.48828125 c 128,-1,24
 265.374023438 380.561523438 265.374023438 380.561523438 331.399414062 451.237304688 c 0,25,26
 351.15234375 472.381835938 351.15234375 472.381835938 372.694335938 495.137695312 c 128,-1,27
 394.237304688 517.893554688 394.237304688 517.893554688 416.97265625 541.63671875 c 128,-1,28
 439.708984375 565.379882812 439.708984375 565.379882812 463.526367188 590 c 1,29,-1
 178.088867188 590 l 1,30,-1
 164.651367188 590 l 1,31,-1
 167.935546875 602.444335938 l 1,32,-1
 199.345703125 721.444335938 l 1,33,-1
 201.340820312 729 l 1,34,-1
 209.499023438 729 l 1,35,-1
 680.840820312 729 l 1,36,-1
 693.595703125 729 l 1,37,-1
 690.551757812 717.01953125 l 1,38,-1
 661.551757812 602.888671875 l 1,39,-1
 660.96484375 600.578125 l 1,0,-1
EndSplineSet
EndChar

StartChar: bracketleft
Encoding: 91 91 62
Width: 550
VWidth: 1177
Flags: W
LayerCount: 2
Fore
SplineSet
326.59765625 833 m 1,0,-1
 653.59765625 833 l 1,1,-1
 666.268554688 833 l 1,2,-1
 663.323242188 820.67578125 l 1,3,-1
 636.32421875 707.67578125 l 1,4,-1
 634.489257812 700 l 1,5,-1
 626.59765625 700 l 1,6,-1
 446.469726562 700 l 1,7,-1
 260.299804688 -71 l 1,8,-1
 435.59765625 -71 l 1,9,-1
 448.268554688 -71 l 1,10,-1
 445.323242188 -83.32421875 l 1,11,-1
 418.323242188 -196.32421875 l 1,12,-1
 416.490234375 -204 l 1,13,-1
 408.59765625 -204 l 1,14,-1
 81.59765625 -204 l 1,15,-1
 68.9033203125 -204 l 1,16,-1
 71.875 -191.658203125 l 1,17,-1
 316.875 825.341796875 l 1,18,-1
 318.720703125 833 l 1,19,-1
 326.59765625 833 l 1,0,-1
EndSplineSet
Substitution2: "'case' Case-Sensitive Forms lookup 17 subtable" Bracketleft
EndChar

StartChar: backslash
Encoding: 92 92 63
Width: 550
VWidth: 1177
Flags: W
LayerCount: 2
Fore
SplineSet
226.26953125 833 m 1,0,-1
 363.26953125 833 l 1,1,-1
 372.370117188 833 l 1,2,-1
 373.225585938 823.939453125 l 1,3,-1
 469.225585938 -193.060546875 l 1,4,-1
 470.258789062 -204 l 1,5,-1
 459.26953125 -204 l 1,6,-1
 319.26953125 -204 l 1,7,-1
 310.142578125 -204 l 1,8,-1
 309.310546875 -194.911132812 l 1,9,-1
 216.310546875 822.088867188 l 1,10,-1
 215.313476562 833 l 1,11,-1
 226.26953125 833 l 1,0,-1
EndSplineSet
Substitution2: "'case' Case-Sensitive Forms lookup 17 subtable" Backslash
EndChar

StartChar: bracketright
Encoding: 93 93 64
Width: 550
VWidth: 1177
Flags: W
LayerCount: 2
Fore
SplineSet
335.57421875 -204 m 1,0,-1
 8.57421875 -204 l 1,1,-1
 -4.0966796875 -204 l 1,2,-1
 -1.15234375 -191.67578125 l 1,3,-1
 25.84765625 -78.67578125 l 1,4,-1
 27.6826171875 -71 l 1,5,-1
 35.57421875 -71 l 1,6,-1
 215.701171875 -71 l 1,7,-1
 401.872070312 700 l 1,8,-1
 226.57421875 700 l 1,9,-1
 213.903320312 700 l 1,10,-1
 216.848632812 712.32421875 l 1,11,-1
 243.84765625 825.32421875 l 1,12,-1
 245.682617188 833 l 1,13,-1
 253.57421875 833 l 1,14,-1
 580.57421875 833 l 1,15,-1
 593.26953125 833 l 1,16,-1
 590.295898438 820.658203125 l 1,17,-1
 345.295898438 -196.341796875 l 1,18,-1
 343.452148438 -204 l 1,19,-1
 335.57421875 -204 l 1,0,-1
EndSplineSet
Substitution2: "'case' Case-Sensitive Forms lookup 17 subtable" Bracketright
EndChar

StartChar: asciicircum
Encoding: 94 94 65
Width: 550
VWidth: 1177
Flags: W
LayerCount: 2
Fore
SplineSet
663.022460938 350.793945312 m 1,0,-1
 531.022460938 294.793945312 l 1,1,-1
 520.963867188 290.526367188 l 1,2,-1
 517.6015625 300.923828125 l 1,3,-1
 437.221679688 549.54296875 l 1,4,-1
 233.834960938 302.641601562 l 1,5,-1
 228.3359375 295.965820312 l 1,6,-1
 220.9375 300.446289062 l 1,7,-1
 111.9375 366.446289062 l 1,8,-1
 101.991210938 372.46875 l 1,9,-1
 109.435546875 381.401367188 l 1,10,-1
 404.435546875 735.401367188 l 1,11,-1
 407.43359375 739 l 1,12,-1
 412.1171875 739 l 1,13,-1
 535.1171875 739 l 1,14,-1
 542.305664062 739 l 1,15,-1
 544.595703125 732.185546875 l 1,16,-1
 668.595703125 363.185546875 l 1,17,-1
 671.545898438 354.41015625 l 1,18,-1
 663.022460938 350.793945312 l 1,0,-1
EndSplineSet
EndChar

StartChar: underscore
Encoding: 95 95 66
Width: 550
VWidth: 1177
Flags: W
LayerCount: 2
Fore
SplineSet
-3.3388671875 -58 m 1,0,-1
 522.661132812 -58 l 1,1,-1
 535.418945312 -58 l 1,2,-1
 532.37109375 -70.388671875 l 1,3,-1
 501.372070312 -196.388671875 l 1,4,-1
 499.499023438 -204 l 1,5,-1
 491.661132812 -204 l 1,6,-1
 -34.3388671875 -204 l 1,7,-1
 -47.0966796875 -204 l 1,8,-1
 -44.0498046875 -191.611328125 l 1,9,-1
 -13.048828125 -65.611328125 l 1,10,-1
 -11.1767578125 -58 l 1,11,-1
 -3.3388671875 -58 l 1,0,-1
EndSplineSet
EndChar

StartChar: grave
Encoding: 96 96 67
Width: 550
VWidth: 1177
Flags: W
LayerCount: 2
Fore
SplineSet
343.78515625 822.010742188 m 1,0,-1
 529.78515625 683.010742188 l 1,1,-1
 537.3984375 677.321289062 l 1,2,-1
 532.103515625 669.428710938 l 1,3,-1
 479.103515625 590.428710938 l 1,4,-1
 474.112304688 582.990234375 l 1,5,-1
 466.171875 587.134765625 l 1,6,-1
 261.171875 694.134765625 l 1,7,-1
 251.427734375 699.220703125 l 1,8,-1
 257.409179688 708.442382812 l 1,9,-1
 329.41015625 819.442382812 l 1,10,-1
 335.224609375 828.407226562 l 1,11,-1
 343.78515625 822.010742188 l 1,0,-1
EndSplineSet
EndChar

StartChar: a
Encoding: 97 97 68
Width: 550
VWidth: 1177
Flags: W
LayerCount: 2
Fore
SplineSet
254.223632812 134.762695312 m 0,0,1
 267.500976562 131 267.500976562 131 284.9453125 131 c 0,2,3
 316.793945312 131 316.793945312 131 337.491210938 143.026367188 c 0,4,5
 344.37890625 147.028320312 344.37890625 147.028320312 350.864257812 151.590820312 c 128,-1,6
 357.3515625 156.154296875 357.3515625 156.154296875 363.240234375 161.09765625 c 128,-1,7
 369.127929688 166.040039062 369.127929688 166.040039062 374.604492188 171.4765625 c 1,8,9
 376.606445312 185.219726562 376.606445312 185.219726562 379.03125 198.470703125 c 0,10,11
 381.756835938 213.37109375 381.756835938 213.37109375 387.16015625 232.423828125 c 2,12,-1
 437.8203125 420.009765625 l 1,13,14
 432.662109375 420.952148438 432.662109375 420.952148438 429.208007812 421.374023438 c 128,-1,15
 425.754882812 421.796875 425.754882812 421.796875 421.131835938 422.087890625 c 0,16,17
 413.883789062 422.543945312 413.883789062 422.543945312 406.907226562 422.772460938 c 128,-1,18
 399.9296875 423 399.9296875 423 393.2265625 423 c 0,19,20
 352.603515625 423 352.603515625 423 320.069335938 406.051757812 c 0,21,22
 286.907226562 388.775390625 286.907226562 388.775390625 263.24609375 360.370117188 c 0,23,24
 239.370117188 331.70703125 239.370117188 331.70703125 226.627929688 294.860351562 c 128,-1,25
 213.819335938 257.823242188 213.819335938 257.823242188 213.819335938 218.038085938 c 0,26,27
 213.818359375 190.3203125 213.818359375 190.3203125 219.258789062 173.31640625 c 0,28,29
 224.483398438 156.985351562 224.483398438 156.985351562 233.65234375 147.286132812 c 0,30,31
 242.294921875 138.142578125 242.294921875 138.142578125 254.223632812 134.762695312 c 0,0,1
343.056640625 6.4443359375 m 0,32,33
 298.985351562 -13 298.985351562 -13 228.61328125 -13 c 0,34,35
 142.321289062 -11.9755859375 142.321289062 -11.9755859375 94.3701171875 44.630859375 c 0,36,37
 78.431640625 63.4453125 78.431640625 63.4453125 67.8916015625 87.802734375 c 128,-1,38
 57.3505859375 112.16015625 57.3505859375 112.16015625 52.23046875 141.408203125 c 128,-1,39
 47.109375 170.65625 47.109375 170.65625 47.109375 205.28515625 c 0,40,41
 47.109375 284.458984375 47.109375 284.458984375 75.3583984375 350.934570312 c 128,-1,42
 103.609375 417.415039062 103.609375 417.415039062 152.000976562 464.651367188 c 0,43,44
 202.450195312 511.895507812 202.450195312 511.895507812 271.275390625 538.235351562 c 0,45,46
 294.211914062 547.013671875 294.211914062 547.013671875 318.033203125 552.87109375 c 0,47,48
 341.852539062 558.936523438 341.852539062 558.936523438 366.494140625 561.96875 c 128,-1,49
 391.135742188 565 391.135742188 565 416.581054688 565 c 0,50,51
 442.544921875 565 442.544921875 565 469.025390625 562.708984375 c 128,-1,52
 495.506835938 560.41796875 495.506835938 560.41796875 521.880859375 555.841796875 c 0,53,54
 547.391601562 551.407226562 547.391601562 551.407226562 572.879882812 544.268554688 c 128,-1,55
 598.369140625 537.12890625 598.369140625 537.12890625 623.823242188 527.295898438 c 2,56,-1
 631.870117188 524.1875 l 1,57,-1
 629.828125 516.052734375 l 1,58,-1
 556.833007812 225.368164062 l 2,59,60
 551.99609375 205.748046875 551.99609375 205.748046875 550.0625 186.606445312 c 0,61,62
 549.411132812 180.1640625 549.411132812 180.1640625 548.977539062 173.668945312 c 128,-1,63
 548.543945312 167.173828125 548.543945312 167.173828125 548.326171875 160.622070312 c 128,-1,64
 548.109375 154.069335938 548.109375 154.069335938 548.109375 147.462890625 c 0,65,66
 548.109375 115.583007812 548.109375 115.583007812 554.415039062 85.1318359375 c 0,67,68
 560.811523438 54.244140625 560.811523438 54.244140625 570.654296875 23.8251953125 c 2,69,-1
 574.083007812 13.2265625 l 1,70,-1
 562.741210938 11.416015625 l 1,71,-1
 431.052734375 -8.8662109375 l 1,72,-1
 422.6328125 -10.177734375 l 1,73,-1
 419.462890625 -2.7138671875 l 2,74,75
 417.564453125 1.7587890625 417.564453125 1.7587890625 414.134765625 7.7587890625 c 0,76,77
 410.159179688 14.7138671875 410.159179688 14.7138671875 406.234375 23.6923828125 c 0,78,79
 404.767578125 27.048828125 404.767578125 27.048828125 403.416992188 30.212890625 c 128,-1,80
 402.06640625 33.3759765625 402.06640625 33.3759765625 400.827148438 36.34765625 c 1,81,82
 392.749023438 31.2802734375 392.749023438 31.2802734375 383.671875 26.2939453125 c 128,-1,83
 374.594726562 21.3076171875 374.594726562 21.3076171875 364.526367188 16.390625 c 128,-1,84
 354.45703125 11.47265625 354.45703125 11.47265625 343.056640625 6.4443359375 c 0,32,33
EndSplineSet
Substitution2: "'case' Case-Sensitive Forms lookup 18 subtable" A
Substitution2: "'ordn' Ordinals in Latin lookup 7 subtable" ordfeminine
EndChar

